{
DisplayStrings = (
/uniF29D
);
copyright = "Created by Adam Bradley with FontForge 2.0 (http://fontforge.sf.net)";
customParameters = (
{
name = vendorID;
value = PfEd;
},
{
name = glyphOrder;
value = (
    ".notdef",
    uni0000,
    uni000D,
    uniF100,
    uniF101,
    uniF102,
    uniF103,
    uniF104,
    uniF105,
    uniF106,
    uniF107,
    uniF108,
    uniF109,
    uniF10A,
    uniF10B,
    uniF10C,
    uniF10D,
    uniF10E,
    uniF10F,
    uniF110,
    uniF111,
    uniF112,
    uniF113,
    uniF114,
    uniF115,
    uniF116,
    uniF117,
    uniF118,
    uniF119,
    uniF11A,
    uniF11B,
    uniF11C,
    uniF11D,
    uniF11E,
    uniF11F,
    uniF120,
    uniF121,
    uniF122,
    uniF123,
    uniF124,
    uniF125,
    uniF126,
    uniF127,
    uniF128,
    uniF129,
    uniF12A,
    uniF12B,
    uniF12C,
    uniF12D,
    uniF12E,
    uniF12F,
    uniF130,
    uniF131,
    uniF132,
    uniF133,
    uniF134,
    uniF135,
    uniF136,
    uniF137,
    uniF138,
    uniF139,
    uniF13A,
    uniF13B,
    uniF13C,
    uniF13D,
    uniF13E,
    uniF13F,
    uniF140,
    uniF141,
    uniF142,
    uniF143,
    uniF144,
    uniF145,
    uniF146,
    uniF147,
    uniF148,
    uniF149,
    uniF14A,
    uniF14B,
    uniF14C,
    uniF14D,
    uniF14E,
    uniF14F,
    uniF150,
    uniF151,
    uniF152,
    uniF153,
    uniF154,
    uniF155,
    uniF156,
    uniF157,
    uniF158,
    uniF159,
    uniF15A,
    uniF15B,
    uniF15C,
    uniF15D,
    uniF15E,
    uniF15F,
    uniF160,
    uniF161,
    uniF162,
    uniF163,
    uniF164,
    uniF165,
    uniF166,
    uniF167,
    uniF168,
    uniF169,
    uniF16A,
    uniF16B,
    uniF16C,
    uniF16D,
    uniF16E,
    uniF16F,
    uniF170,
    uniF171,
    uniF172,
    uniF173,
    uniF174,
    uniF175,
    uniF176,
    uniF177,
    uniF178,
    uniF179,
    uniF17A,
    uniF17B,
    uniF17C,
    uniF17D,
    uniF17E,
    uniF17F,
    uniF180,
    uniF181,
    uniF182,
    uniF183,
    uniF184,
    uniF185,

glyphs = (
{
glyphname = .notdef;
lastChange = "2014-08-26 21:31:26 -0600";
layers = (
{
layerId = "888C22D7-38C6-439F-A69E-1A09249D6A03";
name = Regular;
paths = (
{
closed = 1;
nodes = (
"80 -67 LINE",
"80 1432 LINE",
"678 1432 LINE",
"678 -67 LINE"
);
},
{
closed = 1;
nodes = (
"155 7 LINE",
"603 7 LINE",
"603 1358 LINE",
"155 1358 LINE"
);
}
);
width = 758;
}
);
leftKerningGroup = 10;
rightKerningGroup = 10;
},
{
glyphname = uniF100;
lastChange = "2014-08-26 21:31:26 -0600";
layers = (
{
layerId = "888C22D7-38C6-439F-A69E-1A09249D6A03";
name = Regular;
paths = (
{
closed = 1;
nodes = (
"1557 131 LINE SMOOTH",
"1572 108 OFFCURVE",
"1576 90 OFFCURVE",
"1565 71 CURVE SMOOTH",
"1554 56 OFFCURVE",
"1539 45 OFFCURVE",
"1520 45 CURVE SMOOTH",
"132 45 LINE SMOOTH",
"113 45 OFFCURVE",
"95 56 OFFCURVE",
"83 71 CURVE SMOOTH",
"76 90 OFFCURVE",
"80 108 OFFCURVE",
"91 131 CURVE SMOOTH",
"777 1290 LINE",
"788 1308 OFFCURVE",
"803 1320 OFFCURVE",
"826 1320 CURVE SMOOTH",
"845 1320 OFFCURVE",
"863 1308 OFFCURVE",
"871 1290 CURVE"
);
},
{
closed = 1;
nodes = (
"931 206 LINE",
"931 363 LINE",
"717 363 LINE",
"717 206 LINE"
);
},
{
closed = 1;
nodes = (
"931 468 LINE",
"931 948 LINE",
"717 948 LINE",
"717 468 LINE"
);
}
);
width = 1651.26;
}
);
leftKerningGroup = 10;
rightKerningGroup = 10;
unicode = F100;
},
{
glyphname = uniF101;
lastChange = "2014-08-26 21:31:26 -0600";
layers = (
{
layerId = "888C22D7-38C6-439F-A69E-1A09249D6A03";
name = Regular;
paths = (
{
closed = 1;
nodes = (
"508 -62 LINE",
"80 -62 LINE",
"80 260 LINE",
"508 260 LINE"
);
},
{
closed = 1;
nodes = (
"455 474 LINE",
"133 474 LINE",
"80 1438 LINE",
"508 1438 LINE"
);
}
);
width = 588;
}
);
leftKerningGroup = 0;
rightKerningGroup = 0;
unicode = F101;
},
{
glyphname = uniF102;
lastChange = "2014-08-26 21:31:26 -0600";
layers = (
{
layerId = "888C22D7-38C6-439F-A69E-1A09249D6A03";
name = Regular;
paths = (
{
closed = 1;
nodes = (
"824 458 LINE",
"400 844 LINE",
"666 844 LINE",
"666 1163 LINE",
"985 1163 LINE",
"985 844 LINE",
"1251 844 LINE"
);
},
{
closed = 1;
nodes = (
"1517 495 LINE",
"1559 473 OFFCURVE",
"1574 439 OFFCURVE",
"1570 386 CURVE SMOOTH",
"1540 165 LINE SMOOTH",
"1532 124 OFFCURVE",
"1502 97 OFFCURVE",
"1446 97 CURVE SMOOTH",
"205 97 LINE SMOOTH",
"149 97 OFFCURVE",
"119 124 OFFCURVE",
"111 165 CURVE SMOOTH",
"81 386 LINE SMOOTH",
"74 439 OFFCURVE",
"92 473 OFFCURVE",
"130 495 CURVE",
"366 675 LINE",
"505 675 LINE",
"302 473 LINE",
"467 473 LINE SMOOTH",
"475 473 OFFCURVE",
"482 469 OFFCURVE",
"486 461 CURVE",
"546 311 LINE",
"1105 311 LINE",
"1165 461 LINE",
"1169 469 OFFCURVE",
"1172 473 OFFCURVE",
"1180 473 CURVE SMOOTH",
"1349 473 LINE",
"1142 675 LINE",
"1285 675 LINE"
);
}
);
width = 1650.62;
}
);
rightKerningGroup = 10;
unicode = F102;
},
{
glyphname = uniF103;
lastChange = "2014-08-26 21:31:26 -0600";
layers = (
{
layerId = "888C22D7-38C6-439F-A69E-1A09249D6A03";
name = Regular;
paths = (
{
closed = 1;
nodes = (
"830 -98 LINE",
"80 652 LINE",
"517 652 LINE",
"517 1402 LINE",
"1143 1402 LINE",
"1143 652 LINE",
"1580 652 LINE"
);
}
);
width = 1660;
}
);
leftKerningGroup = 10;
rightKerningGroup = 10;
unicode = F103;
},
{
glyphname = uniF104;
lastChange = "2014-08-26 21:31:26 -0600";
layers = (
{
guideLines = (
{
position = "{634, 400}";
}
);
layerId = "888C22D7-38C6-439F-A69E-1A09249D6A03";
name = Regular;
paths = (
{
closed = 1;
nodes = (
"95 986 LINE SMOOTH",
"84 993 OFFCURVE",
"80 1008 OFFCURVE",
"80 1027 CURVE SMOOTH",
"80 1050 OFFCURVE",
"91 1068 OFFCURVE",
"102 1083 CURVE SMOOTH",
"117 1098 OFFCURVE",
"136 1102 OFFCURVE",
"159 1102 CURVE SMOOTH",
"1501 1102 LINE SMOOTH",
"1524 1102 OFFCURVE",
"1543 1098 OFFCURVE",
"1558 1083 CURVE SMOOTH",
"1573 1068 OFFCURVE",
"1580 1050 OFFCURVE",
"1580 1027 CURVE SMOOTH",
"1580 1012 OFFCURVE",
"1576 1001 OFFCURVE",
"1565 990 CURVE",
"1558 975 LINE",
"920 243 LINE",
"890 217 OFFCURVE",
"864 202 OFFCURVE",
"830 202 CURVE SMOOTH",
"796 202 OFFCURVE",
"770 217 OFFCURVE",
"740 243 CURVE",
"102 975 LINE"
);
}
);
width = 1660;
}
);
leftKerningGroup = 10;
rightKerningGroup = 10;
unicode = F104;
},
{
glyphname = uniF105;
lastChange = "2014-08-26 21:31:26 -0600";
layers = (
{
layerId = "888C22D7-38C6-439F-A69E-1A09249D6A03";
name = Regular;
paths = (
{
closed = 1;
nodes = (
"764 -71 LINE SMOOTH",
"737 -95 OFFCURVE",
"704 -107 OFFCURVE",
"665 -107 CURVE SMOOTH",
"629 -107 OFFCURVE",
"599 -95 OFFCURVE",
"572 -71 CURVE SMOOTH",
"122 358 LINE SMOOTH",
"95 385 OFFCURVE",
"80 415 OFFCURVE",
"80 451 CURVE SMOOTH",
"80 487 OFFCURVE",
"95 517 OFFCURVE",
"122 541 CURVE SMOOTH",
"143 568 OFFCURVE",
"176 580 OFFCURVE",
"218 580 CURVE SMOOTH",
"257 580 OFFCURVE",
"290 568 OFFCURVE",
"317 541 CURVE SMOOTH",
"530 334 LINE",
"530 1261 LINE SMOOTH",
"530 1300 OFFCURVE",
"542 1330 OFFCURVE",
"572 1357 CURVE",
"599 1381 OFFCURVE",
"629 1393 OFFCURVE",
"665 1393 CURVE SMOOTH",
"704 1393 OFFCURVE",
"734 1381 OFFCURVE",
"764 1357 CURVE",
"788 1330 OFFCURVE",
"800 1300 OFFCURVE",
"800 1261 CURVE SMOOTH",
"800 334 LINE",
"1013 541 LINE SMOOTH",
"1040 568 OFFCURVE",
"1073 580 OFFCURVE",
"1112 580 CURVE SMOOTH",
"1154 580 OFFCURVE",
"1187 568 OFFCURVE",
"1208 541 CURVE SMOOTH",
"1235 517 OFFCURVE",
"1250 487 OFFCURVE",
"1250 451 CURVE SMOOTH",
"1250 415 OFFCURVE",
"1235 385 OFFCURVE",
"1208 358 CURVE SMOOTH"
);
}
);
width = 1330;
}
);
unicode = F105;
},
{
glyphname = uniF106;
lastChange = "2014-08-26 21:31:26 -0600";
layers = (
{
layerId = "888C22D7-38C6-439F-A69E-1A09249D6A03";
name = Regular;
paths = (
{
closed = 1;
nodes = (
"80 672 LINE",
"830 1422 LINE",
"830 983 LINE",
"1580 983 LINE",
"1580 361 LINE",
"830 361 LINE",
"830 -78 LINE"
);
}
);
width = 1660;
}
);
leftKerningGroup = 10;
rightKerningGroup = 10;
unicode = F106;
},
{
glyphname = uniF107;
lastChange = "2014-08-26 21:31:26 -0600";
layers = (
{
layerId = "888C22D7-38C6-439F-A69E-1A09249D6A03";
name = Regular;
paths = (
{
closed = 1;
nodes = (
"864 1386 LINE SMOOTH",
"871 1397 OFFCURVE",
"886 1401 OFFCURVE",
"905 1401 CURVE SMOOTH",
"928 1401 OFFCURVE",
"946 1394 OFFCURVE",
"961 1379 CURVE SMOOTH",
"976 1364 OFFCURVE",
"980 1345 OFFCURVE",
"980 1322 CURVE SMOOTH",
"980 -20 LINE SMOOTH",
"980 -43 OFFCURVE",
"976 -62 OFFCURVE",
"961 -77 CURVE SMOOTH",
"946 -92 OFFCURVE",
"928 -99 OFFCURVE",
"905 -99 CURVE SMOOTH",
"886 -99 OFFCURVE",
"871 -95 OFFCURVE",
"864 -84 CURVE SMOOTH",
"853 -77 LINE",
"121 561 LINE",
"95 591 OFFCURVE",
"80 617 OFFCURVE",
"80 651 CURVE SMOOTH",
"80 685 OFFCURVE",
"95 711 OFFCURVE",
"121 741 CURVE",
"853 1379 LINE"
);
}
);
width = 1060;
}
);
leftKerningGroup = 10;
rightKerningGroup = 10;
unicode = F107;
},
{
glyphname = uniF108;
lastChange = "2014-08-26 21:31:26 -0600";
layers = (
{
layerId = "888C22D7-38C6-439F-A69E-1A09249D6A03";
name = Regular;
paths = (
{
closed = 1;
nodes = (
"545 1235 LINE SMOOTH",
"571 1261 OFFCURVE",
"601 1272 OFFCURVE",
"639 1272 CURVE SMOOTH",
"676 1272 OFFCURVE",
"706 1261 OFFCURVE",
"733 1235 CURVE SMOOTH",
"759 1208 OFFCURVE",
"770 1175 OFFCURVE",
"770 1137 CURVE SMOOTH",
"770 1096 OFFCURVE",
"759 1062 OFFCURVE",
"733 1036 CURVE SMOOTH",
"522 822 LINE",
"1449 822 LINE SMOOTH",
"1486 822 OFFCURVE",
"1516 811 OFFCURVE",
"1543 785 CURVE",
"1569 755 OFFCURVE",
"1580 725 OFFCURVE",
"1580 687 CURVE SMOOTH",
"1580 650 OFFCURVE",
"1569 620 OFFCURVE",
"1543 593 CURVE",
"1516 563 OFFCURVE",
"1486 552 OFFCURVE",
"1449 552 CURVE SMOOTH",
"522 552 LINE",
"729 338 LINE SMOOTH",
"755 312 OFFCURVE",
"766 278 OFFCURVE",
"766 237 CURVE SMOOTH",
"766 199 OFFCURVE",
"755 166 OFFCURVE",
"729 139 CURVE SMOOTH",
"703 113 OFFCURVE",
"673 102 OFFCURVE",
"639 102 CURVE SMOOTH",
"601 102 OFFCURVE",
"571 113 OFFCURVE",
"545 139 CURVE SMOOTH",
"117 593 LINE SMOOTH",
"91 620 OFFCURVE",
"80 650 OFFCURVE",
"80 687 CURVE SMOOTH",
"80 725 OFFCURVE",
"91 758 OFFCURVE",
"117 785 CURVE SMOOTH"
);
}
);
width = 1660;
}
);
leftKerningGroup = 10;
rightKerningGroup = 10;
unicode = F108;
},
{
glyphname = uniF109;
lastChange = "2014-08-26 21:31:26 -0600";
layers = (
{
layerId = "888C22D7-38C6-439F-A69E-1A09249D6A03";
name = Regular;
paths = (
{
closed = 1;
nodes = (
"1580 672 LINE",
"830 -78 LINE",
"830 359 LINE",
"80 359 LINE",
"80 985 LINE",
"830 985 LINE",
"830 1422 LINE"
);
}
);
width = 1660;
}
);
leftKerningGroup = 10;
rightKerningGroup = 10;
unicode = F109;
},
{
glyphname = uniF10A;
lastChange = "2014-08-26 21:31:26 -0600";
layers = (
{
layerId = "888C22D7-38C6-439F-A69E-1A09249D6A03";
name = Regular;
paths = (
{
closed = 1;
nodes = (
"196 -73 LINE SMOOTH",
"189 -84 OFFCURVE",
"174 -88 OFFCURVE",
"155 -88 CURVE SMOOTH",
"132 -88 OFFCURVE",
"117 -81 OFFCURVE",
"102 -66 CURVE SMOOTH",
"87 -51 OFFCURVE",
"80 -32 OFFCURVE",
"80 -9 CURVE SMOOTH",
"80 1333 LINE SMOOTH",
"80 1356 OFFCURVE",
"87 1375 OFFCURVE",
"102 1390 CURVE SMOOTH",
"117 1405 OFFCURVE",
"132 1412 OFFCURVE",
"155 1412 CURVE SMOOTH",
"170 1412 OFFCURVE",
"185 1408 OFFCURVE",
"192 1397 CURVE",
"207 1390 LINE",
"939 752 LINE",
"965 722 OFFCURVE",
"980 696 OFFCURVE",
"980 662 CURVE SMOOTH",
"980 628 OFFCURVE",
"965 602 OFFCURVE",
"939 572 CURVE",
"207 -66 LINE"
);
}
);
width = 1060;
}
);
leftKerningGroup = 10;
rightKerningGroup = 10;
unicode = F10A;
},
{
glyphname = uniF10B;
lastChange = "2014-08-26 21:31:26 -0600";
layers = (
{
layerId = "888C22D7-38C6-439F-A69E-1A09249D6A03";
name = Regular;
paths = (
{
closed = 1;
nodes = (
"1543 788 LINE SMOOTH",
"1565 762 OFFCURVE",
"1580 725 OFFCURVE",
"1580 687 CURVE SMOOTH",
"1580 650 OFFCURVE",
"1565 620 OFFCURVE",
"1543 593 CURVE SMOOTH",
"1115 139 LINE SMOOTH",
"1089 113 OFFCURVE",
"1059 102 OFFCURVE",
"1025 102 CURVE SMOOTH",
"988 102 OFFCURVE",
"961 113 OFFCURVE",
"935 139 CURVE SMOOTH",
"905 166 OFFCURVE",
"894 203 OFFCURVE",
"894 241 CURVE SMOOTH",
"894 278 OFFCURVE",
"905 312 OFFCURVE",
"935 338 CURVE SMOOTH",
"1138 552 LINE",
"211 552 LINE SMOOTH",
"174 552 OFFCURVE",
"144 563 OFFCURVE",
"117 593 CURVE",
"95 620 OFFCURVE",
"80 650 OFFCURVE",
"80 687 CURVE SMOOTH",
"80 725 OFFCURVE",
"95 755 OFFCURVE",
"117 788 CURVE",
"144 811 OFFCURVE",
"174 822 OFFCURVE",
"211 822 CURVE SMOOTH",
"1138 822 LINE",
"931 1036 LINE SMOOTH",
"905 1062 OFFCURVE",
"890 1096 OFFCURVE",
"890 1133 CURVE SMOOTH",
"890 1171 OFFCURVE",
"905 1208 OFFCURVE",
"931 1235 CURVE SMOOTH",
"954 1261 OFFCURVE",
"984 1272 OFFCURVE",
"1025 1272 CURVE SMOOTH",
"1059 1272 OFFCURVE",
"1089 1261 OFFCURVE",
"1115 1235 CURVE SMOOTH"
);
}
);
width = 1660;
}
);
leftKerningGroup = 10;
rightKerningGroup = 10;
unicode = F10B;
},
{
glyphname = uniF10C;
lastChange = "2014-08-26 21:31:26 -0600";
layers = (
{
layerId = "888C22D7-38C6-439F-A69E-1A09249D6A03";
name = Regular;
paths = (
{
closed = 1;
nodes = (
"830 1440 LINE",
"1580 690 LINE",
"1141 690 LINE",
"1141 -60 LINE",
"519 -60 LINE",
"519 690 LINE",
"80 690 LINE"
);
}
);
width = 1660;
}
);
leftKerningGroup = 10;
rightKerningGroup = 10;
unicode = F10C;
},
{
glyphname = uniF10D;
lastChange = "2014-08-26 21:31:26 -0600";
layers = (
{
layerId = "888C22D7-38C6-439F-A69E-1A09249D6A03";
name = Regular;
paths = (
{
closed = 1;
nodes = (
"1565 345 LINE SMOOTH",
"1576 338 OFFCURVE",
"1580 323 OFFCURVE",
"1580 304 CURVE SMOOTH",
"1580 281 OFFCURVE",
"1573 266 OFFCURVE",
"1558 251 CURVE SMOOTH",
"1543 240 OFFCURVE",
"1524 229 OFFCURVE",
"1501 229 CURVE SMOOTH",
"159 229 LINE SMOOTH",
"136 229 OFFCURVE",
"117 240 OFFCURVE",
"102 251 CURVE SMOOTH",
"91 266 OFFCURVE",
"80 281 OFFCURVE",
"80 304 CURVE SMOOTH",
"80 319 OFFCURVE",
"84 334 OFFCURVE",
"95 341 CURVE",
"102 356 LINE",
"740 1088 LINE",
"770 1114 OFFCURVE",
"796 1129 OFFCURVE",
"830 1129 CURVE SMOOTH",
"864 1129 OFFCURVE",
"890 1114 OFFCURVE",
"920 1088 CURVE",
"1558 356 LINE"
);
}
);
width = 1660;
}
);
leftKerningGroup = 10;
rightKerningGroup = 10;
unicode = F10D;
},
{
glyphname = uniF10E;
lastChange = "2014-08-26 21:31:26 -0600";
layers = (
{
layerId = "888C22D7-38C6-439F-A69E-1A09249D6A03";
name = Regular;
paths = (
{
closed = 1;
nodes = (
"628 1422 OFFCURVE",
"594 1411 OFFCURVE",
"568 1385 CURVE SMOOTH",
"121 957 LINE SMOOTH",
"95 931 OFFCURVE",
"80 901 OFFCURVE",
"80 863 CURVE SMOOTH",
"80 826 OFFCURVE",
"95 796 OFFCURVE",
"121 770 CURVE SMOOTH",
"144 743 OFFCURVE",
"177 732 OFFCURVE",
"219 732 CURVE SMOOTH",
"256 732 OFFCURVE",
"290 743 OFFCURVE",
"316 770 CURVE SMOOTH",
"530 980 LINE",
"530 53 LINE SMOOTH",
"530 16 OFFCURVE",
"541 -14 OFFCURVE",
"571 -41 CURVE",
"598 -67 OFFCURVE",
"628 -78 OFFCURVE",
"665 -78 CURVE SMOOTH",
"703 -78 OFFCURVE",
"733 -67 OFFCURVE",
"763 -41 CURVE",
"789 -14 OFFCURVE",
"800 16 OFFCURVE",
"800 53 CURVE SMOOTH",
"800 980 LINE",
"1014 773 LINE SMOOTH",
"1040 747 OFFCURVE",
"1074 736 OFFCURVE",
"1111 736 CURVE SMOOTH",
"1153 736 OFFCURVE",
"1186 747 OFFCURVE",
"1209 773 CURVE SMOOTH",
"1235 800 OFFCURVE",
"1250 830 OFFCURVE",
"1250 867 CURVE SMOOTH",
"1250 901 OFFCURVE",
"1235 931 OFFCURVE",
"1209 957 CURVE SMOOTH",
"759 1385 LINE SMOOTH",
"733 1411 OFFCURVE",
"703 1422 OFFCURVE",
"665 1422 CURVE SMOOTH"
);
}
);
width = 1330;
}
);
leftKerningGroup = 10;
rightKerningGroup = 10;
unicode = F10E;
},
{
glyphname = uniF10F;
lastChange = "2014-08-26 21:31:26 -0600";
layers = (
{
layerId = "888C22D7-38C6-439F-A69E-1A09249D6A03";
name = Regular;
paths = (
{
closed = 1;
nodes = (
"1493 166 LINE",
"1413 83 OFFCURVE",
"1319 22 OFFCURVE",
"1208 -18 CURVE SMOOTH",
"1098 -58 OFFCURVE",
"981 -78 OFFCURVE",
"857 -78 CURVE SMOOTH",
"746 -78 OFFCURVE",
"639 -58 OFFCURVE",
"539 -21 CURVE SMOOTH",
"442 16 OFFCURVE",
"361 66 OFFCURVE",
"294 133 CURVE SMOOTH",
"224 203 OFFCURVE",
"174 280 OFFCURVE",
"137 371 CURVE SMOOTH",
"100 468 OFFCURVE",
"80 568 OFFCURVE",
"80 672 CURVE SMOOTH",
"80 779 OFFCURVE",
"100 880 OFFCURVE",
"140 970 CURVE SMOOTH",
"180 1060 OFFCURVE",
"237 1141 OFFCURVE",
"308 1208 CURVE SMOOTH",
"371 1271 OFFCURVE",
"455 1322 OFFCURVE",
"555 1365 CURVE",
"653 1402 OFFCURVE",
"753 1422 OFFCURVE",
"857 1422 CURVE SMOOTH",
"951 1422 OFFCURVE",
"1041 1409 OFFCURVE",
"1128 1382 CURVE SMOOTH",
"1215 1355 OFFCURVE",
"1292 1315 OFFCURVE",
"1359 1261 CURVE SMOOTH",
"1426 1208 OFFCURVE",
"1480 1141 OFFCURVE",
"1520 1060 CURVE SMOOTH",
"1560 980 OFFCURVE",
"1580 886 OFFCURVE",
"1580 776 CURVE SMOOTH",
"1580 692 OFFCURVE",
"1570 618 OFFCURVE",
"1547 562 CURVE",
"1523 498 OFFCURVE",
"1493 444 OFFCURVE",
"1456 407 CURVE",
"1416 364 OFFCURVE",
"1372 334 OFFCURVE",
"1329 314 CURVE SMOOTH",
"1279 290 OFFCURVE",
"1228 280 OFFCURVE",
"1178 280 CURVE SMOOTH",
"1125 280 OFFCURVE",
"1081 294 OFFCURVE",
"1048 320 CURVE SMOOTH",
"1014 347 OFFCURVE",
"997 381 OFFCURVE",
"997 418 CURVE",
"987 418 LINE",
"967 384 OFFCURVE",
"937 354 OFFCURVE",
"894 324 CURVE SMOOTH",
"850 294 OFFCURVE",
"800 280 OFFCURVE",
"740 280 CURVE SMOOTH",
"649 280 OFFCURVE",
"576 310 OFFCURVE",
"525 371 CURVE SMOOTH",
"475 434 OFFCURVE",
"448 511 OFFCURVE",
"448 608 CURVE SMOOTH",
"448 665 OFFCURVE",
"458 722 OFFCURVE",
"478 776 CURVE SMOOTH",
"499 833 OFFCURVE",
"525 880 OFFCURVE",
"559 923 CURVE SMOOTH",
"589 963 OFFCURVE",
"632 997 OFFCURVE",
"686 1027 CURVE SMOOTH",
"736 1054 OFFCURVE",
"793 1067 OFFCURVE",
"850 1067 CURVE SMOOTH",
"894 1067 OFFCURVE",
"937 1057 OFFCURVE",
"977 1034 CURVE",
"1014 1010 OFFCURVE",
"1038 983 OFFCURVE",
"1048 953 CURVE",
"1051 953 LINE",
"1068 1034 LINE",
"1249 1034 LINE",
"1168 655 LINE",
"1165 628 OFFCURVE",
"1161 608 OFFCURVE",
"1158 592 CURVE",
"1155 562 OFFCURVE",
"1151 538 OFFCURVE",
"1151 528 CURVE SMOOTH",
"1151 505 OFFCURVE",
"1155 484 OFFCURVE",
"1165 468 CURVE SMOOTH",
"1175 451 OFFCURVE",
"1192 444 OFFCURVE",
"1215 444 CURVE SMOOTH",
"1269 444 OFFCURVE",
"1312 474 OFFCURVE",
"1346 531 CURVE SMOOTH",
"1382 592 OFFCURVE",
"1399 669 OFFCURVE",
"1399 759 CURVE SMOOTH",
"1399 839 OFFCURVE",
"1386 910 OFFCURVE",
"1359 973 CURVE SMOOTH",
"1336 1030 OFFCURVE",
"1295 1080 OFFCURVE",
"1245 1131 CURVE",
"1198 1174 OFFCURVE",
"1141 1208 OFFCURVE",
"1071 1228 CURVE SMOOTH",
"1004 1248 OFFCURVE",
"930 1258 OFFCURVE",
"853 1258 CURVE SMOOTH",
"763 1258 OFFCURVE",
"686 1245 OFFCURVE",
"619 1214 CURVE SMOOTH",
"549 1184 OFFCURVE",
"488 1144 OFFCURVE",
"438 1087 CURVE SMOOTH",
"385 1030 OFFCURVE",
"345 967 OFFCURVE",
"321 900 CURVE",
"291 823 OFFCURVE",
"278 746 OFFCURVE",
"278 669 CURVE SMOOTH",
"278 575 OFFCURVE",
"291 495 OFFCURVE",
"321 428 CURVE SMOOTH",
"351 357 OFFCURVE",
"395 297 OFFCURVE",
"445 247 CURVE",
"502 197 OFFCURVE",
"565 156 OFFCURVE",
"636 130 CURVE SMOOTH",
"709 103 OFFCURVE",
"790 89 OFFCURVE",
"877 89 CURVE SMOOTH",
"981 89 OFFCURVE",
"1078 106 OFFCURVE",
"1161 143 CURVE SMOOTH",
"1232 173 OFFCURVE",
"1305 220 OFFCURVE",
"1379 287 CURVE"
);
},
{
closed = 1;
nodes = (
"817 900 OFFCURVE",
"790 890 OFFCURVE",
"770 873 CURVE SMOOTH",
"740 849 OFFCURVE",
"720 823 OFFCURVE",
"706 799 CURVE SMOOTH",
"693 776 OFFCURVE",
"679 746 OFFCURVE",
"669 705 CURVE",
"659 675 OFFCURVE",
"656 642 OFFCURVE",
"656 605 CURVE SMOOTH",
"656 582 OFFCURVE",
"656 565 OFFCURVE",
"659 551 CURVE",
"663 535 OFFCURVE",
"669 518 OFFCURVE",
"679 501 CURVE",
"689 488 OFFCURVE",
"703 474 OFFCURVE",
"720 464 CURVE SMOOTH",
"736 454 OFFCURVE",
"760 448 OFFCURVE",
"783 448 CURVE SMOOTH",
"817 448 OFFCURVE",
"847 458 OFFCURVE",
"877 474 CURVE SMOOTH",
"900 488 OFFCURVE",
"920 511 OFFCURVE",
"940 545 CURVE",
"961 575 OFFCURVE",
"974 605 OFFCURVE",
"977 632 CURVE",
"984 665 OFFCURVE",
"987 695 OFFCURVE",
"987 722 CURVE SMOOTH",
"987 752 OFFCURVE",
"987 772 OFFCURVE",
"984 786 CURVE",
"981 803 OFFCURVE",
"974 819 OFFCURVE",
"961 843 CURVE SMOOTH",
"951 859 OFFCURVE",
"937 873 OFFCURVE",
"920 883 CURVE SMOOTH",
"904 893 OFFCURVE",
"880 900 OFFCURVE",
"853 900 CURVE SMOOTH"
);
}
);
width = 1660;
}
);
leftKerningGroup = 10;
rightKerningGroup = 10;
unicode = F10F;
},
{
glyphname = uniF110;
lastChange = "2014-08-26 21:31:26 -0600";
layers = (
{
layerId = "888C22D7-38C6-439F-A69E-1A09249D6A03";
name = Regular;
paths = (
{
closed = 1;
nodes = (
"1473 1003 LINE",
"1580 -68 LINE",
"80 -68 LINE",
"187 1003 LINE",
"401 1003 LINE",
"401 1017 LINE SMOOTH",
"401 1131 OFFCURVE",
"442 1228 OFFCURVE",
"525 1311 CURVE SMOOTH",
"606 1392 OFFCURVE",
"703 1432 OFFCURVE",
"817 1432 CURVE SMOOTH",
"843 1432 LINE SMOOTH",
"957 1432 OFFCURVE",
"1054 1392 OFFCURVE",
"1138 1311 CURVE",
"1218 1228 OFFCURVE",
"1259 1131 OFFCURVE",
"1259 1017 CURVE SMOOTH",
"1259 1003 LINE"
);
},
{
closed = 1;
nodes = (
"509 1003 LINE",
"1151 1003 LINE",
"1151 1017 LINE SMOOTH",
"1151 1101 OFFCURVE",
"1121 1174 OFFCURVE",
"1061 1234 CURVE SMOOTH",
"1001 1295 OFFCURVE",
"927 1325 OFFCURVE",
"843 1325 CURVE SMOOTH",
"817 1325 LINE SMOOTH",
"733 1325 OFFCURVE",
"659 1295 OFFCURVE",
"599 1234 CURVE SMOOTH",
"539 1174 OFFCURVE",
"509 1101 OFFCURVE",
"509 1017 CURVE SMOOTH"
);
},
{
closed = 1;
nodes = (
"201 39 LINE",
"1459 39 LINE",
"1376 896 LINE",
"1259 896 LINE",
"1259 776 LINE",
"1295 752 OFFCURVE",
"1312 722 OFFCURVE",
"1312 682 CURVE SMOOTH",
"1312 652 OFFCURVE",
"1302 625 OFFCURVE",
"1282 605 CURVE SMOOTH",
"1262 585 OFFCURVE",
"1235 575 OFFCURVE",
"1205 575 CURVE SMOOTH",
"1175 575 OFFCURVE",
"1148 585 OFFCURVE",
"1128 605 CURVE SMOOTH",
"1108 625 OFFCURVE",
"1098 652 OFFCURVE",
"1098 682 CURVE SMOOTH",
"1098 722 OFFCURVE",
"1115 752 OFFCURVE",
"1151 776 CURVE",
"1151 896 LINE",
"509 896 LINE",
"509 776 LINE",
"545 752 OFFCURVE",
"562 722 OFFCURVE",
"562 682 CURVE SMOOTH",
"562 652 OFFCURVE",
"552 625 OFFCURVE",
"532 605 CURVE SMOOTH",
"512 585 OFFCURVE",
"485 575 OFFCURVE",
"455 575 CURVE SMOOTH",
"425 575 OFFCURVE",
"398 585 OFFCURVE",
"378 605 CURVE SMOOTH",
"358 625 OFFCURVE",
"348 652 OFFCURVE",
"348 682 CURVE SMOOTH",
"348 722 OFFCURVE",
"365 752 OFFCURVE",
"401 776 CURVE",
"401 896 LINE",
"284 896 LINE"
);
}
);
width = 1660;
}
);
leftKerningGroup = 10;
rightKerningGroup = 10;
unicode = F110;
},
{
glyphname = uniF111;
lastChange = "2014-08-26 21:31:26 -0600";
layers = (
{
layerId = "888C22D7-38C6-439F-A69E-1A09249D6A03";
name = Regular;
paths = (
{
closed = 1;
nodes = (
"113 233 LINE SMOOTH",
"90 233 OFFCURVE",
"80 243 OFFCURVE",
"80 267 CURVE SMOOTH",
"80 1057 LINE SMOOTH",
"80 1081 OFFCURVE",
"90 1091 OFFCURVE",
"113 1091 CURVE SMOOTH",
"1389 1091 LINE SMOOTH",
"1413 1091 OFFCURVE",
"1423 1081 OFFCURVE",
"1423 1057 CURVE SMOOTH",
"1423 876 LINE",
"1547 876 LINE SMOOTH",
"1570 876 OFFCURVE",
"1580 866 OFFCURVE",
"1580 843 CURVE SMOOTH",
"1580 481 LINE SMOOTH",
"1580 458 OFFCURVE",
"1570 448 OFFCURVE",
"1547 448 CURVE SMOOTH",
"1423 448 LINE",
"1423 267 LINE SMOOTH",
"1423 243 OFFCURVE",
"1413 233 OFFCURVE",
"1389 233 CURVE SMOOTH"
);
},
{
closed = 1;
nodes = (
"833 983 LINE",
"499 612 LINE",
"703 612 LINE",
"612 341 LINE",
"947 712 LINE",
"743 712 LINE"
);
}
);
width = 1660;
}
);
leftKerningGroup = 10;
rightKerningGroup = 10;
unicode = F111;
},
{
glyphname = uniF112;
lastChange = "2014-08-26 21:31:26 -0600";
layers = (
{
layerId = "888C22D7-38C6-439F-A69E-1A09249D6A03";
name = Regular;
paths = (
{
closed = 1;
nodes = (
"1547 846 LINE SMOOTH",
"1570 846 OFFCURVE",
"1580 836 OFFCURVE",
"1580 813 CURVE SMOOTH",
"1580 451 LINE SMOOTH",
"1580 428 OFFCURVE",
"1570 418 OFFCURVE",
"1547 418 CURVE SMOOTH",
"1423 418 LINE",
"1423 237 LINE SMOOTH",
"1423 213 OFFCURVE",
"1413 203 OFFCURVE",
"1389 203 CURVE SMOOTH",
"113 203 LINE SMOOTH",
"90 203 OFFCURVE",
"80 213 OFFCURVE",
"80 237 CURVE SMOOTH",
"80 1027 LINE SMOOTH",
"80 1051 OFFCURVE",
"90 1061 OFFCURVE",
"113 1061 CURVE SMOOTH",
"1389 1061 LINE SMOOTH",
"1413 1061 OFFCURVE",
"1423 1051 OFFCURVE",
"1423 1027 CURVE SMOOTH",
"1423 846 LINE"
);
},
{
closed = 1;
nodes = (
"1473 525 LINE",
"1473 739 LINE",
"1423 739 LINE",
"1315 739 LINE",
"1315 846 LINE",
"1315 953 LINE",
"187 953 LINE",
"187 311 LINE",
"1315 311 LINE",
"1315 418 LINE",
"1315 525 LINE",
"1423 525 LINE"
);
}
);
width = 1660;
}
);
leftKerningGroup = 10;
rightKerningGroup = 10;
unicode = F112;
},
{
glyphname = uniF113;
lastChange = "2014-08-26 21:31:26 -0600";
layers = (
{
layerId = "888C22D7-38C6-439F-A69E-1A09249D6A03";
name = Regular;
paths = (
{
closed = 1;
nodes = (
"1547 856 LINE SMOOTH",
"1570 856 OFFCURVE",
"1580 846 OFFCURVE",
"1580 823 CURVE SMOOTH",
"1580 461 LINE SMOOTH",
"1580 438 OFFCURVE",
"1570 428 OFFCURVE",
"1547 428 CURVE SMOOTH",
"1423 428 LINE",
"1423 247 LINE SMOOTH",
"1423 223 OFFCURVE",
"1413 213 OFFCURVE",
"1389 213 CURVE SMOOTH",
"113 213 LINE SMOOTH",
"90 213 OFFCURVE",
"80 223 OFFCURVE",
"80 247 CURVE SMOOTH",
"80 1037 LINE SMOOTH",
"80 1061 OFFCURVE",
"90 1071 OFFCURVE",
"113 1071 CURVE SMOOTH",
"1389 1071 LINE SMOOTH",
"1413 1071 OFFCURVE",
"1423 1061 OFFCURVE",
"1423 1037 CURVE SMOOTH",
"1423 856 LINE"
);
}
);
width = 1660;
}
);
leftKerningGroup = 10;
rightKerningGroup = 10;
unicode = F113;
},
{
glyphname = uniF114;
lastChange = "2014-08-26 21:31:26 -0600";
layers = (
{
layerId = "888C22D7-38C6-439F-A69E-1A09249D6A03";
name = Regular;
paths = (
{
closed = 1;
nodes = (
"1547 856 LINE SMOOTH",
"1570 856 OFFCURVE",
"1580 846 OFFCURVE",
"1580 823 CURVE SMOOTH",
"1580 461 LINE SMOOTH",
"1580 438 OFFCURVE",
"1570 428 OFFCURVE",
"1547 428 CURVE SMOOTH",
"1423 428 LINE",
"1423 247 LINE SMOOTH",
"1423 223 OFFCURVE",
"1413 213 OFFCURVE",
"1389 213 CURVE SMOOTH",
"113 213 LINE SMOOTH",
"90 213 OFFCURVE",
"80 223 OFFCURVE",
"80 247 CURVE SMOOTH",
"80 1037 LINE SMOOTH",
"80 1061 OFFCURVE",
"90 1071 OFFCURVE",
"113 1071 CURVE SMOOTH",
"1389 1071 LINE SMOOTH",
"1413 1071 OFFCURVE",
"1423 1061 OFFCURVE",
"1423 1037 CURVE SMOOTH",
"1423 856 LINE"
);
},
{
closed = 1;
nodes = (
"1473 535 LINE",
"1473 749 LINE",
"1423 749 LINE",
"1315 749 LINE",
"1315 856 LINE",
"1315 963 LINE",
"1044 963 LINE",
"1151 321 LINE",
"1315 321 LINE",
"1315 428 LINE",
"1315 535 LINE",
"1423 535 LINE"
);
}
);
width = 1660;
}
);
leftKerningGroup = 10;
rightKerningGroup = 10;
unicode = F114;
},
{
glyphname = uniF115;
lastChange = "2014-08-26 21:31:26 -0600";
layers = (
{
layerId = "888C22D7-38C6-439F-A69E-1A09249D6A03";
name = Regular;
paths = (
{
closed = 1;
nodes = (
"113 233 LINE SMOOTH",
"90 233 OFFCURVE",
"80 243 OFFCURVE",
"80 267 CURVE SMOOTH",
"80 1057 LINE SMOOTH",
"80 1081 OFFCURVE",
"90 1091 OFFCURVE",
"113 1091 CURVE SMOOTH",
"1389 1091 LINE SMOOTH",
"1413 1091 OFFCURVE",
"1423 1081 OFFCURVE",
"1423 1057 CURVE SMOOTH",
"1423 876 LINE",
"1547 876 LINE SMOOTH",
"1570 876 OFFCURVE",
"1580 866 OFFCURVE",
"1580 843 CURVE SMOOTH",
"1580 481 LINE SMOOTH",
"1580 458 OFFCURVE",
"1570 448 OFFCURVE",
"1547 448 CURVE SMOOTH",
"1423 448 LINE",
"1423 267 LINE SMOOTH",
"1423 243 OFFCURVE",
"1413 233 OFFCURVE",
"1389 233 CURVE SMOOTH"
);
},
{
closed = 1;
nodes = (
"1315 983 LINE",
"616 983 LINE",
"723 341 LINE",
"1315 341 LINE",
"1315 448 LINE",
"1315 555 LINE",
"1423 555 LINE",
"1473 555 LINE",
"1473 769 LINE",
"1423 769 LINE",
"1315 769 LINE",
"1315 876 LINE"
);
}
);
width = 1660;
}
);
leftKerningGroup = 10;
rightKerningGroup = 10;
unicode = F115;
},
{
glyphname = uniF116;
lastChange = "2014-08-26 21:31:26 -0600";
layers = (
{
layerId = "888C22D7-38C6-439F-A69E-1A09249D6A03";
name = Regular;
paths = (
{
closed = 1;
nodes = (
"155 1094 OFFCURVE",
"175 1107 OFFCURVE",
"182 1097 CURVE",
"410 880 LINE",
"410 880 LINE",
"416 869 OFFCURVE",
"423 866 OFFCURVE",
"430 863 CURVE",
"433 859 OFFCURVE",
"440 863 OFFCURVE",
"443 869 CURVE",
"443 1392 LINE",
"443 1399 LINE SMOOTH",
"443 1422 OFFCURVE",
"457 1432 OFFCURVE",
"483 1432 CURVE SMOOTH",
"493 1432 OFFCURVE",
"504 1429 OFFCURVE",
"514 1419 CURVE SMOOTH",
"775 1167 OFFCURVE",
"912 1037 OFFCURVE",
"922 1027 CURVE SMOOTH",
"939 1010 OFFCURVE",
"942 997 OFFCURVE",
"925 980 CURVE SMOOTH",
"644 709 LINE SMOOTH",
"634 699 OFFCURVE",
"631 692 OFFCURVE",
"631 682 CURVE",
"644 655 LINE",
"925 384 LINE SMOOTH",
"942 367 OFFCURVE",
"939 354 OFFCURVE",
"922 337 CURVE SMOOTH",
"514 -55 LINE SMOOTH",
"504 -65 OFFCURVE",
"493 -68 OFFCURVE",
"483 -68 CURVE SMOOTH",
"457 -68 OFFCURVE",
"443 -58 OFFCURVE",
"443 -35 CURVE SMOOTH",
"443 -28 LINE",
"443 494 LINE",
"440 501 OFFCURVE",
"433 505 OFFCURVE",
"430 501 CURVE",
"423 498 OFFCURVE",
"416 491 OFFCURVE",
"410 484 CURVE",
"410 481 LINE",
"182 267 LINE",
"175 257 OFFCURVE",
"155 270 OFFCURVE",
"118 307 CURVE SMOOTH",
"88 337 OFFCURVE",
"75 357 OFFCURVE",
"82 367 CURVE",
"383 655 LINE",
"393 662 OFFCURVE",
"396 672 OFFCURVE",
"396 682 CURVE",
"383 709 LINE",
"185 900 OFFCURVE",
"85 993 OFFCURVE",
"82 997 CURVE",
"75 1007 OFFCURVE",
"88 1027 OFFCURVE",
"118 1057 CURVE SMOOTH"
);
},
{
closed = 1;
nodes = (
"587 873 LINE",
"591 863 OFFCURVE",
"597 859 OFFCURVE",
"604 863 CURVE",
"607 866 OFFCURVE",
"614 869 OFFCURVE",
"621 876 CURVE SMOOTH",
"721 977 LINE SMOOTH",
"728 983 OFFCURVE",
"731 990 OFFCURVE",
"731 1000 CURVE SMOOTH",
"731 1010 OFFCURVE",
"728 1017 OFFCURVE",
"721 1024 CURVE SMOOTH",
"621 1124 LINE SMOOTH",
"597 1147 OFFCURVE",
"587 1151 OFFCURVE",
"587 1137 CURVE SMOOTH"
);
},
{
closed = 1;
nodes = (
"587 227 LINE SMOOTH",
"587 213 OFFCURVE",
"597 217 OFFCURVE",
"621 240 CURVE SMOOTH",
"721 340 LINE SMOOTH",
"728 347 OFFCURVE",
"731 354 OFFCURVE",
"731 364 CURVE SMOOTH",
"731 374 OFFCURVE",
"728 381 OFFCURVE",
"721 387 CURVE SMOOTH",
"621 488 LINE SMOOTH",
"614 494 OFFCURVE",
"607 498 OFFCURVE",
"604 501 CURVE",
"597 505 OFFCURVE",
"591 501 OFFCURVE",
"587 491 CURVE"
);
}
);
width = 1016.35;
}
);
leftKerningGroup = 10;
rightKerningGroup = 10;
unicode = F116;
},
{
glyphname = uniF117;
lastChange = "2014-08-26 21:31:26 -0600";
layers = (
{
layerId = "888C22D7-38C6-439F-A69E-1A09249D6A03";
name = Regular;
paths = (
{
closed = 1;
nodes = (
"348 1305 LINE SMOOTH",
"348 1335 OFFCURVE",
"358 1362 OFFCURVE",
"378 1382 CURVE SMOOTH",
"398 1402 OFFCURVE",
"425 1412 OFFCURVE",
"455 1412 CURVE SMOOTH",
"485 1412 OFFCURVE",
"512 1402 OFFCURVE",
"532 1382 CURVE SMOOTH",
"552 1362 OFFCURVE",
"562 1335 OFFCURVE",
"562 1305 CURVE SMOOTH",
"562 1198 LINE SMOOTH",
"562 1168 OFFCURVE",
"552 1141 OFFCURVE",
"532 1121 CURVE SMOOTH",
"512 1101 OFFCURVE",
"485 1091 OFFCURVE",
"455 1091 CURVE SMOOTH",
"425 1091 OFFCURVE",
"398 1101 OFFCURVE",
"378 1121 CURVE SMOOTH",
"358 1141 OFFCURVE",
"348 1168 OFFCURVE",
"348 1198 CURVE SMOOTH"
);
},
{
closed = 1;
nodes = (
"1098 1305 LINE SMOOTH",
"1098 1335 OFFCURVE",
"1108 1362 OFFCURVE",
"1128 1382 CURVE SMOOTH",
"1148 1402 OFFCURVE",
"1175 1412 OFFCURVE",
"1205 1412 CURVE SMOOTH",
"1235 1412 OFFCURVE",
"1262 1402 OFFCURVE",
"1282 1382 CURVE SMOOTH",
"1302 1362 OFFCURVE",
"1312 1335 OFFCURVE",
"1312 1305 CURVE SMOOTH",
"1312 1198 LINE SMOOTH",
"1312 1168 OFFCURVE",
"1302 1141 OFFCURVE",
"1282 1121 CURVE SMOOTH",
"1262 1101 OFFCURVE",
"1235 1091 OFFCURVE",
"1205 1091 CURVE SMOOTH",
"1175 1091 OFFCURVE",
"1148 1101 OFFCURVE",
"1128 1121 CURVE SMOOTH",
"1108 1141 OFFCURVE",
"1098 1168 OFFCURVE",
"1098 1198 CURVE SMOOTH"
);
},
{
closed = 1;
nodes = (
"1553 1305 LINE SMOOTH",
"1570 1305 OFFCURVE",
"1580 1295 OFFCURVE",
"1580 1278 CURVE SMOOTH",
"1580 -61 LINE SMOOTH",
"1580 -78 OFFCURVE",
"1570 -88 OFFCURVE",
"1553 -88 CURVE SMOOTH",
"107 -88 LINE SMOOTH",
"90 -88 OFFCURVE",
"80 -78 OFFCURVE",
"80 -61 CURVE SMOOTH",
"80 1278 LINE SMOOTH",
"80 1295 OFFCURVE",
"90 1305 OFFCURVE",
"107 1305 CURVE SMOOTH",
"294 1305 LINE",
"294 1168 LINE SMOOTH",
"294 1131 OFFCURVE",
"311 1101 OFFCURVE",
"345 1077 CURVE",
"375 1050 OFFCURVE",
"411 1037 OFFCURVE",
"455 1037 CURVE SMOOTH",
"499 1037 OFFCURVE",
"535 1050 OFFCURVE",
"569 1077 CURVE SMOOTH",
"599 1101 OFFCURVE",
"616 1131 OFFCURVE",
"616 1168 CURVE SMOOTH",
"616 1305 LINE",
"1044 1305 LINE",
"1044 1168 LINE SMOOTH",
"1044 1131 OFFCURVE",
"1061 1101 OFFCURVE",
"1095 1077 CURVE",
"1128 1050 OFFCURVE",
"1165 1037 OFFCURVE",
"1208 1037 CURVE SMOOTH",
"1249 1037 OFFCURVE",
"1285 1050 OFFCURVE",
"1319 1077 CURVE SMOOTH",
"1349 1101 OFFCURVE",
"1366 1131 OFFCURVE",
"1366 1168 CURVE SMOOTH",
"1366 1305 LINE"
);
},
{
closed = 1;
nodes = (
"1419 73 LINE",
"1419 930 LINE",
"241 930 LINE",
"241 73 LINE"
);
}
);
width = 1660;
}
);
leftKerningGroup = 10;
rightKerningGroup = 10;
unicode = F117;
},
{
glyphname = uniF118;
lastChange = "2014-08-26 21:31:26 -0600";
layers = (
{
layerId = "888C22D7-38C6-439F-A69E-1A09249D6A03";
name = Regular;
paths = (
{
closed = 1;
nodes = (
"1457 1065 LINE SMOOTH",
"1490 1065 OFFCURVE",
"1519 1054 OFFCURVE",
"1544 1033 CURVE",
"1569 1007 OFFCURVE",
"1580 978 OFFCURVE",
"1580 946 CURVE SMOOTH",
"1580 218 LINE SMOOTH",
"1580 185 OFFCURVE",
"1569 156 OFFCURVE",
"1544 131 CURVE SMOOTH",
"1519 106 OFFCURVE",
"1490 95 OFFCURVE",
"1457 95 CURVE SMOOTH",
"203 95 LINE SMOOTH",
"170 95 OFFCURVE",
"141 106 OFFCURVE",
"116 131 CURVE SMOOTH",
"91 156 OFFCURVE",
"80 185 OFFCURVE",
"80 218 CURVE SMOOTH",
"80 946 LINE SMOOTH",
"80 978 OFFCURVE",
"91 1007 OFFCURVE",
"116 1033 CURVE",
"141 1054 OFFCURVE",
"170 1065 OFFCURVE",
"203 1065 CURVE SMOOTH",
"451 1065 LINE",
"592 1209 LINE",
"614 1235 OFFCURVE",
"643 1249 OFFCURVE",
"682 1249 CURVE SMOOTH",
"985 1249 LINE SMOOTH",
"1018 1249 OFFCURVE",
"1043 1238 OFFCURVE",
"1068 1213 CURVE",
"1068 1213 LINE",
"1216 1065 LINE"
);
},
{
closed = 1;
nodes = (
"661 308 OFFCURVE",
"740 275 OFFCURVE",
"830 275 CURVE SMOOTH",
"920 275 OFFCURVE",
"999 308 OFFCURVE",
"1064 376 CURVE SMOOTH",
"1129 441 OFFCURVE",
"1162 521 OFFCURVE",
"1162 611 CURVE SMOOTH",
"1162 701 OFFCURVE",
"1129 780 OFFCURVE",
"1064 849 CURVE SMOOTH",
"999 914 OFFCURVE",
"920 946 OFFCURVE",
"830 946 CURVE SMOOTH",
"740 946 OFFCURVE",
"661 914 OFFCURVE",
"596 849 CURVE SMOOTH",
"531 780 OFFCURVE",
"498 701 OFFCURVE",
"498 611 CURVE SMOOTH",
"498 521 OFFCURVE",
"531 441 OFFCURVE",
"596 376 CURVE SMOOTH"
);
},
{
closed = 1;
nodes = (
"1385 892 OFFCURVE",
"1403 874 OFFCURVE",
"1436 874 CURVE SMOOTH",
"1468 874 OFFCURVE",
"1486 892 OFFCURVE",
"1486 924 CURVE SMOOTH",
"1486 957 OFFCURVE",
"1468 975 OFFCURVE",
"1436 975 CURVE SMOOTH",
"1403 975 OFFCURVE",
"1385 957 OFFCURVE",
"1385 924 CURVE SMOOTH"
);
},
{
closed = 1;
nodes = (
"700 838 OFFCURVE",
"761 863 OFFCURVE",
"830 863 CURVE SMOOTH",
"899 863 OFFCURVE",
"960 838 OFFCURVE",
"1010 791 CURVE",
"1057 741 OFFCURVE",
"1082 679 OFFCURVE",
"1082 611 CURVE SMOOTH",
"1082 542 OFFCURVE",
"1057 481 OFFCURVE",
"1010 434 CURVE SMOOTH",
"960 384 OFFCURVE",
"899 358 OFFCURVE",
"830 358 CURVE SMOOTH",
"761 358 OFFCURVE",
"700 384 OFFCURVE",
"653 434 CURVE",
"603 481 OFFCURVE",
"578 542 OFFCURVE",
"578 611 CURVE SMOOTH",
"578 679 OFFCURVE",
"603 741 OFFCURVE",
"653 791 CURVE SMOOTH"
);
}
);
width = 1660;
}
);
leftKerningGroup = 10;
rightKerningGroup = 10;
unicode = F118;
},
{
glyphname = uniF119;
lastChange = "2014-08-26 21:31:26 -0600";
layers = (
{
layerId = "888C22D7-38C6-439F-A69E-1A09249D6A03";
name = Regular;
paths = (
{
closed = 1;
nodes = (
"1486 1198 LINE SMOOTH",
"1513 1198 OFFCURVE",
"1536 1188 OFFCURVE",
"1553 1171 CURVE SMOOTH",
"1570 1154 OFFCURVE",
"1580 1131 OFFCURVE",
"1580 1104 CURVE SMOOTH",
"1580 220 LINE SMOOTH",
"1580 193 OFFCURVE",
"1570 170 OFFCURVE",
"1553 153 CURVE SMOOTH",
"1536 136 OFFCURVE",
"1513 126 OFFCURVE",
"1486 126 CURVE SMOOTH",
"174 126 LINE SMOOTH",
"147 126 OFFCURVE",
"124 136 OFFCURVE",
"107 153 CURVE SMOOTH",
"90 170 OFFCURVE",
"80 193 OFFCURVE",
"80 220 CURVE",
"80 220 LINE",
"80 1104 LINE",
"80 1104 LINE",
"80 1131 OFFCURVE",
"90 1154 OFFCURVE",
"107 1171 CURVE SMOOTH",
"124 1188 OFFCURVE",
"147 1198 OFFCURVE",
"174 1198 CURVE SMOOTH"
);
},
{
closed = 1;
nodes = (
"231 1091 LINE SMOOTH",
"207 1091 OFFCURVE",
"190 1077 OFFCURVE",
"187 1050 CURVE",
"187 983 LINE",
"1473 983 LINE",
"1473 1050 LINE",
"1470 1077 OFFCURVE",
"1453 1091 OFFCURVE",
"1429 1091 CURVE SMOOTH"
);
},
{
closed = 1;
nodes = (
"1429 233 LINE SMOOTH",
"1453 233 OFFCURVE",
"1470 247 OFFCURVE",
"1473 274 CURVE",
"1473 662 LINE",
"187 662 LINE",
"187 274 LINE",
"190 247 OFFCURVE",
"207 233 OFFCURVE",
"231 233 CURVE SMOOTH"
);
},
{
closed = 1;
nodes = (
"294 448 LINE",
"294 501 LINE",
"937 501 LINE",
"937 448 LINE"
);
},
{
closed = 1;
nodes = (
"294 341 LINE",
"294 394 LINE",
"616 394 LINE",
"616 341 LINE"
);
},
{
closed = 1;
nodes = (
"1151 341 LINE",
"1151 501 LINE",
"1366 501 LINE",
"1366 341 LINE"
);
}
);
width = 1660;
}
);
leftKerningGroup = 10;
rightKerningGroup = 10;
unicode = F119;
},
{
glyphname = uniF11A;
lastChange = "2014-08-26 21:31:26 -0600";
layers = (
{
layerId = "888C22D7-38C6-439F-A69E-1A09249D6A03";
name = Regular;
paths = (
{
closed = 1;
nodes = (
"354 52 LINE SMOOTH",
"278 52 OFFCURVE",
"213 77 OFFCURVE",
"159 127 CURVE",
"105 174 OFFCURVE",
"80 236 OFFCURVE",
"80 308 CURVE SMOOTH",
"80 1061 LINE SMOOTH",
"80 1134 OFFCURVE",
"105 1195 OFFCURVE",
"159 1245 CURVE SMOOTH",
"213 1296 OFFCURVE",
"278 1321 OFFCURVE",
"354 1321 CURVE SMOOTH",
"1306 1321 LINE SMOOTH",
"1382 1321 OFFCURVE",
"1447 1296 OFFCURVE",
"1501 1245 CURVE SMOOTH",
"1555 1195 OFFCURVE",
"1580 1134 OFFCURVE",
"1580 1061 CURVE SMOOTH",
"1580 308 LINE SMOOTH",
"1580 236 OFFCURVE",
"1555 174 OFFCURVE",
"1501 127 CURVE",
"1447 77 OFFCURVE",
"1382 52 OFFCURVE",
"1306 52 CURVE SMOOTH",
"1292 52 LINE",
"1292 -179 LINE",
"1100 -49 OFFCURVE",
"999 23 OFFCURVE",
"981 34 CURVE SMOOTH",
"963 45 OFFCURVE",
"938 52 OFFCURVE",
"906 52 CURVE SMOOTH"
);
},
{
closed = 1;
nodes = (
"1237 791 OFFCURVE",
"1209 802 OFFCURVE",
"1176 802 CURVE SMOOTH",
"1144 802 OFFCURVE",
"1115 791 OFFCURVE",
"1093 769 CURVE SMOOTH",
"1072 748 OFFCURVE",
"1061 719 OFFCURVE",
"1061 686 CURVE SMOOTH",
"1061 654 OFFCURVE",
"1072 625 OFFCURVE",
"1093 603 CURVE SMOOTH",
"1115 582 OFFCURVE",
"1144 571 OFFCURVE",
"1176 571 CURVE SMOOTH",
"1209 571 OFFCURVE",
"1237 582 OFFCURVE",
"1259 603 CURVE SMOOTH",
"1281 625 OFFCURVE",
"1292 654 OFFCURVE",
"1292 686 CURVE SMOOTH",
"1292 719 OFFCURVE",
"1281 748 OFFCURVE",
"1259 769 CURVE SMOOTH"
);
},
{
closed = 1;
nodes = (
"891 791 OFFCURVE",
"862 802 OFFCURVE",
"830 802 CURVE SMOOTH",
"798 802 OFFCURVE",
"769 791 OFFCURVE",
"747 769 CURVE SMOOTH",
"725 748 OFFCURVE",
"715 719 OFFCURVE",
"715 686 CURVE SMOOTH",
"715 654 OFFCURVE",
"725 625 OFFCURVE",
"747 603 CURVE SMOOTH",
"769 582 OFFCURVE",
"798 571 OFFCURVE",
"830 571 CURVE SMOOTH",
"862 571 OFFCURVE",
"891 582 OFFCURVE",
"913 603 CURVE SMOOTH",
"935 625 OFFCURVE",
"945 654 OFFCURVE",
"945 686 CURVE SMOOTH",
"945 719 OFFCURVE",
"935 748 OFFCURVE",
"913 769 CURVE SMOOTH"
);
},
{
closed = 1;
nodes = (
"545 791 OFFCURVE",
"516 802 OFFCURVE",
"484 802 CURVE SMOOTH",
"451 802 OFFCURVE",
"423 791 OFFCURVE",
"401 769 CURVE SMOOTH",
"379 748 OFFCURVE",
"368 719 OFFCURVE",
"368 686 CURVE SMOOTH",
"368 654 OFFCURVE",
"379 625 OFFCURVE",
"401 603 CURVE SMOOTH",
"423 582 OFFCURVE",
"451 571 OFFCURVE",
"484 571 CURVE SMOOTH",
"516 571 OFFCURVE",
"545 582 OFFCURVE",
"567 603 CURVE SMOOTH",
"588 625 OFFCURVE",
"599 654 OFFCURVE",
"599 686 CURVE SMOOTH",
"599 719 OFFCURVE",
"588 748 OFFCURVE",
"567 769 CURVE SMOOTH"
);
}
);
width = 1660;
}
);
leftKerningGroup = 10;
rightKerningGroup = 10;
unicode = F11A;
},
{
glyphname = uniF11B;
lastChange = "2014-08-26 21:31:26 -0600";
layers = (
{
layerId = "888C22D7-38C6-439F-A69E-1A09249D6A03";
name = Regular;
paths = (
{
closed = 1;
nodes = (
"354 53 LINE SMOOTH",
"278 53 OFFCURVE",
"213 78 OFFCURVE",
"159 128 CURVE",
"105 175 OFFCURVE",
"80 237 OFFCURVE",
"80 309 CURVE SMOOTH",
"80 1062 LINE SMOOTH",
"80 1135 OFFCURVE",
"105 1196 OFFCURVE",
"159 1246 CURVE SMOOTH",
"213 1297 OFFCURVE",
"278 1322 OFFCURVE",
"354 1322 CURVE SMOOTH",
"1306 1322 LINE SMOOTH",
"1382 1322 OFFCURVE",
"1447 1297 OFFCURVE",
"1501 1246 CURVE SMOOTH",
"1555 1196 OFFCURVE",
"1580 1135 OFFCURVE",
"1580 1062 CURVE SMOOTH",
"1580 309 LINE SMOOTH",
"1580 237 OFFCURVE",
"1555 175 OFFCURVE",
"1501 128 CURVE",
"1447 78 OFFCURVE",
"1382 53 OFFCURVE",
"1306 53 CURVE SMOOTH",
"1292 53 LINE",
"1292 -178 LINE",
"1100 -48 OFFCURVE",
"999 24 OFFCURVE",
"981 35 CURVE SMOOTH",
"963 46 OFFCURVE",
"938 53 OFFCURVE",
"906 53 CURVE SMOOTH"
);
}
);
width = 1660;
}
);
leftKerningGroup = 10;
rightKerningGroup = 10;
unicode = F11B;
},
{
glyphname = uniF11C;
lastChange = "2014-08-26 21:31:26 -0600";
layers = (
{
layerId = "888C22D7-38C6-439F-A69E-1A09249D6A03";
name = Regular;
paths = (
{
closed = 1;
nodes = (
"1061 220 LINE",
"1054 184 OFFCURVE",
"1032 156 OFFCURVE",
"996 138 CURVE",
"960 116 OFFCURVE",
"920 105 OFFCURVE",
"873 105 CURVE SMOOTH",
"549 105 LINE SMOOTH",
"531 105 OFFCURVE",
"516 101 OFFCURVE",
"502 94 CURVE",
"311 -68 LINE",
"311 105 LINE",
"253 105 LINE SMOOTH",
"206 105 OFFCURVE",
"163 119 OFFCURVE",
"130 148 CURVE",
"98 174 OFFCURVE",
"80 210 OFFCURVE",
"80 253 CURVE SMOOTH",
"80 718 LINE SMOOTH",
"80 765 OFFCURVE",
"98 801 OFFCURVE",
"130 833 CURVE SMOOTH",
"163 866 OFFCURVE",
"199 880 OFFCURVE",
"246 880 CURVE SMOOTH",
"253 880 LINE",
"253 516 LINE SMOOTH",
"253 455 OFFCURVE",
"275 404 OFFCURVE",
"322 365 CURVE SMOOTH",
"368 325 OFFCURVE",
"423 303 OFFCURVE",
"484 303 CURVE SMOOTH",
"906 303 LINE SMOOTH",
"927 303 OFFCURVE",
"949 296 OFFCURVE",
"967 285 CURVE"
);
},
{
closed = 1;
nodes = (
"1353 1432 LINE SMOOTH",
"1414 1432 OFFCURVE",
"1468 1410 OFFCURVE",
"1515 1371 CURVE",
"1558 1327 OFFCURVE",
"1580 1277 OFFCURVE",
"1580 1216 CURVE SMOOTH",
"1580 610 LINE SMOOTH",
"1580 549 OFFCURVE",
"1558 498 OFFCURVE",
"1515 458 CURVE SMOOTH",
"1468 415 OFFCURVE",
"1414 394 OFFCURVE",
"1353 394 CURVE SMOOTH",
"1292 394 LINE",
"1292 163 LINE",
"1021 379 LINE",
"1010 390 OFFCURVE",
"992 394 OFFCURVE",
"960 394 CURVE SMOOTH",
"596 394 LINE SMOOTH",
"534 394 OFFCURVE",
"480 415 OFFCURVE",
"437 458 CURVE",
"390 498 OFFCURVE",
"368 549 OFFCURVE",
"368 610 CURVE SMOOTH",
"368 963 LINE",
"368 1216 LINE SMOOTH",
"368 1277 OFFCURVE",
"386 1331 OFFCURVE",
"423 1371 CURVE SMOOTH",
"459 1410 OFFCURVE",
"509 1432 OFFCURVE",
"570 1432 CURVE SMOOTH"
);
}
);
width = 1660;
}
);
leftKerningGroup = 10;
rightKerningGroup = 10;
unicode = F11C;
},
{
glyphname = uniF11D;
lastChange = "2014-08-26 21:31:26 -0600";
layers = (
{
layerId = "888C22D7-38C6-439F-A69E-1A09249D6A03";
name = Regular;
paths = (
{
closed = 1;
nodes = (
"624 -34 OFFCURVE",
"448 38 OFFCURVE",
"300 179 CURVE SMOOTH",
"152 319 OFFCURVE",
"80 489 OFFCURVE",
"80 687 CURVE SMOOTH",
"80 886 OFFCURVE",
"152 1059 OFFCURVE",
"300 1199 CURVE SMOOTH",
"448 1340 OFFCURVE",
"624 1412 OFFCURVE",
"830 1412 CURVE SMOOTH",
"1036 1412 OFFCURVE",
"1212 1340 OFFCURVE",
"1360 1199 CURVE SMOOTH",
"1508 1059 OFFCURVE",
"1580 886 OFFCURVE",
"1580 687 CURVE SMOOTH",
"1580 547 OFFCURVE",
"1540 417 OFFCURVE",
"1461 298 CURVE",
"1457 294 OFFCURVE",
"1457 294 OFFCURVE",
"1454 291 CURVE SMOOTH",
"1450 287 OFFCURVE",
"1450 287 OFFCURVE",
"1450 283 CURVE",
"1439 265 OFFCURVE",
"1436 247 OFFCURVE",
"1436 229 CURVE",
"1515 -88 LINE",
"1212 24 LINE SMOOTH",
"1201 27 OFFCURVE",
"1187 31 OFFCURVE",
"1169 31 CURVE SMOOTH",
"1162 31 OFFCURVE",
"1147 27 OFFCURVE",
"1129 24 CURVE",
"1126 24 OFFCURVE",
"1126 24 OFFCURVE",
"1126 24 CURVE",
"1126 20 OFFCURVE",
"1126 20 OFFCURVE",
"1122 20 CURVE",
"1032 -16 OFFCURVE",
"935 -34 OFFCURVE",
"830 -34 CURVE SMOOTH"
);
},
{
closed = 1;
nodes = (
"1237 767 OFFCURVE",
"1209 777 OFFCURVE",
"1176 777 CURVE SMOOTH",
"1144 777 OFFCURVE",
"1115 767 OFFCURVE",
"1093 745 CURVE SMOOTH",
"1072 723 OFFCURVE",
"1061 694 OFFCURVE",
"1061 662 CURVE SMOOTH",
"1061 630 OFFCURVE",
"1072 601 OFFCURVE",
"1093 579 CURVE SMOOTH",
"1115 557 OFFCURVE",
"1144 547 OFFCURVE",
"1176 547 CURVE SMOOTH",
"1209 547 OFFCURVE",
"1237 557 OFFCURVE",
"1259 579 CURVE SMOOTH",
"1281 601 OFFCURVE",
"1292 630 OFFCURVE",
"1292 662 CURVE SMOOTH",
"1292 694 OFFCURVE",
"1281 723 OFFCURVE",
"1259 745 CURVE SMOOTH"
);
},
{
closed = 1;
nodes = (
"891 767 OFFCURVE",
"862 777 OFFCURVE",
"830 777 CURVE SMOOTH",
"798 777 OFFCURVE",
"769 767 OFFCURVE",
"747 745 CURVE SMOOTH",
"725 723 OFFCURVE",
"715 694 OFFCURVE",
"715 662 CURVE SMOOTH",
"715 630 OFFCURVE",
"725 601 OFFCURVE",
"747 579 CURVE SMOOTH",
"769 557 OFFCURVE",
"798 547 OFFCURVE",
"830 547 CURVE SMOOTH",
"862 547 OFFCURVE",
"891 557 OFFCURVE",
"913 579 CURVE SMOOTH",
"935 601 OFFCURVE",
"945 630 OFFCURVE",
"945 662 CURVE SMOOTH",
"945 694 OFFCURVE",
"935 723 OFFCURVE",
"913 745 CURVE SMOOTH"
);
},
{
closed = 1;
nodes = (
"545 767 OFFCURVE",
"516 777 OFFCURVE",
"484 777 CURVE SMOOTH",
"451 777 OFFCURVE",
"423 767 OFFCURVE",
"401 745 CURVE SMOOTH",
"379 723 OFFCURVE",
"368 694 OFFCURVE",
"368 662 CURVE SMOOTH",
"368 630 OFFCURVE",
"379 601 OFFCURVE",
"401 579 CURVE SMOOTH",
"423 557 OFFCURVE",
"451 547 OFFCURVE",
"484 547 CURVE SMOOTH",
"516 547 OFFCURVE",
"545 557 OFFCURVE",
"567 579 CURVE SMOOTH",
"588 601 OFFCURVE",
"599 630 OFFCURVE",
"599 662 CURVE SMOOTH",
"599 694 OFFCURVE",
"588 723 OFFCURVE",
"567 745 CURVE SMOOTH"
);
}
);
width = 1660;
}
);
leftKerningGroup = 10;
rightKerningGroup = 10;
unicode = F11D;
},
{
glyphname = uniF11E;
lastChange = "2014-08-26 21:31:26 -0600";
layers = (
{
layerId = "888C22D7-38C6-439F-A69E-1A09249D6A03";
name = Regular;
paths = (
{
closed = 1;
nodes = (
"624 -37 OFFCURVE",
"448 35 OFFCURVE",
"300 176 CURVE SMOOTH",
"152 316 OFFCURVE",
"80 486 OFFCURVE",
"80 684 CURVE SMOOTH",
"80 883 OFFCURVE",
"152 1056 OFFCURVE",
"300 1196 CURVE SMOOTH",
"448 1337 OFFCURVE",
"624 1409 OFFCURVE",
"830 1409 CURVE SMOOTH",
"1036 1409 OFFCURVE",
"1212 1337 OFFCURVE",
"1360 1196 CURVE SMOOTH",
"1508 1056 OFFCURVE",
"1580 883 OFFCURVE",
"1580 684 CURVE SMOOTH",
"1580 544 OFFCURVE",
"1540 414 OFFCURVE",
"1461 295 CURVE",
"1457 291 OFFCURVE",
"1457 291 OFFCURVE",
"1454 288 CURVE SMOOTH",
"1450 284 OFFCURVE",
"1450 284 OFFCURVE",
"1450 280 CURVE",
"1439 262 OFFCURVE",
"1436 244 OFFCURVE",
"1436 226 CURVE",
"1515 -91 LINE",
"1212 21 LINE SMOOTH",
"1201 24 OFFCURVE",
"1187 28 OFFCURVE",
"1169 28 CURVE SMOOTH",
"1162 28 OFFCURVE",
"1147 24 OFFCURVE",
"1129 21 CURVE",
"1126 21 OFFCURVE",
"1126 21 OFFCURVE",
"1126 21 CURVE",
"1126 17 OFFCURVE",
"1126 17 OFFCURVE",
"1122 17 CURVE",
"1032 -19 OFFCURVE",
"935 -37 OFFCURVE",
"830 -37 CURVE SMOOTH"
);
}
);
width = 1660;
}
);
leftKerningGroup = 10;
rightKerningGroup = 10;
unicode = F11E;
},
{
glyphname = uniF11F;
lastChange = "2014-08-26 21:31:26 -0600";
layers = (
{
layerId = "888C22D7-38C6-439F-A69E-1A09249D6A03";
name = Regular;
paths = (
{
closed = 1;
nodes = (
"167 249 OFFCURVE",
"167 249 OFFCURVE",
"167 249 CURVE",
"167 256 LINE",
"109 339 OFFCURVE",
"80 433 OFFCURVE",
"80 534 CURVE SMOOTH",
"80 689 OFFCURVE",
"138 815 OFFCURVE",
"257 916 CURVE",
"246 862 OFFCURVE",
"242 822 OFFCURVE",
"242 793 CURVE SMOOTH",
"242 627 OFFCURVE",
"304 487 OFFCURVE",
"426 368 CURVE SMOOTH",
"549 249 OFFCURVE",
"697 188 OFFCURVE",
"870 188 CURVE SMOOTH",
"924 188 OFFCURVE",
"978 195 OFFCURVE",
"1028 209 CURVE",
"920 83 OFFCURVE",
"783 18 OFFCURVE",
"614 18 CURVE SMOOTH",
"549 18 OFFCURVE",
"480 32 OFFCURVE",
"405 61 CURVE",
"401 61 LINE",
"390 65 OFFCURVE",
"383 69 OFFCURVE",
"372 69 CURVE SMOOTH",
"365 69 OFFCURVE",
"354 65 OFFCURVE",
"340 61 CURVE",
"138 -18 LINE",
"181 209 LINE",
"181 220 OFFCURVE",
"177 234 OFFCURVE",
"170 245 CURVE"
);
},
{
closed = 1;
nodes = (
"1126 1482 OFFCURVE",
"1274 1424 OFFCURVE",
"1396 1305 CURVE SMOOTH",
"1519 1186 OFFCURVE",
"1580 1042 OFFCURVE",
"1580 876 CURVE SMOOTH",
"1580 764 OFFCURVE",
"1548 656 OFFCURVE",
"1479 552 CURVE",
"1475 548 LINE SMOOTH",
"1472 544 OFFCURVE",
"1472 544 OFFCURVE",
"1472 541 CURVE",
"1465 526 OFFCURVE",
"1461 512 OFFCURVE",
"1461 498 CURVE",
"1522 231 LINE",
"1274 325 LINE",
"1259 328 OFFCURVE",
"1248 332 OFFCURVE",
"1237 332 CURVE SMOOTH",
"1230 332 OFFCURVE",
"1219 328 OFFCURVE",
"1205 325 CURVE",
"1198 321 LINE",
"1180 314 OFFCURVE",
"1151 307 OFFCURVE",
"1111 296 CURVE SMOOTH",
"1061 281 OFFCURVE",
"1007 274 OFFCURVE",
"953 274 CURVE SMOOTH",
"780 274 OFFCURVE",
"632 332 OFFCURVE",
"513 451 CURVE SMOOTH",
"390 570 OFFCURVE",
"329 710 OFFCURVE",
"329 876 CURVE SMOOTH",
"329 920 OFFCURVE",
"332 963 OFFCURVE",
"340 1002 CURVE SMOOTH",
"368 1139 OFFCURVE",
"441 1255 OFFCURVE",
"556 1345 CURVE SMOOTH",
"671 1435 OFFCURVE",
"805 1482 OFFCURVE",
"953 1482 CURVE SMOOTH"
);
}
);
width = 1660;
}
);
leftKerningGroup = 10;
rightKerningGroup = 10;
unicode = F11F;
},
{
glyphname = uniF120;
lastChange = "2014-08-26 21:31:26 -0600";
layers = (
{
layerId = "888C22D7-38C6-439F-A69E-1A09249D6A03";
name = Regular;
paths = (
{
closed = 1;
nodes = (
"445 1376 OFFCURVE",
"622 1450 OFFCURVE",
"830 1450 CURVE SMOOTH",
"1038 1450 OFFCURVE",
"1215 1376 OFFCURVE",
"1362 1232 CURVE SMOOTH",
"1506 1085 OFFCURVE",
"1580 908 OFFCURVE",
"1580 700 CURVE SMOOTH",
"1580 492 OFFCURVE",
"1506 315 OFFCURVE",
"1362 171 CURVE SMOOTH",
"1215 24 OFFCURVE",
"1038 -50 OFFCURVE",
"830 -50 CURVE SMOOTH",
"622 -50 OFFCURVE",
"445 24 OFFCURVE",
"301 171 CURVE SMOOTH",
"154 315 OFFCURVE",
"80 492 OFFCURVE",
"80 700 CURVE SMOOTH",
"80 908 OFFCURVE",
"154 1085 OFFCURVE",
"301 1232 CURVE SMOOTH"
);
},
{
closed = 1;
nodes = (
"1215 951 LINE",
"1218 954 OFFCURVE",
"1218 958 OFFCURVE",
"1218 961 CURVE SMOOTH",
"1218 968 OFFCURVE",
"1218 971 OFFCURVE",
"1215 975 CURVE",
"1111 1055 LINE",
"1108 1058 OFFCURVE",
"1105 1058 OFFCURVE",
"1098 1058 CURVE SMOOTH",
"1095 1058 OFFCURVE",
"1091 1058 OFFCURVE",
"1088 1055 CURVE",
"716 576 LINE",
"619 670 OFFCURVE",
"569 717 OFFCURVE",
"565 720 CURVE SMOOTH",
"559 727 OFFCURVE",
"552 730 OFFCURVE",
"545 730 CURVE SMOOTH",
"542 730 OFFCURVE",
"539 727 OFFCURVE",
"532 720 CURVE SMOOTH",
"448 636 LINE",
"445 633 LINE SMOOTH",
"442 630 OFFCURVE",
"442 626 OFFCURVE",
"442 620 CURVE SMOOTH",
"442 616 OFFCURVE",
"442 613 OFFCURVE",
"445 610 CURVE",
"452 606 LINE",
"626 439 OFFCURVE",
"713 355 OFFCURVE",
"716 352 CURVE SMOOTH",
"723 345 OFFCURVE",
"730 342 OFFCURVE",
"733 342 CURVE SMOOTH",
"736 342 OFFCURVE",
"743 345 OFFCURVE",
"750 352 CURVE"
);
}
);
width = 1660;
}
);
leftKerningGroup = 10;
rightKerningGroup = 10;
unicode = F120;
},
{
glyphname = uniF121;
lastChange = "2014-08-26 21:31:26 -0600";
layers = (
{
layerId = "888C22D7-38C6-439F-A69E-1A09249D6A03";
name = Regular;
paths = (
{
closed = 1;
nodes = (
"805 64 LINE",
"780 32 OFFCURVE",
"751 14 OFFCURVE",
"715 7 CURVE SMOOTH",
"676 -1 OFFCURVE",
"643 7 OFFCURVE",
"611 32 CURVE SMOOTH",
"593 46 OFFCURVE",
"543 96 OFFCURVE",
"460 186 CURVE SMOOTH",
"378 272 OFFCURVE",
"302 355 OFFCURVE",
"231 437 CURVE SMOOTH",
"119 559 LINE SMOOTH",
"94 588 OFFCURVE",
"80 624 OFFCURVE",
"80 663 CURVE SMOOTH",
"80 703 OFFCURVE",
"94 739 OFFCURVE",
"123 767 CURVE SMOOTH",
"152 796 OFFCURVE",
"184 810 OFFCURVE",
"224 810 CURVE",
"263 807 OFFCURVE",
"295 792 OFFCURVE",
"320 760 CURVE",
"676 376 LINE",
"1322 1320 LINE",
"1347 1352 OFFCURVE",
"1375 1370 OFFCURVE",
"1415 1377 CURVE SMOOTH",
"1451 1385 OFFCURVE",
"1483 1377 OFFCURVE",
"1515 1352 CURVE SMOOTH",
"1548 1327 OFFCURVE",
"1566 1298 OFFCURVE",
"1573 1259 CURVE SMOOTH",
"1580 1220 OFFCURVE",
"1573 1180 OFFCURVE",
"1548 1148 CURVE"
);
}
);
width = 1655.57;
}
);
leftKerningGroup = 10;
rightKerningGroup = 10;
unicode = F121;
},
{
glyphname = uniF122;
lastChange = "2014-08-26 21:31:26 -0600";
layers = (
{
layerId = "888C22D7-38C6-439F-A69E-1A09249D6A03";
name = Regular;
paths = (
{
closed = 1;
nodes = (
"1573 1193 LINE",
"1576 1183 OFFCURVE",
"1580 1175 OFFCURVE",
"1580 1172 CURVE SMOOTH",
"1580 1168 OFFCURVE",
"1576 1161 OFFCURVE",
"1573 1150 CURVE",
"675 -4 LINE",
"661 -18 OFFCURVE",
"650 -25 OFFCURVE",
"643 -25 CURVE SMOOTH",
"632 -25 OFFCURVE",
"617 -18 OFFCURVE",
"606 -7 CURVE SMOOTH",
"98 483 LINE",
"87 494 LINE",
"84 505 OFFCURVE",
"80 512 OFFCURVE",
"80 516 CURVE SMOOTH",
"80 519 OFFCURVE",
"84 523 OFFCURVE",
"87 534 CURVE",
"94 541 LINE SMOOTH",
"163 613 OFFCURVE",
"213 667 OFFCURVE",
"253 707 CURVE SMOOTH",
"267 721 OFFCURVE",
"278 728 OFFCURVE",
"282 728 CURVE SMOOTH",
"293 728 OFFCURVE",
"304 721 OFFCURVE",
"318 707 CURVE SMOOTH",
"606 425 LINE",
"1328 1352 LINE",
"1331 1356 OFFCURVE",
"1338 1359 OFFCURVE",
"1349 1359 CURVE SMOOTH",
"1356 1359 OFFCURVE",
"1364 1356 OFFCURVE",
"1374 1352 CURVE"
);
}
);
width = 1660;
}
);
leftKerningGroup = 10;
rightKerningGroup = 10;
unicode = F122;
},
{
glyphname = uniF123;
lastChange = "2014-08-26 21:31:26 -0600";
layers = (
{
layerId = "888C22D7-38C6-439F-A69E-1A09249D6A03";
name = Regular;
paths = (
{
closed = 1;
nodes = (
"826 543 LINE",
"826 543 LINE",
"1404 1098 LINE SMOOTH",
"1420 1114 OFFCURVE",
"1440 1114 OFFCURVE",
"1457 1098 CURVE SMOOTH",
"1560 998 LINE SMOOTH",
"1576 981 OFFCURVE",
"1576 961 OFFCURVE",
"1560 945 CURVE SMOOTH",
"853 268 LINE SMOOTH",
"846 261 OFFCURVE",
"836 258 OFFCURVE",
"826 258 CURVE SMOOTH",
"816 258 OFFCURVE",
"806 261 OFFCURVE",
"800 268 CURVE SMOOTH",
"93 945 LINE SMOOTH",
"76 961 OFFCURVE",
"76 981 OFFCURVE",
"93 998 CURVE SMOOTH",
"196 1098 LINE SMOOTH",
"212 1114 OFFCURVE",
"232 1114 OFFCURVE",
"249 1098 CURVE SMOOTH"
);
}
);
width = 1652;
}
);
leftKerningGroup = 10;
rightKerningGroup = 10;
unicode = F123;
},
{
glyphname = uniF124;
lastChange = "2014-08-26 21:31:26 -0600";
layers = (
{
layerId = "888C22D7-38C6-439F-A69E-1A09249D6A03";
name = Regular;
paths = (
{
closed = 1;
nodes = (
"920 105 LINE SMOOTH",
"936 88 OFFCURVE",
"936 68 OFFCURVE",
"920 51 CURVE SMOOTH",
"820 -51 LINE SMOOTH",
"803 -68 OFFCURVE",
"783 -68 OFFCURVE",
"767 -51 CURVE SMOOTH",
"90 655 LINE SMOOTH",
"83 662 OFFCURVE",
"80 672 OFFCURVE",
"80 682 CURVE SMOOTH",
"80 692 OFFCURVE",
"83 702 OFFCURVE",
"90 709 CURVE SMOOTH",
"767 1415 LINE SMOOTH",
"783 1432 OFFCURVE",
"800 1429 OFFCURVE",
"820 1412 CURVE",
"920 1313 LINE SMOOTH",
"936 1296 OFFCURVE",
"936 1276 OFFCURVE",
"920 1259 CURVE SMOOTH",
"365 682 LINE"
);
}
);
width = 1012;
}
);
leftKerningGroup = 10;
rightKerningGroup = 10;
unicode = F124;
},
{
glyphname = uniF125;
lastChange = "2014-08-26 21:31:26 -0600";
layers = (
{
layerId = "888C22D7-38C6-439F-A69E-1A09249D6A03";
name = Regular;
paths = (
{
closed = 1;
nodes = (
"647 694 LINE",
"647 694 LINE",
"93 1271 LINE SMOOTH",
"76 1288 OFFCURVE",
"76 1308 OFFCURVE",
"93 1325 CURVE SMOOTH",
"192 1424 LINE",
"212 1441 OFFCURVE",
"229 1444 OFFCURVE",
"245 1427 CURVE SMOOTH",
"922 721 LINE SMOOTH",
"929 714 OFFCURVE",
"932 704 OFFCURVE",
"932 694 CURVE SMOOTH",
"932 684 OFFCURVE",
"929 674 OFFCURVE",
"922 667 CURVE SMOOTH",
"245 -39 LINE SMOOTH",
"229 -56 OFFCURVE",
"209 -56 OFFCURVE",
"192 -39 CURVE SMOOTH",
"93 63 LINE SMOOTH",
"76 80 OFFCURVE",
"76 100 OFFCURVE",
"93 117 CURVE SMOOTH"
);
}
);
width = 1012;
}
);
leftKerningGroup = 10;
rightKerningGroup = 10;
unicode = F125;
},
{
glyphname = uniF126;
lastChange = "2014-08-26 21:31:26 -0600";
layers = (
{
layerId = "888C22D7-38C6-439F-A69E-1A09249D6A03";
name = Regular;
paths = (
{
closed = 1;
nodes = (
"249 288 LINE SMOOTH",
"232 272 OFFCURVE",
"212 272 OFFCURVE",
"196 288 CURVE SMOOTH",
"93 388 LINE SMOOTH",
"76 405 OFFCURVE",
"76 425 OFFCURVE",
"93 441 CURVE SMOOTH",
"800 1118 LINE SMOOTH",
"806 1125 OFFCURVE",
"816 1128 OFFCURVE",
"826 1128 CURVE SMOOTH",
"836 1128 OFFCURVE",
"846 1125 OFFCURVE",
"853 1118 CURVE SMOOTH",
"1559 441 LINE SMOOTH",
"1576 425 OFFCURVE",
"1576 405 OFFCURVE",
"1559 388 CURVE SMOOTH",
"1457 288 LINE SMOOTH",
"1440 272 OFFCURVE",
"1420 272 OFFCURVE",
"1404 288 CURVE SMOOTH",
"826 843 LINE"
);
}
);
width = 1651.75;
}
);
leftKerningGroup = 10;
rightKerningGroup = 10;
unicode = F126;
},
{
glyphname = uniF127;
lastChange = "2014-08-26 21:31:26 -0600";
layers = (
{
layerId = "888C22D7-38C6-439F-A69E-1A09249D6A03";
name = Regular;
paths = (
{
closed = 1;
nodes = (
"348 1021 LINE",
"354 1095 OFFCURVE",
"384 1139 OFFCURVE",
"441 1155 CURVE",
"445 1159 LINE",
"492 1169 OFFCURVE",
"515 1192 OFFCURVE",
"515 1226 CURVE SMOOTH",
"515 1296 LINE SMOOTH",
"515 1340 OFFCURVE",
"528 1376 OFFCURVE",
"559 1406 CURVE SMOOTH",
"589 1437 OFFCURVE",
"625 1450 OFFCURVE",
"669 1450 CURVE SMOOTH",
"713 1450 OFFCURVE",
"749 1437 OFFCURVE",
"779 1406 CURVE SMOOTH",
"810 1376 OFFCURVE",
"823 1340 OFFCURVE",
"823 1296 CURVE SMOOTH",
"823 1226 LINE SMOOTH",
"823 1189 OFFCURVE",
"846 1165 OFFCURVE",
"893 1155 CURVE",
"897 1155 LINE",
"954 1139 OFFCURVE",
"984 1095 OFFCURVE",
"990 1021 CURVE"
);
},
{
closed = 1;
nodes = (
"716 1326 OFFCURVE",
"699 1343 OFFCURVE",
"669 1343 CURVE SMOOTH",
"639 1343 OFFCURVE",
"622 1326 OFFCURVE",
"622 1296 CURVE SMOOTH",
"622 1266 OFFCURVE",
"639 1249 OFFCURVE",
"669 1249 CURVE SMOOTH",
"699 1249 OFFCURVE",
"716 1266 OFFCURVE",
"716 1296 CURVE SMOOTH"
);
},
{
closed = 1;
nodes = (
"1168 1346 LINE SMOOTH",
"1191 1346 OFFCURVE",
"1215 1336 OFFCURVE",
"1232 1319 CURVE",
"1248 1299 OFFCURVE",
"1258 1276 OFFCURVE",
"1258 1249 CURVE SMOOTH",
"1258 44 LINE SMOOTH",
"1258 17 OFFCURVE",
"1248 -6 OFFCURVE",
"1232 -23 CURVE SMOOTH",
"1215 -40 OFFCURVE",
"1191 -50 OFFCURVE",
"1168 -50 CURVE SMOOTH",
"669 -50 LINE",
"170 -50 LINE SMOOTH",
"147 -50 OFFCURVE",
"123 -40 OFFCURVE",
"107 -23 CURVE SMOOTH",
"90 -6 OFFCURVE",
"80 17 OFFCURVE",
"80 44 CURVE SMOOTH",
"80 1249 LINE SMOOTH",
"80 1276 OFFCURVE",
"90 1299 OFFCURVE",
"107 1319 CURVE",
"123 1336 OFFCURVE",
"147 1346 OFFCURVE",
"170 1346 CURVE SMOOTH",
"418 1346 LINE",
"418 1296 LINE SMOOTH",
"418 1256 OFFCURVE",
"398 1236 OFFCURVE",
"354 1236 CURVE SMOOTH",
"230 1236 LINE SMOOTH",
"200 1236 OFFCURVE",
"187 1222 OFFCURVE",
"187 1196 CURVE SMOOTH",
"187 97 LINE SMOOTH",
"187 87 OFFCURVE",
"190 81 OFFCURVE",
"200 71 CURVE SMOOTH",
"210 60 OFFCURVE",
"217 57 OFFCURVE",
"227 57 CURVE SMOOTH",
"1111 57 LINE SMOOTH",
"1121 57 OFFCURVE",
"1128 60 OFFCURVE",
"1138 71 CURVE SMOOTH",
"1148 81 OFFCURVE",
"1151 87 OFFCURVE",
"1151 97 CURVE SMOOTH",
"1151 1196 LINE SMOOTH",
"1151 1222 OFFCURVE",
"1138 1236 OFFCURVE",
"1108 1236 CURVE SMOOTH",
"984 1236 LINE SMOOTH",
"940 1236 OFFCURVE",
"920 1256 OFFCURVE",
"920 1296 CURVE SMOOTH",
"920 1346 LINE"
);
},
{
closed = 1;
nodes = (
"294 861 LINE",
"294 914 LINE",
"669 914 LINE",
"669 861 LINE"
);
},
{
closed = 1;
nodes = (
"294 539 LINE",
"294 593 LINE",
"830 593 LINE",
"830 539 LINE"
);
},
{
closed = 1;
nodes = (
"294 218 LINE",
"294 271 LINE",
"726 271 LINE",
"726 218 LINE"
);
},
{
closed = 1;
nodes = (
"294 379 LINE",
"294 432 LINE",
"883 432 LINE",
"883 379 LINE"
);
},
{
closed = 1;
nodes = (
"294 700 LINE",
"294 754 LINE",
"990 754 LINE",
"990 700 LINE"
);
}
);
width = 1338;
}
);
leftKerningGroup = 10;
rightKerningGroup = 10;
unicode = F127;
},
{
glyphname = uniF128;
lastChange = "2014-08-26 21:31:26 -0600";
layers = (
{
layerId = "888C22D7-38C6-439F-A69E-1A09249D6A03";
name = Regular;
paths = (
{
closed = 1;
nodes = (
"445 1376 OFFCURVE",
"622 1450 OFFCURVE",
"830 1450 CURVE SMOOTH",
"1038 1450 OFFCURVE",
"1215 1376 OFFCURVE",
"1362 1232 CURVE SMOOTH",
"1506 1085 OFFCURVE",
"1580 908 OFFCURVE",
"1580 700 CURVE SMOOTH",
"1580 492 OFFCURVE",
"1506 315 OFFCURVE",
"1362 171 CURVE SMOOTH",
"1215 24 OFFCURVE",
"1038 -50 OFFCURVE",
"830 -50 CURVE SMOOTH",
"622 -50 OFFCURVE",
"445 24 OFFCURVE",
"301 171 CURVE SMOOTH",
"154 315 OFFCURVE",
"80 492 OFFCURVE",
"80 700 CURVE SMOOTH",
"80 908 OFFCURVE",
"154 1085 OFFCURVE",
"301 1232 CURVE SMOOTH"
);
},
{
closed = 1;
nodes = (
"940 700 LINE",
"1195 951 LINE SMOOTH",
"1208 965 OFFCURVE",
"1208 978 OFFCURVE",
"1195 991 CURVE SMOOTH",
"1121 1062 LINE SMOOTH",
"1115 1068 OFFCURVE",
"1108 1072 OFFCURVE",
"1101 1072 CURVE SMOOTH",
"1098 1072 OFFCURVE",
"1091 1068 OFFCURVE",
"1084 1062 CURVE SMOOTH",
"830 814 LINE",
"576 1062 LINE SMOOTH",
"569 1068 OFFCURVE",
"562 1072 OFFCURVE",
"559 1072 CURVE SMOOTH",
"552 1072 OFFCURVE",
"545 1068 OFFCURVE",
"539 1062 CURVE SMOOTH",
"468 991 LINE SMOOTH",
"455 978 OFFCURVE",
"455 965 OFFCURVE",
"468 951 CURVE SMOOTH",
"723 700 LINE",
"468 446 LINE SMOOTH",
"465 442 OFFCURVE",
"462 439 OFFCURVE",
"462 429 CURVE SMOOTH",
"462 419 OFFCURVE",
"465 412 OFFCURVE",
"468 409 CURVE SMOOTH",
"539 335 LINE SMOOTH",
"542 332 OFFCURVE",
"549 328 OFFCURVE",
"559 328 CURVE SMOOTH",
"569 328 OFFCURVE",
"576 332 OFFCURVE",
"579 335 CURVE SMOOTH",
"830 590 LINE",
"1084 338 LINE SMOOTH",
"1091 332 OFFCURVE",
"1098 328 OFFCURVE",
"1101 328 CURVE SMOOTH",
"1108 328 OFFCURVE",
"1115 332 OFFCURVE",
"1121 338 CURVE SMOOTH",
"1192 409 LINE",
"1198 412 OFFCURVE",
"1202 419 OFFCURVE",
"1202 429 CURVE SMOOTH",
"1202 435 OFFCURVE",
"1198 442 OFFCURVE",
"1192 449 CURVE SMOOTH"
);
}
);
width = 1660;
}
);
leftKerningGroup = 10;
rightKerningGroup = 10;
unicode = F128;
},
{
glyphname = uniF129;
lastChange = "2014-08-26 21:31:26 -0600";
layers = (
{
layerId = "888C22D7-38C6-439F-A69E-1A09249D6A03";
name = Regular;
paths = (
{
closed = 1;
nodes = (
"1541 188 LINE SMOOTH",
"1568 161 OFFCURVE",
"1580 126 OFFCURVE",
"1580 87 CURVE SMOOTH",
"1580 48 OFFCURVE",
"1568 16 OFFCURVE",
"1541 -11 CURVE SMOOTH",
"1514 -38 OFFCURVE",
"1482 -50 OFFCURVE",
"1443 -50 CURVE SMOOTH",
"1404 -50 OFFCURVE",
"1369 -38 OFFCURVE",
"1342 -11 CURVE SMOOTH",
"830 501 LINE",
"318 -11 LINE SMOOTH",
"291 -38 OFFCURVE",
"256 -50 OFFCURVE",
"221 -50 CURVE SMOOTH",
"185 -50 OFFCURVE",
"150 -38 OFFCURVE",
"123 -11 CURVE SMOOTH",
"96 16 OFFCURVE",
"80 48 OFFCURVE",
"80 87 CURVE SMOOTH",
"80 126 OFFCURVE",
"96 161 OFFCURVE",
"123 188 CURVE SMOOTH",
"631 700 LINE",
"123 1212 LINE SMOOTH",
"96 1239 OFFCURVE",
"80 1274 OFFCURVE",
"80 1313 CURVE SMOOTH",
"80 1352 OFFCURVE",
"96 1384 OFFCURVE",
"123 1411 CURVE SMOOTH",
"150 1438 OFFCURVE",
"185 1450 OFFCURVE",
"221 1450 CURVE SMOOTH",
"256 1450 OFFCURVE",
"291 1438 OFFCURVE",
"318 1411 CURVE SMOOTH",
"830 899 LINE",
"1342 1411 LINE SMOOTH",
"1369 1438 OFFCURVE",
"1404 1450 OFFCURVE",
"1443 1450 CURVE SMOOTH",
"1482 1450 OFFCURVE",
"1514 1438 OFFCURVE",
"1541 1411 CURVE SMOOTH",
"1568 1384 OFFCURVE",
"1580 1352 OFFCURVE",
"1580 1313 CURVE SMOOTH",
"1580 1274 OFFCURVE",
"1568 1239 OFFCURVE",
"1541 1212 CURVE SMOOTH",
"1029 700 LINE"
);
}
);
width = 1660;
}
);
leftKerningGroup = 10;
rightKerningGroup = 10;
unicode = F129;
},
{
glyphname = uniF12A;
lastChange = "2014-08-26 21:31:26 -0600";
layers = (
{
layerId = "888C22D7-38C6-439F-A69E-1A09249D6A03";
name = Regular;
paths = (
{
closed = 1;
nodes = (
"1546 196 LINE SMOOTH",
"1558 185 OFFCURVE",
"1562 173 OFFCURVE",
"1562 158 CURVE SMOOTH",
"1562 142 OFFCURVE",
"1558 131 OFFCURVE",
"1546 119 CURVE SMOOTH",
"1400 -23 LINE SMOOTH",
"1389 -35 OFFCURVE",
"1377 -38 OFFCURVE",
"1366 -38 CURVE SMOOTH",
"1350 -38 OFFCURVE",
"1339 -35 OFFCURVE",
"1327 -23 CURVE SMOOTH",
"823 481 LINE",
"319 -23 LINE SMOOTH",
"308 -35 OFFCURVE",
"296 -38 OFFCURVE",
"285 -38 CURVE SMOOTH",
"269 -38 OFFCURVE",
"258 -35 OFFCURVE",
"246 -23 CURVE SMOOTH",
"100 119 LINE SMOOTH",
"89 131 OFFCURVE",
"85 142 OFFCURVE",
"85 158 CURVE SMOOTH",
"85 173 OFFCURVE",
"89 185 OFFCURVE",
"100 196 CURVE SMOOTH",
"608 700 LINE",
"100 1200 LINE SMOOTH",
"73 1227 OFFCURVE",
"73 1250 OFFCURVE",
"100 1277 CURVE SMOOTH",
"243 1423 LINE",
"258 1435 OFFCURVE",
"269 1438 OFFCURVE",
"281 1438 CURVE SMOOTH",
"296 1438 OFFCURVE",
"308 1435 OFFCURVE",
"319 1423 CURVE SMOOTH",
"823 923 LINE",
"1327 1423 LINE",
"1343 1435 OFFCURVE",
"1354 1438 OFFCURVE",
"1366 1438 CURVE SMOOTH",
"1381 1438 OFFCURVE",
"1393 1435 OFFCURVE",
"1404 1423 CURVE SMOOTH",
"1546 1277 LINE SMOOTH",
"1573 1250 OFFCURVE",
"1573 1227 OFFCURVE",
"1546 1204 CURVE",
"1039 704 LINE"
);
}
);
width = 1646.25;
}
);
leftKerningGroup = 10;
rightKerningGroup = 10;
unicode = F12A;
},
{
glyphname = uniF12B;
lastChange = "2014-08-26 21:31:26 -0600";
layers = (
{
layerId = "888C22D7-38C6-439F-A69E-1A09249D6A03";
name = Regular;
paths = (
{
closed = 1;
nodes = (
"1305 777 LINE",
"1382 777 OFFCURVE",
"1446 750 OFFCURVE",
"1500 697 CURVE SMOOTH",
"1553 640 OFFCURVE",
"1580 573 OFFCURVE",
"1580 496 CURVE SMOOTH",
"1580 419 OFFCURVE",
"1553 355 OFFCURVE",
"1500 302 CURVE SMOOTH",
"1446 245 OFFCURVE",
"1382 218 OFFCURVE",
"1305 218 CURVE SMOOTH",
"381 218 LINE SMOOTH",
"298 218 OFFCURVE",
"227 248 OFFCURVE",
"170 308 CURVE SMOOTH",
"110 369 OFFCURVE",
"80 439 OFFCURVE",
"80 523 CURVE SMOOTH",
"80 590 OFFCURVE",
"100 650 OFFCURVE",
"137 703 CURVE SMOOTH",
"174 754 OFFCURVE",
"224 790 OFFCURVE",
"284 810 CURVE",
"294 861 OFFCURVE",
"318 901 OFFCURVE",
"355 934 CURVE",
"391 965 OFFCURVE",
"432 981 OFFCURVE",
"482 981 CURVE SMOOTH",
"509 981 OFFCURVE",
"539 975 OFFCURVE",
"569 958 CURVE",
"599 1025 OFFCURVE",
"649 1078 OFFCURVE",
"713 1122 CURVE",
"776 1162 OFFCURVE",
"843 1182 OFFCURVE",
"920 1182 CURVE SMOOTH",
"1028 1182 OFFCURVE",
"1118 1145 OFFCURVE",
"1195 1068 CURVE SMOOTH",
"1269 991 OFFCURVE",
"1305 898 OFFCURVE",
"1305 787 CURVE SMOOTH"
);
}
);
width = 1660;
}
);
leftKerningGroup = 10;
rightKerningGroup = 10;
unicode = F12B;
},
{
glyphname = uniF12C;
lastChange = "2014-08-26 21:31:26 -0600";
layers = (
{
layerId = "888C22D7-38C6-439F-A69E-1A09249D6A03";
name = Regular;
paths = (
{
closed = 1;
nodes = (
"1545 1275 LINE",
"1580 1244 OFFCURVE",
"1580 1214 OFFCURVE",
"1545 1179 CURVE SMOOTH",
"1421 1059 LINE",
"1209 1271 LINE",
"1329 1395 LINE SMOOTH",
"1364 1430 OFFCURVE",
"1394 1430 OFFCURVE",
"1425 1395 CURVE"
);
},
{
closed = 1;
nodes = (
"1170 1237 LINE",
"1383 1024 LINE",
"699 355 LINE",
"451 301 LINE",
"505 549 LINE"
);
},
{
closed = 1;
nodes = (
"1317 672 LINE",
"1441 796 LINE",
"1441 19 LINE SMOOTH",
"1441 -8 OFFCURVE",
"1433 -27 OFFCURVE",
"1418 -43 CURVE SMOOTH",
"1398 -62 OFFCURVE",
"1379 -70 OFFCURVE",
"1352 -70 CURVE SMOOTH",
"169 -70 LINE SMOOTH",
"142 -70 OFFCURVE",
"123 -62 OFFCURVE",
"107 -43 CURVE",
"88 -27 OFFCURVE",
"80 -8 OFFCURVE",
"80 19 CURVE SMOOTH",
"80 1202 LINE SMOOTH",
"80 1229 OFFCURVE",
"88 1248 OFFCURVE",
"107 1268 CURVE SMOOTH",
"123 1283 OFFCURVE",
"142 1291 OFFCURVE",
"169 1291 CURVE SMOOTH",
"946 1291 LINE",
"822 1167 LINE",
"246 1167 LINE SMOOTH",
"219 1167 OFFCURVE",
"204 1156 OFFCURVE",
"204 1128 CURVE SMOOTH",
"204 92 LINE SMOOTH",
"204 65 OFFCURVE",
"215 54 OFFCURVE",
"242 54 CURVE SMOOTH",
"1282 54 LINE SMOOTH",
"1306 54 OFFCURVE",
"1317 65 OFFCURVE",
"1317 92 CURVE SMOOTH"
);
}
);
width = 1651.25;
}
);
leftKerningGroup = 10;
rightKerningGroup = 10;
unicode = F12C;
},
{
glyphname = uniF12D;
lastChange = "2014-08-26 21:31:26 -0600";
layers = (
{
layerId = "888C22D7-38C6-439F-A69E-1A09249D6A03";
name = Regular;
paths = (
{
closed = 1;
nodes = (
"666 985 OFFCURVE",
"740 1015 OFFCURVE",
"830 1015 CURVE SMOOTH",
"920 1015 OFFCURVE",
"997 985 OFFCURVE",
"1061 921 CURVE SMOOTH",
"1125 857 OFFCURVE",
"1155 780 OFFCURVE",
"1155 690 CURVE SMOOTH",
"1155 600 OFFCURVE",
"1125 526 OFFCURVE",
"1061 462 CURVE SMOOTH",
"997 399 OFFCURVE",
"920 365 OFFCURVE",
"830 365 CURVE SMOOTH",
"740 365 OFFCURVE",
"666 399 OFFCURVE",
"602 462 CURVE SMOOTH",
"539 526 OFFCURVE",
"505 600 OFFCURVE",
"505 690 CURVE SMOOTH",
"505 780 OFFCURVE",
"539 857 OFFCURVE",
"602 921 CURVE SMOOTH"
);
},
{
closed = 1;
nodes = (
"756 556 OFFCURVE",
"790 543 OFFCURVE",
"830 543 CURVE SMOOTH",
"870 543 OFFCURVE",
"904 556 OFFCURVE",
"934 586 CURVE SMOOTH",
"964 616 OFFCURVE",
"977 650 OFFCURVE",
"977 690 CURVE SMOOTH",
"977 730 OFFCURVE",
"964 764 OFFCURVE",
"934 794 CURVE SMOOTH",
"904 824 OFFCURVE",
"870 837 OFFCURVE",
"830 837 CURVE SMOOTH",
"790 837 OFFCURVE",
"756 824 OFFCURVE",
"726 794 CURVE SMOOTH",
"696 764 OFFCURVE",
"683 730 OFFCURVE",
"683 690 CURVE SMOOTH",
"683 650 OFFCURVE",
"696 616 OFFCURVE",
"726 586 CURVE SMOOTH"
);
},
{
closed = 1;
nodes = (
"445 1366 OFFCURVE",
"622 1440 OFFCURVE",
"830 1440 CURVE SMOOTH",
"1038 1440 OFFCURVE",
"1215 1366 OFFCURVE",
"1362 1222 CURVE SMOOTH",
"1506 1075 OFFCURVE",
"1580 898 OFFCURVE",
"1580 690 CURVE SMOOTH",
"1580 482 OFFCURVE",
"1506 305 OFFCURVE",
"1362 161 CURVE SMOOTH",
"1215 14 OFFCURVE",
"1038 -60 OFFCURVE",
"830 -60 CURVE SMOOTH",
"622 -60 OFFCURVE",
"445 14 OFFCURVE",
"301 161 CURVE SMOOTH",
"154 305 OFFCURVE",
"80 482 OFFCURVE",
"80 690 CURVE SMOOTH",
"80 898 OFFCURVE",
"154 1075 OFFCURVE",
"301 1222 CURVE SMOOTH"
);
},
{
closed = 1;
nodes = (
"619 318 OFFCURVE",
"716 278 OFFCURVE",
"830 278 CURVE SMOOTH",
"944 278 OFFCURVE",
"1041 318 OFFCURVE",
"1121 399 CURVE SMOOTH",
"1202 479 OFFCURVE",
"1242 576 OFFCURVE",
"1242 690 CURVE SMOOTH",
"1242 804 OFFCURVE",
"1202 901 OFFCURVE",
"1121 981 CURVE SMOOTH",
"1041 1062 OFFCURVE",
"944 1102 OFFCURVE",
"830 1102 CURVE SMOOTH",
"716 1102 OFFCURVE",
"619 1062 OFFCURVE",
"539 981 CURVE SMOOTH",
"458 901 OFFCURVE",
"418 804 OFFCURVE",
"418 690 CURVE SMOOTH",
"418 576 OFFCURVE",
"458 479 OFFCURVE",
"539 399 CURVE SMOOTH"
);
}
);
width = 1660;
}
);
leftKerningGroup = 10;
rightKerningGroup = 10;
unicode = F12D;
},
{
glyphname = uniF12E;
lastChange = "2014-08-26 21:31:26 -0600";
layers = (
{
layerId = "888C22D7-38C6-439F-A69E-1A09249D6A03";
name = Regular;
paths = (
{
closed = 1;
nodes = (
"1198 1030 LINE",
"1202 1014 OFFCURVE",
"1206 1003 OFFCURVE",
"1206 991 CURVE SMOOTH",
"1206 34 LINE SMOOTH",
"1206 6 OFFCURVE",
"1198 -13 OFFCURVE",
"1182 -33 CURVE",
"1163 -52 OFFCURVE",
"1143 -60 OFFCURVE",
"1120 -60 CURVE SMOOTH",
"170 -60 LINE SMOOTH",
"147 -60 OFFCURVE",
"127 -52 OFFCURVE",
"108 -33 CURVE SMOOTH",
"88 -13 OFFCURVE",
"80 6 OFFCURVE",
"80 34 CURVE SMOOTH",
"80 1346 LINE SMOOTH",
"80 1374 OFFCURVE",
"88 1393 OFFCURVE",
"108 1413 CURVE SMOOTH",
"127 1432 OFFCURVE",
"147 1440 OFFCURVE",
"170 1440 CURVE SMOOTH",
"795 1440 LINE SMOOTH",
"811 1440 OFFCURVE",
"823 1436 OFFCURVE",
"830 1432 CURVE",
"842 1428 OFFCURVE",
"850 1420 OFFCURVE",
"858 1413 CURVE",
"1186 1053 LINE"
);
},
{
closed = 1;
nodes = (
"268 952 LINE SMOOTH",
"268 944 OFFCURVE",
"272 940 OFFCURVE",
"280 940 CURVE SMOOTH",
"557 940 LINE SMOOTH",
"565 940 OFFCURVE",
"569 944 OFFCURVE",
"569 952 CURVE SMOOTH",
"569 991 LINE SMOOTH",
"569 999 OFFCURVE",
"565 1003 OFFCURVE",
"557 1003 CURVE SMOOTH",
"280 1003 LINE SMOOTH",
"272 1003 OFFCURVE",
"268 999 OFFCURVE",
"268 991 CURVE SMOOTH"
);
},
{
closed = 1;
nodes = (
"268 452 LINE SMOOTH",
"268 444 OFFCURVE",
"272 440 OFFCURVE",
"280 440 CURVE SMOOTH",
"760 440 LINE SMOOTH",
"764 440 OFFCURVE",
"768 444 OFFCURVE",
"768 452 CURVE SMOOTH",
"768 491 LINE SMOOTH",
"768 499 OFFCURVE",
"764 503 OFFCURVE",
"760 503 CURVE SMOOTH",
"280 503 LINE SMOOTH",
"272 503 OFFCURVE",
"268 499 OFFCURVE",
"268 491 CURVE SMOOTH"
);
},
{
closed = 1;
nodes = (
"893 241 LINE SMOOTH",
"893 249 OFFCURVE",
"889 253 OFFCURVE",
"885 253 CURVE SMOOTH",
"280 253 LINE SMOOTH",
"272 253 OFFCURVE",
"268 249 OFFCURVE",
"268 241 CURVE SMOOTH",
"268 202 LINE SMOOTH",
"268 194 OFFCURVE",
"272 190 OFFCURVE",
"280 190 CURVE SMOOTH",
"885 190 LINE SMOOTH",
"889 190 OFFCURVE",
"893 194 OFFCURVE",
"893 202 CURVE SMOOTH"
);
},
{
closed = 1;
nodes = (
"1018 741 LINE SMOOTH",
"1018 749 OFFCURVE",
"1014 753 OFFCURVE",
"1010 753 CURVE SMOOTH",
"280 753 LINE SMOOTH",
"272 753 OFFCURVE",
"268 749 OFFCURVE",
"268 741 CURVE SMOOTH",
"268 702 LINE SMOOTH",
"268 694 OFFCURVE",
"272 690 OFFCURVE",
"280 690 CURVE SMOOTH",
"1010 690 LINE SMOOTH",
"1014 690 OFFCURVE",
"1018 694 OFFCURVE",
"1018 702 CURVE SMOOTH"
);
},
{
closed = 1;
nodes = (
"1069 995 LINE",
"791 1299 LINE",
"791 1042 LINE SMOOTH",
"791 1010 OFFCURVE",
"807 995 OFFCURVE",
"834 995 CURVE SMOOTH"
);
}
);
width = 1286;
}
);
leftKerningGroup = 10;
rightKerningGroup = 10;
unicode = F12E;
},
{
glyphname = uniF12F;
lastChange = "2014-08-26 21:31:26 -0600";
layers = (
{
layerId = "888C22D7-38C6-439F-A69E-1A09249D6A03";
name = Regular;
paths = (
{
closed = 1;
nodes = (
"1206 1022 OFFCURVE",
"1206 1010 OFFCURVE",
"1206 995 CURVE SMOOTH",
"1206 42 LINE SMOOTH",
"1206 14 OFFCURVE",
"1198 -9 OFFCURVE",
"1182 -29 CURVE SMOOTH",
"1166 -48 OFFCURVE",
"1147 -60 OFFCURVE",
"1123 -60 CURVE SMOOTH",
"174 -60 LINE SMOOTH",
"151 -60 OFFCURVE",
"131 -48 OFFCURVE",
"112 -29 CURVE SMOOTH",
"92 -9 OFFCURVE",
"81 14 OFFCURVE",
"81 42 CURVE SMOOTH",
"81 1350 LINE SMOOTH",
"81 1374 OFFCURVE",
"92 1393 OFFCURVE",
"112 1413 CURVE SMOOTH",
"131 1432 OFFCURVE",
"151 1440 OFFCURVE",
"174 1440 CURVE SMOOTH",
"799 1440 LINE SMOOTH",
"815 1440 OFFCURVE",
"827 1436 OFFCURVE",
"834 1432 CURVE SMOOTH",
"850 1424 OFFCURVE",
"858 1420 OFFCURVE",
"862 1417 CURVE",
"1186 1057 LINE",
"1194 1049 OFFCURVE",
"1198 1042 OFFCURVE",
"1202 1030 CURVE"
);
},
{
closed = 1;
nodes = (
"834 1256 LINE",
"834 1010 LINE",
"1061 1010 LINE"
);
},
{
closed = 1;
nodes = (
"206 65 LINE",
"1081 65 LINE",
"1081 885 LINE",
"819 885 LINE SMOOTH",
"791 885 OFFCURVE",
"764 897 OFFCURVE",
"745 920 CURVE",
"721 940 OFFCURVE",
"709 967 OFFCURVE",
"709 995 CURVE SMOOTH",
"709 1315 LINE",
"206 1315 LINE"
);
}
);
width = 1286;
}
);
leftKerningGroup = 10;
rightKerningGroup = 10;
unicode = F12F;
},
{
glyphname = uniF131;
lastChange = "2014-08-26 21:31:26 -0600";
layers = (
{
layerId = "888C22D7-38C6-439F-A69E-1A09249D6A03";
name = Regular;
paths = (
{
closed = 1;
nodes = (
"160 390 LINE SMOOTH",
"108 390 OFFCURVE",
"80 413 OFFCURVE",
"80 465 CURVE SMOOTH",
"80 479 OFFCURVE",
"85 488 OFFCURVE",
"94 503 CURVE",
"741 1398 LINE",
"769 1426 OFFCURVE",
"797 1440 OFFCURVE",
"830 1440 CURVE SMOOTH",
"863 1440 OFFCURVE",
"891 1426 OFFCURVE",
"919 1398 CURVE",
"1566 507 LINE",
"1575 493 OFFCURVE",
"1580 479 OFFCURVE",
"1580 465 CURVE SMOOTH",
"1580 413 OFFCURVE",
"1552 390 OFFCURVE",
"1500 390 CURVE SMOOTH"
);
},
{
closed = 1;
nodes = (
"1524 240 LINE SMOOTH",
"1561 240 OFFCURVE",
"1580 221 OFFCURVE",
"1580 184 CURVE SMOOTH",
"1580 -4 LINE SMOOTH",
"1580 -41 OFFCURVE",
"1561 -60 OFFCURVE",
"1524 -60 CURVE SMOOTH",
"136 -60 LINE SMOOTH",
"99 -60 OFFCURVE",
"80 -41 OFFCURVE",
"80 -4 CURVE SMOOTH",
"80 184 LINE SMOOTH",
"80 221 OFFCURVE",
"99 240 OFFCURVE",
"136 240 CURVE SMOOTH"
);
}
);
width = 1660;
}
);
leftKerningGroup = 10;
rightKerningGroup = 10;
unicode = F131;
},
{
glyphname = uniF132;
lastChange = "2014-08-26 21:31:26 -0600";
layers = (
{
layerId = "888C22D7-38C6-439F-A69E-1A09249D6A03";
name = Regular;
paths = (
{
closed = 1;
nodes = (
"123 1097 OFFCURVE",
"109 1111 OFFCURVE",
"102 1125 CURVE",
"98 1140 OFFCURVE",
"98 1151 OFFCURVE",
"105 1154 CURVE",
"109 1158 OFFCURVE",
"123 1162 OFFCURVE",
"145 1162 CURVE SMOOTH",
"834 1162 LINE",
"1522 1162 LINE SMOOTH",
"1544 1162 OFFCURVE",
"1558 1158 OFFCURVE",
"1566 1154 CURVE",
"1569 1151 OFFCURVE",
"1569 1140 OFFCURVE",
"1566 1125 CURVE",
"1558 1111 OFFCURVE",
"1544 1097 OFFCURVE",
"1519 1086 CURVE",
"1122 869 OFFCURVE",
"920 758 OFFCURVE",
"909 754 CURVE",
"891 743 OFFCURVE",
"866 740 OFFCURVE",
"834 740 CURVE SMOOTH",
"801 740 OFFCURVE",
"776 743 OFFCURVE",
"758 754 CURVE",
"747 758 OFFCURVE",
"545 869 OFFCURVE",
"149 1086 CURVE"
);
},
{
closed = 1;
nodes = (
"1569 1075 OFFCURVE",
"1576 1075 OFFCURVE",
"1580 1075 CURVE",
"1580 1071 OFFCURVE",
"1580 1064 OFFCURVE",
"1580 1053 CURVE SMOOTH",
"1580 314 LINE SMOOTH",
"1580 296 OFFCURVE",
"1573 282 OFFCURVE",
"1555 264 CURVE SMOOTH",
"1537 246 OFFCURVE",
"1519 238 OFFCURVE",
"1501 238 CURVE SMOOTH",
"834 238 LINE",
"167 238 LINE SMOOTH",
"149 238 OFFCURVE",
"127 246 OFFCURVE",
"109 264 CURVE SMOOTH",
"91 282 OFFCURVE",
"80 296 OFFCURVE",
"80 314 CURVE SMOOTH",
"80 1053 LINE SMOOTH",
"80 1075 OFFCURVE",
"91 1082 OFFCURVE",
"112 1071 CURVE SMOOTH",
"120 1068 OFFCURVE",
"149 1046 OFFCURVE",
"203 1014 CURVE",
"257 978 OFFCURVE",
"322 934 OFFCURVE",
"401 880 CURVE SMOOTH",
"477 826 OFFCURVE",
"542 787 OFFCURVE",
"588 754 CURVE",
"289 419 LINE",
"282 412 OFFCURVE",
"282 404 OFFCURVE",
"286 401 CURVE SMOOTH",
"289 397 OFFCURVE",
"293 397 OFFCURVE",
"296 401 CURVE",
"300 401 OFFCURVE",
"304 401 OFFCURVE",
"307 404 CURVE",
"661 704 LINE",
"711 671 OFFCURVE",
"743 650 OFFCURVE",
"758 642 CURVE",
"776 631 OFFCURVE",
"801 628 OFFCURVE",
"834 628 CURVE SMOOTH",
"866 628 OFFCURVE",
"891 631 OFFCURVE",
"909 642 CURVE",
"924 650 OFFCURVE",
"956 671 OFFCURVE",
"1007 704 CURVE",
"1360 404 LINE",
"1364 401 OFFCURVE",
"1367 401 OFFCURVE",
"1371 401 CURVE",
"1374 397 OFFCURVE",
"1378 397 OFFCURVE",
"1382 401 CURVE SMOOTH",
"1385 404 OFFCURVE",
"1382 408 OFFCURVE",
"1374 419 CURVE",
"1079 754 LINE",
"1126 787 OFFCURVE",
"1191 826 OFFCURVE",
"1266 880 CURVE SMOOTH",
"1342 934 OFFCURVE",
"1407 978 OFFCURVE",
"1461 1014 CURVE",
"1515 1046 OFFCURVE",
"1544 1068 OFFCURVE",
"1551 1071 CURVE"
);
}
);
width = 1660;
}
);
leftKerningGroup = 10;
rightKerningGroup = 10;
unicode = F132;
},
{
glyphname = uniF133;
lastChange = "2014-08-26 21:31:26 -0600";
layers = (
{
layerId = "888C22D7-38C6-439F-A69E-1A09249D6A03";
name = Regular;
paths = (
{
closed = 1;
nodes = (
"1074 1129 OFFCURVE",
"1326 985 OFFCURVE",
"1580 697 CURVE",
"1520 636 OFFCURVE",
"1483 600 OFFCURVE",
"1466 583 CURVE SMOOTH",
"1449 566 OFFCURVE",
"1406 533 OFFCURVE",
"1342 479 CURVE SMOOTH",
"1279 425 OFFCURVE",
"1225 389 OFFCURVE",
"1185 369 CURVE SMOOTH",
"1145 348 OFFCURVE",
"1091 328 OFFCURVE",
"1028 305 CURVE SMOOTH",
"961 281 OFFCURVE",
"894 271 OFFCURVE",
"830 271 CURVE SMOOTH",
"750 271 OFFCURVE",
"676 281 OFFCURVE",
"609 302 CURVE SMOOTH",
"542 322 OFFCURVE",
"475 355 OFFCURVE",
"408 405 CURVE SMOOTH",
"341 456 OFFCURVE",
"288 496 OFFCURVE",
"251 533 CURVE",
"214 566 OFFCURVE",
"157 623 OFFCURVE",
"80 700 CURVE",
"224 844 OFFCURVE",
"355 954 OFFCURVE",
"468 1025 CURVE SMOOTH",
"579 1095 OFFCURVE",
"699 1129 OFFCURVE",
"830 1129 CURVE SMOOTH"
);
},
{
closed = 1;
nodes = (
"676 425 OFFCURVE",
"746 395 OFFCURVE",
"830 395 CURVE SMOOTH",
"914 395 OFFCURVE",
"984 425 OFFCURVE",
"1044 486 CURVE SMOOTH",
"1101 546 OFFCURVE",
"1131 616 OFFCURVE",
"1131 700 CURVE SMOOTH",
"1131 784 OFFCURVE",
"1101 854 OFFCURVE",
"1044 914 CURVE SMOOTH",
"984 975 OFFCURVE",
"914 1005 OFFCURVE",
"830 1005 CURVE SMOOTH",
"746 1005 OFFCURVE",
"676 975 OFFCURVE",
"619 914 CURVE SMOOTH",
"559 854 OFFCURVE",
"529 784 OFFCURVE",
"529 700 CURVE SMOOTH",
"529 616 OFFCURVE",
"559 546 OFFCURVE",
"619 486 CURVE SMOOTH"
);
},
{
closed = 1;
nodes = (
"830 777 OFFCURVE",
"840 750 OFFCURVE",
"860 730 CURVE SMOOTH",
"880 710 OFFCURVE",
"907 700 OFFCURVE",
"937 700 CURVE SMOOTH",
"961 700 OFFCURVE",
"981 707 OFFCURVE",
"1004 723 CURVE",
"1004 700 LINE SMOOTH",
"1004 650 OFFCURVE",
"987 610 OFFCURVE",
"954 576 CURVE",
"920 539 OFFCURVE",
"880 523 OFFCURVE",
"830 523 CURVE SMOOTH",
"780 523 OFFCURVE",
"740 539 OFFCURVE",
"706 576 CURVE",
"673 610 OFFCURVE",
"656 650 OFFCURVE",
"656 700 CURVE SMOOTH",
"656 750 OFFCURVE",
"673 790 OFFCURVE",
"706 827 CURVE",
"740 861 OFFCURVE",
"780 877 OFFCURVE",
"830 877 CURVE SMOOTH",
"857 877 LINE",
"840 854 OFFCURVE",
"830 831 OFFCURVE",
"830 807 CURVE SMOOTH"
);
}
);
width = 1660;
}
);
leftKerningGroup = 10;
rightKerningGroup = 10;
unicode = F133;
},
{
glyphname = uniF134;
lastChange = "2014-08-26 21:31:26 -0600";
layers = (
{
layerId = "888C22D7-38C6-439F-A69E-1A09249D6A03";
name = Regular;
paths = (
{
closed = 1;
nodes = (
"1313 1185 LINE SMOOTH",
"1333 1185 OFFCURVE",
"1345 1185 OFFCURVE",
"1356 1185 CURVE",
"1364 1181 OFFCURVE",
"1372 1177 OFFCURVE",
"1380 1165 CURVE",
"1384 1154 OFFCURVE",
"1387 1134 OFFCURVE",
"1387 1107 CURVE SMOOTH",
"1387 998 LINE",
"265 998 LINE",
"265 1107 LINE SMOOTH",
"265 1142 OFFCURVE",
"273 1165 OFFCURVE",
"285 1173 CURVE SMOOTH",
"297 1181 OFFCURVE",
"316 1185 OFFCURVE",
"343 1185 CURVE SMOOTH"
);
},
{
closed = 1;
nodes = (
"1126 1313 LINE SMOOTH",
"1154 1313 OFFCURVE",
"1173 1309 OFFCURVE",
"1185 1302 CURVE SMOOTH",
"1197 1294 OFFCURVE",
"1200 1274 OFFCURVE",
"1200 1239 CURVE",
"452 1239 LINE",
"452 1263 OFFCURVE",
"456 1278 OFFCURVE",
"464 1290 CURVE",
"468 1302 OFFCURVE",
"476 1306 OFFCURVE",
"487 1309 CURVE",
"495 1313 OFFCURVE",
"511 1313 OFFCURVE",
"530 1313 CURVE SMOOTH"
);
},
{
closed = 1;
nodes = (
"1512 1025 LINE SMOOTH",
"1559 998 OFFCURVE",
"1578 943 OFFCURVE",
"1571 865 CURVE SMOOTH",
"1504 148 LINE",
"1493 94 OFFCURVE",
"1461 67 OFFCURVE",
"1411 67 CURVE SMOOTH",
"242 67 LINE SMOOTH",
"191 67 OFFCURVE",
"160 94 OFFCURVE",
"148 148 CURVE",
"82 869 LINE SMOOTH",
"78 920 OFFCURVE",
"78 951 OFFCURVE",
"86 971 CURVE SMOOTH",
"94 990 OFFCURVE",
"113 1006 OFFCURVE",
"141 1025 CURVE SMOOTH",
"199 1064 LINE",
"199 939 LINE",
"1450 939 LINE",
"1450 1064 LINE"
);
}
);
width = 1652.41;
}
);
leftKerningGroup = 10;
rightKerningGroup = 10;
unicode = F134;
},
{
glyphname = uniF135;
lastChange = "2014-08-26 21:31:26 -0600";
layers = (
{
layerId = "888C22D7-38C6-439F-A69E-1A09249D6A03";
name = Regular;
paths = (
{
closed = 1;
nodes = (
"1517 857 LINE SMOOTH",
"1535 857 OFFCURVE",
"1550 853 OFFCURVE",
"1560 843 CURVE SMOOTH",
"1571 832 OFFCURVE",
"1575 817 OFFCURVE",
"1575 803 CURVE SMOOTH",
"1575 49 LINE SMOOTH",
"1575 35 OFFCURVE",
"1571 24 OFFCURVE",
"1560 14 CURVE SMOOTH",
"1550 3 OFFCURVE",
"1535 -4 OFFCURVE",
"1517 -4 CURVE SMOOTH",
"139 -4 LINE SMOOTH",
"121 -4 OFFCURVE",
"111 3 OFFCURVE",
"100 14 CURVE SMOOTH",
"89 24 OFFCURVE",
"82 35 OFFCURVE",
"82 49 CURVE SMOOTH",
"82 803 LINE SMOOTH",
"82 835 OFFCURVE",
"96 853 OFFCURVE",
"129 857 CURVE",
"121 860 OFFCURVE",
"118 871 OFFCURVE",
"114 882 CURVE",
"82 1043 LINE SMOOTH",
"75 1076 OFFCURVE",
"89 1097 OFFCURVE",
"129 1108 CURVE",
"1456 1374 LINE",
"1489 1384 OFFCURVE",
"1510 1370 OFFCURVE",
"1521 1331 CURVE",
"1553 1165 LINE",
"1564 1133 OFFCURVE",
"1550 1112 OFFCURVE",
"1510 1101 CURVE",
"283 857 LINE"
);
},
{
closed = 1;
nodes = (
"1004 161 LINE",
"932 369 LINE",
"1115 498 LINE",
"893 498 LINE",
"821 706 LINE",
"753 498 LINE",
"527 498 LINE",
"710 369 LINE",
"642 161 LINE",
"821 290 LINE"
);
}
);
width = 1655;
}
);
leftKerningGroup = 10;
rightKerningGroup = 10;
unicode = F135;
},
{
glyphname = uniF136;
lastChange = "2014-08-26 21:31:26 -0600";
layers = (
{
layerId = "888C22D7-38C6-439F-A69E-1A09249D6A03";
name = Regular;
paths = (
{
closed = 1;
nodes = (
"465 34 LINE",
"348 97 OFFCURVE",
"257 191 OFFCURVE",
"187 308 CURVE SMOOTH",
"117 425 OFFCURVE",
"80 553 OFFCURVE",
"80 690 CURVE SMOOTH",
"80 898 OFFCURVE",
"154 1075 OFFCURVE",
"301 1222 CURVE SMOOTH",
"445 1366 OFFCURVE",
"622 1440 OFFCURVE",
"830 1440 CURVE SMOOTH",
"907 1440 OFFCURVE",
"984 1427 OFFCURVE",
"1058 1403 CURVE",
"1061 1400 OFFCURVE",
"1064 1400 OFFCURVE",
"1068 1400 CURVE SMOOTH",
"1071 1400 OFFCURVE",
"1071 1400 OFFCURVE",
"1074 1396 CURVE",
"1118 1383 OFFCURVE",
"1155 1366 OFFCURVE",
"1192 1346 CURVE SMOOTH",
"1309 1283 OFFCURVE",
"1406 1192 OFFCURVE",
"1476 1075 CURVE SMOOTH",
"1547 958 OFFCURVE",
"1580 827 OFFCURVE",
"1580 690 CURVE SMOOTH",
"1580 482 OFFCURVE",
"1506 305 OFFCURVE",
"1362 161 CURVE SMOOTH",
"1215 14 OFFCURVE",
"1038 -60 OFFCURVE",
"830 -60 CURVE SMOOTH",
"753 -60 OFFCURVE",
"676 -47 OFFCURVE",
"602 -23 CURVE",
"599 -20 OFFCURVE",
"599 -20 OFFCURVE",
"596 -20 CURVE SMOOTH",
"592 -20 OFFCURVE",
"589 -20 OFFCURVE",
"586 -16 CURVE",
"532 0 OFFCURVE",
"492 17 OFFCURVE",
"468 30 CURVE"
);
},
{
closed = 1;
nodes = (
"368 1021 LINE",
"298 921 OFFCURVE",
"261 811 OFFCURVE",
"261 690 CURVE SMOOTH",
"261 583 OFFCURVE",
"288 486 OFFCURVE",
"345 395 CURVE SMOOTH",
"398 305 OFFCURVE",
"472 238 OFFCURVE",
"562 188 CURVE",
"599 171 OFFCURVE",
"619 161 OFFCURVE",
"626 158 CURVE",
"629 154 OFFCURVE",
"632 154 OFFCURVE",
"636 154 CURVE SMOOTH",
"639 154 OFFCURVE",
"639 154 OFFCURVE",
"643 151 CURVE",
"663 144 OFFCURVE",
"696 138 OFFCURVE",
"740 128 CURVE",
"760 124 OFFCURVE",
"790 121 OFFCURVE",
"830 121 CURVE SMOOTH",
"951 121 OFFCURVE",
"1061 158 OFFCURVE",
"1161 228 CURVE",
"987 405 LINE",
"1108 539 LINE",
"1292 359 LINE",
"1362 459 OFFCURVE",
"1399 569 OFFCURVE",
"1399 690 CURVE SMOOTH",
"1399 800 OFFCURVE",
"1372 901 OFFCURVE",
"1315 991 CURVE SMOOTH",
"1259 1082 OFFCURVE",
"1185 1149 OFFCURVE",
"1095 1196 CURVE SMOOTH",
"1068 1209 OFFCURVE",
"1048 1219 OFFCURVE",
"1034 1222 CURVE",
"1031 1226 OFFCURVE",
"1031 1226 OFFCURVE",
"1028 1226 CURVE SMOOTH",
"1024 1226 OFFCURVE",
"1021 1226 OFFCURVE",
"1018 1229 CURVE",
"997 1236 OFFCURVE",
"964 1242 OFFCURVE",
"920 1253 CURVE",
"900 1256 OFFCURVE",
"870 1259 OFFCURVE",
"830 1259 CURVE SMOOTH",
"706 1259 OFFCURVE",
"596 1222 OFFCURVE",
"495 1152 CURVE",
"673 978 LINE",
"552 841 LINE"
);
},
{
closed = 1;
nodes = (
"676 241 LINE",
"803 620 LINE",
"519 620 LINE",
"984 1139 LINE",
"857 760 LINE",
"1141 760 LINE"
);
}
);
width = 1660;
}
);
leftKerningGroup = 10;
rightKerningGroup = 10;
unicode = F136;
},
{
glyphname = uniF137;
lastChange = "2014-08-26 21:31:26 -0600";
layers = (
{
layerId = "888C22D7-38C6-439F-A69E-1A09249D6A03";
name = Regular;
paths = (
{
closed = 1;
nodes = (
"80 583 LINE",
"830 1440 LINE",
"660 797 LINE",
"1152 797 LINE",
"402 -60 LINE",
"572 583 LINE"
);
}
);
width = 1232;
}
);
leftKerningGroup = 10;
rightKerningGroup = 10;
unicode = F137;
},
{
glyphname = uniF138;
lastChange = "2014-08-26 21:31:26 -0600";
layers = (
{
layerId = "888C22D7-38C6-439F-A69E-1A09249D6A03";
name = Regular;
paths = (
{
closed = 1;
nodes = (
"1565 25 LINE SMOOTH",
"1577 6 OFFCURVE",
"1577 -13 OFFCURVE",
"1565 -29 CURVE",
"1554 -48 OFFCURVE",
"1534 -56 OFFCURVE",
"1515 -56 CURVE SMOOTH",
"827 -56 LINE",
"135 -56 LINE SMOOTH",
"116 -56 OFFCURVE",
"100 -48 OFFCURVE",
"89 -29 CURVE",
"77 -13 OFFCURVE",
"77 6 OFFCURVE",
"89 25 CURVE SMOOTH",
"547 799 LINE",
"547 1382 LINE SMOOTH",
"547 1417 OFFCURVE",
"567 1436 OFFCURVE",
"602 1436 CURVE SMOOTH",
"641 1436 OFFCURVE",
"660 1417 OFFCURVE",
"660 1382 CURVE SMOOTH",
"660 1071 LINE",
"679 1082 OFFCURVE",
"699 1090 OFFCURVE",
"722 1090 CURVE SMOOTH",
"749 1090 OFFCURVE",
"777 1079 OFFCURVE",
"796 1059 CURVE SMOOTH",
"815 1040 OFFCURVE",
"827 1013 OFFCURVE",
"827 985 CURVE SMOOTH",
"827 958 OFFCURVE",
"815 935 OFFCURVE",
"796 915 CURVE SMOOTH",
"777 896 OFFCURVE",
"749 884 OFFCURVE",
"722 884 CURVE SMOOTH",
"699 884 OFFCURVE",
"679 892 OFFCURVE",
"660 904 CURVE",
"660 783 LINE SMOOTH",
"660 779 OFFCURVE",
"656 772 OFFCURVE",
"652 760 CURVE",
"516 531 LINE",
"796 531 LINE",
"730 558 OFFCURVE",
"695 605 OFFCURVE",
"695 674 CURVE SMOOTH",
"695 717 OFFCURVE",
"710 756 OFFCURVE",
"745 791 CURVE SMOOTH",
"777 822 OFFCURVE",
"815 838 OFFCURVE",
"862 838 CURVE SMOOTH",
"916 838 OFFCURVE",
"963 814 OFFCURVE",
"998 764 CURVE",
"994 768 OFFCURVE",
"994 775 OFFCURVE",
"994 783 CURVE SMOOTH",
"994 1382 LINE SMOOTH",
"994 1417 OFFCURVE",
"1014 1436 OFFCURVE",
"1049 1436 CURVE SMOOTH",
"1087 1436 OFFCURVE",
"1107 1417 OFFCURVE",
"1107 1382 CURVE SMOOTH",
"1107 799 LINE"
);
},
{
closed = 1;
nodes = (
"1134 531 LINE",
"1014 741 LINE",
"1021 721 OFFCURVE",
"1025 702 OFFCURVE",
"1025 674 CURVE SMOOTH",
"1025 605 OFFCURVE",
"994 558 OFFCURVE",
"928 531 CURVE"
);
},
{
closed = 1;
nodes = (
"905 1191 OFFCURVE",
"885 1184 OFFCURVE",
"862 1184 CURVE SMOOTH",
"839 1184 OFFCURVE",
"819 1191 OFFCURVE",
"804 1207 CURVE",
"784 1222 OFFCURVE",
"777 1242 OFFCURVE",
"777 1265 CURVE SMOOTH",
"777 1288 OFFCURVE",
"784 1308 OFFCURVE",
"804 1323 CURVE",
"819 1339 OFFCURVE",
"839 1347 OFFCURVE",
"862 1347 CURVE SMOOTH",
"885 1347 OFFCURVE",
"905 1339 OFFCURVE",
"924 1323 CURVE",
"940 1308 OFFCURVE",
"948 1288 OFFCURVE",
"948 1265 CURVE SMOOTH",
"948 1242 OFFCURVE",
"940 1222 OFFCURVE",
"924 1207 CURVE"
);
}
);
width = 1654;
}
);
leftKerningGroup = 10;
rightKerningGroup = 10;
unicode = F138;
},
{
glyphname = uniF139;
lastChange = "2014-08-26 21:31:26 -0600";
layers = (
{
layerId = "888C22D7-38C6-439F-A69E-1A09249D6A03";
name = Regular;
paths = (
{
closed = 1;
nodes = (
"1502 939 LINE SMOOTH",
"1534 939 OFFCURVE",
"1553 935 OFFCURVE",
"1565 923 CURVE",
"1572 912 OFFCURVE",
"1576 896 OFFCURVE",
"1572 869 CURVE",
"1526 146 LINE",
"1522 127 OFFCURVE",
"1522 115 OFFCURVE",
"1518 107 CURVE",
"1514 95 OFFCURVE",
"1506 88 OFFCURVE",
"1495 80 CURVE SMOOTH",
"1483 72 OFFCURVE",
"1464 68 OFFCURVE",
"1444 68 CURVE SMOOTH",
"212 68 LINE SMOOTH",
"181 68 OFFCURVE",
"162 76 OFFCURVE",
"150 88 CURVE SMOOTH",
"138 99 OFFCURVE",
"135 119 OFFCURVE",
"131 146 CURVE",
"80 861 LINE SMOOTH",
"76 912 OFFCURVE",
"100 939 OFFCURVE",
"150 939 CURVE SMOOTH"
);
},
{
closed = 1;
nodes = (
"1495 1001 LINE",
"158 1001 LINE",
"158 1032 OFFCURVE",
"166 1114 OFFCURVE",
"181 1246 CURVE",
"185 1269 OFFCURVE",
"189 1285 OFFCURVE",
"197 1296 CURVE",
"205 1304 OFFCURVE",
"212 1308 OFFCURVE",
"224 1312 CURVE",
"232 1312 OFFCURVE",
"251 1312 OFFCURVE",
"278 1312 CURVE SMOOTH",
"570 1312 LINE SMOOTH",
"620 1312 OFFCURVE",
"651 1312 OFFCURVE",
"659 1308 CURVE SMOOTH",
"667 1304 OFFCURVE",
"686 1285 OFFCURVE",
"714 1253 CURVE",
"741 1218 OFFCURVE",
"764 1199 OFFCURVE",
"780 1195 CURVE SMOOTH",
"795 1191 OFFCURVE",
"826 1187 OFFCURVE",
"873 1187 CURVE SMOOTH",
"1429 1187 LINE SMOOTH",
"1467 1187 OFFCURVE",
"1487 1168 OFFCURVE",
"1487 1129 CURVE"
);
}
);
width = 1653.59;
}
);
leftKerningGroup = 10;
rightKerningGroup = 10;
unicode = F139;
},
{
glyphname = uniF13A;
lastChange = "2014-08-26 21:31:26 -0600";
layers = (
{
layerId = "888C22D7-38C6-439F-A69E-1A09249D6A03";
name = Regular;
paths = (
{
closed = 1;
nodes = (
"955 526 LINE",
"725 526 OFFCURVE",
"549 503 OFFCURVE",
"420 452 CURVE SMOOTH",
"291 401 OFFCURVE",
"178 295 OFFCURVE",
"80 128 CURVE",
"84 147 OFFCURVE",
"92 178 OFFCURVE",
"103 217 CURVE",
"111 253 OFFCURVE",
"139 319 OFFCURVE",
"182 413 CURVE SMOOTH",
"225 503 OFFCURVE",
"275 585 OFFCURVE",
"334 659 CURVE SMOOTH",
"393 729 OFFCURVE",
"475 795 OFFCURVE",
"588 854 CURVE SMOOTH",
"697 913 OFFCURVE",
"818 940 OFFCURVE",
"955 940 CURVE",
"955 1253 LINE",
"1580 690 LINE",
"955 167 LINE"
);
}
);
width = 1660;
}
);
leftKerningGroup = 10;
rightKerningGroup = 10;
unicode = F13A;
},
{
glyphname = uniF13B;
lastChange = "2014-08-26 21:31:26 -0600";
layers = (
{
layerId = "888C22D7-38C6-439F-A69E-1A09249D6A03";
name = Regular;
paths = (
{
closed = 1;
nodes = (
"1208 1065 LINE SMOOTH",
"1312 1065 OFFCURVE",
"1399 1032 OFFCURVE",
"1473 961 CURVE SMOOTH",
"1543 891 OFFCURVE",
"1580 800 OFFCURVE",
"1580 693 CURVE SMOOTH",
"1580 586 OFFCURVE",
"1543 496 OFFCURVE",
"1473 425 CURVE SMOOTH",
"1399 352 OFFCURVE",
"1312 315 OFFCURVE",
"1208 315 CURVE SMOOTH",
"452 315 LINE SMOOTH",
"348 315 OFFCURVE",
"261 352 OFFCURVE",
"190 425 CURVE",
"117 496 OFFCURVE",
"80 586 OFFCURVE",
"80 693 CURVE SMOOTH",
"80 800 OFFCURVE",
"117 891 OFFCURVE",
"190 961 CURVE SMOOTH",
"261 1032 OFFCURVE",
"348 1065 OFFCURVE",
"452 1065 CURVE SMOOTH"
);
},
{
closed = 1;
nodes = (
"1362 760 OFFCURVE",
"1346 767 OFFCURVE",
"1329 767 CURVE SMOOTH",
"1312 767 OFFCURVE",
"1295 760 OFFCURVE",
"1282 750 CURVE",
"1269 737 OFFCURVE",
"1262 720 OFFCURVE",
"1262 703 CURVE SMOOTH",
"1262 687 OFFCURVE",
"1269 670 OFFCURVE",
"1282 660 CURVE",
"1295 646 OFFCURVE",
"1312 640 OFFCURVE",
"1329 640 CURVE SMOOTH",
"1346 640 OFFCURVE",
"1362 646 OFFCURVE",
"1376 660 CURVE SMOOTH",
"1386 670 OFFCURVE",
"1393 687 OFFCURVE",
"1393 703 CURVE SMOOTH",
"1393 720 OFFCURVE",
"1386 737 OFFCURVE",
"1376 750 CURVE"
);
},
{
closed = 1;
nodes = (
"1218 898 OFFCURVE",
"1202 904 OFFCURVE",
"1185 904 CURVE SMOOTH",
"1168 904 OFFCURVE",
"1151 898 OFFCURVE",
"1141 888 CURVE SMOOTH",
"1128 874 OFFCURVE",
"1121 857 OFFCURVE",
"1121 841 CURVE SMOOTH",
"1121 824 OFFCURVE",
"1128 807 OFFCURVE",
"1141 797 CURVE",
"1151 784 OFFCURVE",
"1168 777 OFFCURVE",
"1185 777 CURVE SMOOTH",
"1202 777 OFFCURVE",
"1218 784 OFFCURVE",
"1232 797 CURVE",
"1245 807 OFFCURVE",
"1252 824 OFFCURVE",
"1252 841 CURVE SMOOTH",
"1252 857 OFFCURVE",
"1245 874 OFFCURVE",
"1232 888 CURVE"
);
},
{
closed = 1;
nodes = (
"1141 626 OFFCURVE",
"1121 606 OFFCURVE",
"1121 563 CURVE SMOOTH",
"1121 546 OFFCURVE",
"1128 529 OFFCURVE",
"1141 519 CURVE",
"1151 506 OFFCURVE",
"1168 499 OFFCURVE",
"1185 499 CURVE SMOOTH",
"1202 499 OFFCURVE",
"1218 506 OFFCURVE",
"1232 519 CURVE",
"1245 529 OFFCURVE",
"1252 546 OFFCURVE",
"1252 563 CURVE SMOOTH",
"1252 580 OFFCURVE",
"1245 596 OFFCURVE",
"1232 610 CURVE",
"1218 620 OFFCURVE",
"1202 626 OFFCURVE",
"1185 626 CURVE SMOOTH"
);
},
{
closed = 1;
nodes = (
"1078 760 OFFCURVE",
"1061 767 OFFCURVE",
"1044 767 CURVE SMOOTH",
"1028 767 OFFCURVE",
"1011 760 OFFCURVE",
"997 750 CURVE",
"984 737 OFFCURVE",
"977 720 OFFCURVE",
"977 703 CURVE SMOOTH",
"977 687 OFFCURVE",
"984 670 OFFCURVE",
"997 660 CURVE",
"1011 646 OFFCURVE",
"1028 640 OFFCURVE",
"1044 640 CURVE SMOOTH",
"1061 640 OFFCURVE",
"1078 646 OFFCURVE",
"1091 660 CURVE SMOOTH",
"1101 670 OFFCURVE",
"1108 687 OFFCURVE",
"1108 703 CURVE SMOOTH",
"1108 720 OFFCURVE",
"1101 737 OFFCURVE",
"1091 750 CURVE"
);
},
{
closed = 1;
nodes = (
"268 653 LINE SMOOTH",
"268 643 OFFCURVE",
"274 636 OFFCURVE",
"284 636 CURVE SMOOTH",
"401 636 LINE",
"401 509 LINE",
"401 502 LINE SMOOTH",
"401 492 OFFCURVE",
"408 489 OFFCURVE",
"418 489 CURVE SMOOTH",
"492 489 LINE SMOOTH",
"502 489 OFFCURVE",
"509 496 OFFCURVE",
"509 506 CURVE SMOOTH",
"509 636 LINE",
"632 636 LINE",
"636 636 LINE SMOOTH",
"646 636 OFFCURVE",
"653 643 OFFCURVE",
"653 653 CURVE SMOOTH",
"653 727 LINE SMOOTH",
"653 737 OFFCURVE",
"646 744 OFFCURVE",
"636 744 CURVE SMOOTH",
"632 744 LINE",
"509 744 LINE",
"509 871 LINE",
"509 874 LINE SMOOTH",
"509 884 OFFCURVE",
"502 891 OFFCURVE",
"492 891 CURVE SMOOTH",
"418 891 LINE SMOOTH",
"408 891 OFFCURVE",
"401 884 OFFCURVE",
"401 874 CURVE SMOOTH",
"401 871 LINE",
"401 744 LINE",
"284 744 LINE",
"281 744 LINE SMOOTH",
"271 744 OFFCURVE",
"268 737 OFFCURVE",
"268 727 CURVE SMOOTH"
);
}
);
width = 1660;
}
);
leftKerningGroup = 10;
rightKerningGroup = 10;
unicode = F13B;
},
{
glyphname = uniF13C;
lastChange = "2014-08-26 21:31:26 -0600";
layers = (
{
layerId = "888C22D7-38C6-439F-A69E-1A09249D6A03";
name = Regular;
paths = (
{
closed = 1;
nodes = (
"1304 1200 OFFCURVE",
"1364 1150 OFFCURVE",
"1407 1073 CURVE SMOOTH",
"1451 997 OFFCURVE",
"1491 880 OFFCURVE",
"1527 723 CURVE SMOOTH",
"1564 577 OFFCURVE",
"1577 453 OFFCURVE",
"1574 357 CURVE SMOOTH",
"1571 257 OFFCURVE",
"1547 197 OFFCURVE",
"1504 177 CURVE SMOOTH",
"1437 147 OFFCURVE",
"1347 200 OFFCURVE",
"1237 340 CURVE",
"1197 383 OFFCURVE",
"1157 410 OFFCURVE",
"1117 420 CURVE SMOOTH",
"1077 430 OFFCURVE",
"981 433 OFFCURVE",
"827 433 CURVE SMOOTH",
"677 433 OFFCURVE",
"581 430 OFFCURVE",
"537 420 CURVE SMOOTH",
"494 410 OFFCURVE",
"457 383 OFFCURVE",
"421 340 CURVE SMOOTH",
"307 197 OFFCURVE",
"217 143 OFFCURVE",
"151 177 CURVE SMOOTH",
"107 197 OFFCURVE",
"84 257 OFFCURVE",
"81 357 CURVE SMOOTH",
"77 453 OFFCURVE",
"91 577 OFFCURVE",
"127 723 CURVE SMOOTH",
"164 880 OFFCURVE",
"207 997 OFFCURVE",
"251 1073 CURVE SMOOTH",
"294 1150 OFFCURVE",
"351 1200 OFFCURVE",
"421 1220 CURVE SMOOTH",
"474 1237 OFFCURVE",
"541 1233 OFFCURVE",
"617 1213 CURVE",
"694 1190 OFFCURVE",
"764 1180 OFFCURVE",
"827 1180 CURVE SMOOTH",
"891 1180 OFFCURVE",
"961 1190 OFFCURVE",
"1037 1213 CURVE",
"1114 1233 OFFCURVE",
"1181 1237 OFFCURVE",
"1234 1220 CURVE SMOOTH"
);
},
{
closed = 1;
nodes = (
"334 687 OFFCURVE",
"364 673 OFFCURVE",
"401 673 CURVE SMOOTH",
"437 673 OFFCURVE",
"467 687 OFFCURVE",
"494 713 CURVE SMOOTH",
"521 740 OFFCURVE",
"534 770 OFFCURVE",
"534 807 CURVE SMOOTH",
"534 843 OFFCURVE",
"521 873 OFFCURVE",
"494 900 CURVE SMOOTH",
"467 927 OFFCURVE",
"437 940 OFFCURVE",
"401 940 CURVE SMOOTH",
"364 940 OFFCURVE",
"334 927 OFFCURVE",
"311 903 CURVE SMOOTH",
"284 877 OFFCURVE",
"271 843 OFFCURVE",
"271 807 CURVE SMOOTH",
"271 770 OFFCURVE",
"284 737 OFFCURVE",
"311 713 CURVE"
);
},
{
closed = 1;
nodes = (
"1071 850 OFFCURVE",
"1051 870 OFFCURVE",
"1007 870 CURVE SMOOTH",
"991 870 OFFCURVE",
"974 863 OFFCURVE",
"961 853 CURVE",
"947 840 OFFCURVE",
"941 823 OFFCURVE",
"941 807 CURVE SMOOTH",
"941 790 OFFCURVE",
"947 773 OFFCURVE",
"961 760 CURVE SMOOTH",
"974 747 OFFCURVE",
"991 740 OFFCURVE",
"1007 740 CURVE SMOOTH",
"1024 740 OFFCURVE",
"1041 747 OFFCURVE",
"1054 760 CURVE",
"1064 773 OFFCURVE",
"1071 790 OFFCURVE",
"1071 807 CURVE SMOOTH"
);
},
{
closed = 1;
nodes = (
"1211 680 OFFCURVE",
"1204 697 OFFCURVE",
"1194 710 CURVE",
"1181 723 OFFCURVE",
"1164 730 OFFCURVE",
"1147 730 CURVE SMOOTH",
"1131 730 OFFCURVE",
"1114 723 OFFCURVE",
"1104 710 CURVE",
"1091 697 OFFCURVE",
"1084 680 OFFCURVE",
"1084 663 CURVE SMOOTH",
"1084 620 OFFCURVE",
"1104 600 OFFCURVE",
"1147 600 CURVE SMOOTH",
"1191 600 OFFCURVE",
"1211 620 OFFCURVE",
"1211 663 CURVE SMOOTH"
);
},
{
closed = 1;
nodes = (
"1211 963 OFFCURVE",
"1204 980 OFFCURVE",
"1194 993 CURVE",
"1181 1007 OFFCURVE",
"1164 1013 OFFCURVE",
"1147 1013 CURVE SMOOTH",
"1131 1013 OFFCURVE",
"1114 1007 OFFCURVE",
"1104 993 CURVE",
"1091 980 OFFCURVE",
"1084 963 OFFCURVE",
"1084 947 CURVE SMOOTH",
"1084 903 OFFCURVE",
"1104 883 OFFCURVE",
"1147 883 CURVE SMOOTH",
"1191 883 OFFCURVE",
"1211 903 OFFCURVE",
"1211 947 CURVE SMOOTH"
);
},
{
closed = 1;
nodes = (
"1244 870 OFFCURVE",
"1224 850 OFFCURVE",
"1224 807 CURVE SMOOTH",
"1224 790 OFFCURVE",
"1231 773 OFFCURVE",
"1244 760 CURVE",
"1254 747 OFFCURVE",
"1271 740 OFFCURVE",
"1287 740 CURVE SMOOTH",
"1304 740 OFFCURVE",
"1321 747 OFFCURVE",
"1334 760 CURVE SMOOTH",
"1347 773 OFFCURVE",
"1354 790 OFFCURVE",
"1354 807 CURVE SMOOTH",
"1354 823 OFFCURVE",
"1347 840 OFFCURVE",
"1334 853 CURVE",
"1321 863 OFFCURVE",
"1304 870 OFFCURVE",
"1287 870 CURVE SMOOTH"
);
}
);
width = 1654.42;
}
);
leftKerningGroup = 10;
rightKerningGroup = 10;
unicode = F13C;
},
{
glyphname = uniF13D;
lastChange = "2014-08-26 21:31:26 -0600";
layers = (
{
layerId = "888C22D7-38C6-439F-A69E-1A09249D6A03";
name = Regular;
paths = (
{
closed = 1;
nodes = (
"1568 428 OFFCURVE",
"1545 381 OFFCURVE",
"1518 323 CURVE",
"1428 342 OFFCURVE",
"1350 319 OFFCURVE",
"1275 245 CURVE SMOOTH",
"1209 178 OFFCURVE",
"1189 100 OFFCURVE",
"1213 3 CURVE",
"1154 -25 OFFCURVE",
"1107 -48 OFFCURVE",
"1064 -60 CURVE",
"1006 38 OFFCURVE",
"928 85 OFFCURVE",
"830 85 CURVE SMOOTH",
"732 85 OFFCURVE",
"654 38 OFFCURVE",
"596 -60 CURVE",
"549 -44 OFFCURVE",
"498 -25 OFFCURVE",
"443 3 CURVE",
"467 100 OFFCURVE",
"447 182 OFFCURVE",
"385 245 CURVE SMOOTH",
"322 307 OFFCURVE",
"240 327 OFFCURVE",
"143 303 CURVE",
"115 358 OFFCURVE",
"96 409 OFFCURVE",
"80 456 CURVE",
"178 514 OFFCURVE",
"225 592 OFFCURVE",
"225 690 CURVE SMOOTH",
"225 780 OFFCURVE",
"178 850 OFFCURVE",
"80 909 CURVE",
"100 967 OFFCURVE",
"119 1014 OFFCURVE",
"143 1057 CURVE",
"232 1038 OFFCURVE",
"310 1061 OFFCURVE",
"385 1135 CURVE SMOOTH",
"447 1198 OFFCURVE",
"467 1280 OFFCURVE",
"443 1378 CURVE",
"498 1405 OFFCURVE",
"549 1424 OFFCURVE",
"596 1440 CURVE",
"654 1342 OFFCURVE",
"732 1295 OFFCURVE",
"830 1295 CURVE SMOOTH",
"928 1295 OFFCURVE",
"1006 1342 OFFCURVE",
"1064 1440 CURVE",
"1111 1424 OFFCURVE",
"1162 1405 OFFCURVE",
"1217 1378 CURVE",
"1193 1280 OFFCURVE",
"1213 1198 OFFCURVE",
"1275 1135 CURVE SMOOTH",
"1350 1061 OFFCURVE",
"1428 1038 OFFCURVE",
"1518 1057 CURVE",
"1545 999 OFFCURVE",
"1568 952 OFFCURVE",
"1580 909 CURVE",
"1482 850 OFFCURVE",
"1435 780 OFFCURVE",
"1435 690 CURVE SMOOTH",
"1435 600 OFFCURVE",
"1482 530 OFFCURVE",
"1580 471 CURVE"
);
},
{
closed = 1;
nodes = (
"635 346 OFFCURVE",
"725 307 OFFCURVE",
"830 307 CURVE SMOOTH",
"935 307 OFFCURVE",
"1025 346 OFFCURVE",
"1100 420 CURVE SMOOTH",
"1174 495 OFFCURVE",
"1213 585 OFFCURVE",
"1213 690 CURVE SMOOTH",
"1213 795 OFFCURVE",
"1174 885 OFFCURVE",
"1100 960 CURVE SMOOTH",
"1025 1034 OFFCURVE",
"935 1073 OFFCURVE",
"830 1073 CURVE SMOOTH",
"725 1073 OFFCURVE",
"635 1034 OFFCURVE",
"560 960 CURVE SMOOTH",
"486 885 OFFCURVE",
"447 795 OFFCURVE",
"447 690 CURVE SMOOTH",
"447 585 OFFCURVE",
"486 495 OFFCURVE",
"560 420 CURVE SMOOTH"
);
}
);
width = 1660;
}
);
leftKerningGroup = 10;
rightKerningGroup = 10;
unicode = F13D;
},
{
glyphname = uniF13E;
lastChange = "2014-08-26 21:31:26 -0600";
layers = (
{
layerId = "888C22D7-38C6-439F-A69E-1A09249D6A03";
name = Regular;
paths = (
{
closed = 1;
nodes = (
"1580 542 LINE",
"1408 542 LINE",
"1393 491 OFFCURVE",
"1369 440 OFFCURVE",
"1342 389 CURVE",
"1467 264 LINE",
"1256 53 LINE",
"1127 178 LINE",
"1092 159 OFFCURVE",
"1041 139 OFFCURVE",
"978 120 CURVE",
"978 -60 LINE",
"682 -60 LINE",
"682 120 LINE",
"615 139 OFFCURVE",
"564 159 OFFCURVE",
"533 178 CURVE",
"404 53 LINE",
"193 264 LINE",
"318 389 LINE",
"291 440 OFFCURVE",
"268 491 OFFCURVE",
"252 542 CURVE",
"80 542 LINE",
"80 838 LINE",
"248 838 LINE",
"268 909 OFFCURVE",
"291 963 OFFCURVE",
"310 999 CURVE",
"193 1116 LINE",
"404 1327 LINE",
"518 1213 LINE",
"560 1241 OFFCURVE",
"615 1260 OFFCURVE",
"682 1280 CURVE",
"682 1440 LINE",
"978 1440 LINE",
"978 1280 LINE",
"1045 1260 OFFCURVE",
"1100 1241 OFFCURVE",
"1143 1213 CURVE",
"1256 1327 LINE",
"1467 1116 LINE",
"1350 999 LINE",
"1377 948 OFFCURVE",
"1400 893 OFFCURVE",
"1412 838 CURVE",
"1580 838 LINE"
);
},
{
closed = 1;
nodes = (
"725 499 OFFCURVE",
"771 479 OFFCURVE",
"830 479 CURVE SMOOTH",
"889 479 OFFCURVE",
"935 499 OFFCURVE",
"978 542 CURVE SMOOTH",
"1021 585 OFFCURVE",
"1041 631 OFFCURVE",
"1041 690 CURVE SMOOTH",
"1041 749 OFFCURVE",
"1021 795 OFFCURVE",
"978 838 CURVE SMOOTH",
"935 881 OFFCURVE",
"889 901 OFFCURVE",
"830 901 CURVE SMOOTH",
"771 901 OFFCURVE",
"725 881 OFFCURVE",
"682 838 CURVE SMOOTH",
"639 795 OFFCURVE",
"619 749 OFFCURVE",
"619 690 CURVE SMOOTH",
"619 631 OFFCURVE",
"639 585 OFFCURVE",
"682 542 CURVE SMOOTH"
);
}
);
width = 1660;
}
);
leftKerningGroup = 10;
rightKerningGroup = 10;
unicode = F13E;
},
{
glyphname = uniF140;
lastChange = "2014-08-26 21:31:26 -0600";
layers = (
{
layerId = "888C22D7-38C6-439F-A69E-1A09249D6A03";
name = Regular;
paths = (
{
closed = 1;
nodes = (
"1578 659 OFFCURVE",
"1578 545 OFFCURVE",
"1566 417 CURVE SMOOTH",
"1555 288 OFFCURVE",
"1543 190 OFFCURVE",
"1524 128 CURVE SMOOTH",
"1488 3 OFFCURVE",
"1449 -80 OFFCURVE",
"1406 -123 CURVE SMOOTH",
"1363 -165 OFFCURVE",
"1309 -185 OFFCURVE",
"1242 -185 CURVE SMOOTH",
"1180 -185 OFFCURVE",
"1125 -162 OFFCURVE",
"1082 -115 CURVE",
"1039 -72 OFFCURVE",
"1016 -17 OFFCURVE",
"1016 45 CURVE SMOOTH",
"1016 460 LINE SMOOTH",
"1016 526 OFFCURVE",
"1035 581 OFFCURVE",
"1078 624 CURVE",
"1117 667 OFFCURVE",
"1164 690 OFFCURVE",
"1223 690 CURVE SMOOTH",
"1297 690 OFFCURVE",
"1352 659 OFFCURVE",
"1395 596 CURVE",
"1422 616 OFFCURVE",
"1441 643 OFFCURVE",
"1445 682 CURVE",
"1457 768 OFFCURVE",
"1449 850 OFFCURVE",
"1426 932 CURVE SMOOTH",
"1414 975 OFFCURVE",
"1391 1010 OFFCURVE",
"1356 1030 CURVE SMOOTH",
"1320 1049 OFFCURVE",
"1297 1065 OFFCURVE",
"1285 1081 CURVE SMOOTH",
"1274 1096 OFFCURVE",
"1266 1108 OFFCURVE",
"1254 1120 CURVE SMOOTH",
"1215 1159 LINE SMOOTH",
"1207 1167 OFFCURVE",
"1199 1170 OFFCURVE",
"1195 1174 CURVE",
"1145 1217 OFFCURVE",
"1098 1249 OFFCURVE",
"1063 1264 CURVE",
"992 1299 OFFCURVE",
"914 1315 OFFCURVE",
"828 1315 CURVE SMOOTH",
"738 1315 OFFCURVE",
"660 1299 OFFCURVE",
"590 1264 CURVE",
"563 1253 OFFCURVE",
"520 1221 OFFCURVE",
"461 1174 CURVE",
"457 1170 OFFCURVE",
"449 1167 OFFCURVE",
"441 1159 CURVE SMOOTH",
"402 1120 LINE SMOOTH",
"391 1108 OFFCURVE",
"383 1096 OFFCURVE",
"371 1081 CURVE SMOOTH",
"359 1065 OFFCURVE",
"336 1049 OFFCURVE",
"301 1030 CURVE SMOOTH",
"266 1010 OFFCURVE",
"242 975 OFFCURVE",
"231 932 CURVE SMOOTH",
"207 850 OFFCURVE",
"199 764 OFFCURVE",
"211 682 CURVE",
"215 663 OFFCURVE",
"219 647 OFFCURVE",
"227 635 CURVE",
"234 620 OFFCURVE",
"242 608 OFFCURVE",
"250 604 CURVE",
"262 596 LINE",
"305 659 OFFCURVE",
"359 690 OFFCURVE",
"434 690 CURVE SMOOTH",
"492 690 OFFCURVE",
"539 667 OFFCURVE",
"582 624 CURVE",
"621 577 OFFCURVE",
"641 522 OFFCURVE",
"641 460 CURVE SMOOTH",
"641 45 LINE SMOOTH",
"641 -17 OFFCURVE",
"617 -72 OFFCURVE",
"574 -115 CURVE",
"531 -162 OFFCURVE",
"477 -185 OFFCURVE",
"414 -185 CURVE SMOOTH",
"348 -185 OFFCURVE",
"293 -165 OFFCURVE",
"250 -123 CURVE SMOOTH",
"207 -80 OFFCURVE",
"168 3 OFFCURVE",
"133 128 CURVE SMOOTH",
"113 190 OFFCURVE",
"102 288 OFFCURVE",
"90 417 CURVE SMOOTH",
"78 545 OFFCURVE",
"78 659 OFFCURVE",
"82 760 CURVE SMOOTH",
"94 991 OFFCURVE",
"164 1182 OFFCURVE",
"301 1327 CURVE SMOOTH",
"352 1378 OFFCURVE",
"383 1409 OFFCURVE",
"395 1417 CURVE",
"430 1444 OFFCURVE",
"465 1467 OFFCURVE",
"508 1487 CURVE",
"606 1538 OFFCURVE",
"715 1565 OFFCURVE",
"828 1565 CURVE SMOOTH",
"941 1565 OFFCURVE",
"1051 1538 OFFCURVE",
"1149 1487 CURVE SMOOTH",
"1184 1467 OFFCURVE",
"1223 1444 OFFCURVE",
"1258 1417 CURVE SMOOTH",
"1281 1397 OFFCURVE",
"1313 1370 OFFCURVE",
"1356 1327 CURVE SMOOTH",
"1492 1182 OFFCURVE",
"1563 991 OFFCURVE",
"1574 760 CURVE SMOOTH"
);
}
);
width = 1656.39;
}
);
leftKerningGroup = 10;
rightKerningGroup = 10;
unicode = F140;
},
{
glyphname = uniF141;
lastChange = "2014-08-26 21:31:26 -0600";
layers = (
{
layerId = "888C22D7-38C6-439F-A69E-1A09249D6A03";
name = Regular;
paths = (
{
closed = 1;
nodes = (
"1540 1184 OFFCURVE",
"1580 1079 OFFCURVE",
"1580 960 CURVE SMOOTH",
"1580 838 OFFCURVE",
"1540 733 OFFCURVE",
"1457 650 CURVE SMOOTH",
"830 -2 LINE",
"203 650 LINE SMOOTH",
"120 733 OFFCURVE",
"80 838 OFFCURVE",
"80 960 CURVE SMOOTH",
"80 1079 OFFCURVE",
"120 1184 OFFCURVE",
"203 1267 CURVE SMOOTH",
"275 1343 OFFCURVE",
"365 1382 OFFCURVE",
"469 1382 CURVE SMOOTH",
"574 1382 OFFCURVE",
"661 1343 OFFCURVE",
"733 1267 CURVE SMOOTH",
"830 1166 LINE",
"931 1267 LINE SMOOTH",
"1003 1343 OFFCURVE",
"1090 1382 OFFCURVE",
"1194 1382 CURVE SMOOTH",
"1299 1382 OFFCURVE",
"1385 1343 OFFCURVE",
"1457 1267 CURVE SMOOTH"
);
}
);
width = 1660;
}
);
leftKerningGroup = 10;
rightKerningGroup = 10;
unicode = F141;
},
{
glyphname = uniF142;
lastChange = "2014-08-26 21:31:26 -0600";
layers = (
{
layerId = "888C22D7-38C6-439F-A69E-1A09249D6A03";
name = Regular;
paths = (
{
closed = 1;
nodes = (
"445 1366 OFFCURVE",
"622 1440 OFFCURVE",
"830 1440 CURVE SMOOTH",
"1038 1440 OFFCURVE",
"1215 1366 OFFCURVE",
"1362 1222 CURVE SMOOTH",
"1506 1075 OFFCURVE",
"1580 898 OFFCURVE",
"1580 690 CURVE SMOOTH",
"1580 482 OFFCURVE",
"1506 305 OFFCURVE",
"1362 161 CURVE SMOOTH",
"1215 14 OFFCURVE",
"1038 -60 OFFCURVE",
"830 -60 CURVE SMOOTH",
"622 -60 OFFCURVE",
"445 14 OFFCURVE",
"301 161 CURVE SMOOTH",
"154 305 OFFCURVE",
"80 482 OFFCURVE",
"80 690 CURVE SMOOTH",
"80 898 OFFCURVE",
"154 1075 OFFCURVE",
"301 1222 CURVE SMOOTH"
);
},
{
closed = 1;
nodes = (
"900 375 OFFCURVE",
"890 399 OFFCURVE",
"874 419 CURVE",
"853 439 OFFCURVE",
"830 449 OFFCURVE",
"800 449 CURVE SMOOTH",
"773 449 OFFCURVE",
"750 439 OFFCURVE",
"730 422 CURVE SMOOTH",
"709 405 OFFCURVE",
"699 382 OFFCURVE",
"699 352 CURVE SMOOTH",
"699 322 OFFCURVE",
"709 298 OFFCURVE",
"726 282 CURVE",
"743 261 OFFCURVE",
"766 251 OFFCURVE",
"793 251 CURVE SMOOTH",
"823 251 OFFCURVE",
"847 261 OFFCURVE",
"867 278 CURVE SMOOTH",
"887 295 OFFCURVE",
"897 315 OFFCURVE",
"897 345 CURVE"
);
},
{
closed = 1;
nodes = (
"1088 811 OFFCURVE",
"1101 851 OFFCURVE",
"1101 894 CURVE SMOOTH",
"1101 968 OFFCURVE",
"1074 1025 OFFCURVE",
"1018 1068 CURVE SMOOTH",
"964 1109 OFFCURVE",
"894 1129 OFFCURVE",
"810 1129 CURVE SMOOTH",
"746 1129 OFFCURVE",
"696 1115 OFFCURVE",
"653 1085 CURVE SMOOTH",
"589 1042 OFFCURVE",
"559 968 OFFCURVE",
"559 857 CURVE",
"723 857 LINE",
"723 904 OFFCURVE",
"726 934 OFFCURVE",
"736 948 CURVE",
"756 981 OFFCURVE",
"786 998 OFFCURVE",
"823 998 CURVE SMOOTH",
"860 998 OFFCURVE",
"890 985 OFFCURVE",
"907 961 CURVE SMOOTH",
"924 938 OFFCURVE",
"934 911 OFFCURVE",
"934 884 CURVE SMOOTH",
"934 867 OFFCURVE",
"924 844 OFFCURVE",
"907 817 CURVE",
"904 807 OFFCURVE",
"890 797 OFFCURVE",
"874 784 CURVE",
"817 750 OFFCURVE",
"776 717 OFFCURVE",
"756 683 CURVE SMOOTH",
"740 653 OFFCURVE",
"726 610 OFFCURVE",
"723 546 CURVE",
"723 536 OFFCURVE",
"726 533 OFFCURVE",
"736 533 CURVE SMOOTH",
"867 533 LINE SMOOTH",
"877 533 OFFCURVE",
"884 536 OFFCURVE",
"884 546 CURVE SMOOTH",
"884 569 OFFCURVE",
"887 593 OFFCURVE",
"890 610 CURVE",
"897 630 OFFCURVE",
"910 650 OFFCURVE",
"930 667 CURVE",
"977 697 LINE SMOOTH",
"1021 727 OFFCURVE",
"1048 754 OFFCURVE",
"1061 774 CURVE"
);
}
);
width = 1660;
}
);
leftKerningGroup = 10;
rightKerningGroup = 10;
unicode = F142;
},
{
glyphname = uniF143;
lastChange = "2014-08-26 21:31:26 -0600";
layers = (
{
layerId = "888C22D7-38C6-439F-A69E-1A09249D6A03";
name = Regular;
paths = (
{
closed = 1;
nodes = (
"959 1266 OFFCURVE",
"1006 1165 OFFCURVE",
"1006 1039 CURVE SMOOTH",
"1006 963 OFFCURVE",
"984 894 OFFCURVE",
"937 833 CURVE",
"915 807 OFFCURVE",
"868 764 OFFCURVE",
"792 703 CURVE",
"716 652 LINE",
"680 623 OFFCURVE",
"655 591 OFFCURVE",
"644 551 CURVE",
"637 529 OFFCURVE",
"633 493 OFFCURVE",
"633 446 CURVE SMOOTH",
"633 432 OFFCURVE",
"626 424 OFFCURVE",
"608 424 CURVE SMOOTH",
"384 424 LINE SMOOTH",
"366 424 OFFCURVE",
"359 432 OFFCURVE",
"359 442 CURVE SMOOTH",
"362 554 OFFCURVE",
"380 634 OFFCURVE",
"413 681 CURVE SMOOTH",
"431 706 OFFCURVE",
"456 732 OFFCURVE",
"489 760 CURVE SMOOTH",
"521 789 OFFCURVE",
"554 811 OFFCURVE",
"579 829 CURVE",
"619 854 LINE",
"644 876 OFFCURVE",
"662 894 OFFCURVE",
"673 909 CURVE SMOOTH",
"702 948 OFFCURVE",
"716 988 OFFCURVE",
"716 1024 CURVE SMOOTH",
"716 1078 OFFCURVE",
"702 1122 OFFCURVE",
"677 1154 CURVE SMOOTH",
"641 1198 OFFCURVE",
"590 1219 OFFCURVE",
"529 1219 CURVE SMOOTH",
"467 1219 OFFCURVE",
"420 1191 OFFCURVE",
"384 1133 CURVE",
"366 1107 OFFCURVE",
"359 1053 OFFCURVE",
"359 977 CURVE",
"80 977 LINE",
"80 1169 OFFCURVE",
"135 1299 OFFCURVE",
"239 1368 CURVE SMOOTH",
"308 1415 OFFCURVE",
"398 1440 OFFCURVE",
"510 1440 CURVE SMOOTH",
"659 1440 OFFCURVE",
"774 1407 OFFCURVE",
"865 1339 CURVE SMOOTH"
);
},
{
closed = 1;
nodes = (
"543 276 OFFCURVE",
"583 262 OFFCURVE",
"615 229 CURVE SMOOTH",
"648 197 OFFCURVE",
"662 157 OFFCURVE",
"659 106 CURVE SMOOTH",
"655 56 OFFCURVE",
"637 16 OFFCURVE",
"604 -13 CURVE",
"572 -45 OFFCURVE",
"529 -60 OFFCURVE",
"482 -56 CURVE SMOOTH",
"435 -53 OFFCURVE",
"395 -38 OFFCURVE",
"362 -6 CURVE",
"330 23 OFFCURVE",
"315 63 OFFCURVE",
"319 114 CURVE SMOOTH",
"323 164 OFFCURVE",
"341 204 OFFCURVE",
"373 236 CURVE SMOOTH",
"406 269 OFFCURVE",
"445 283 OFFCURVE",
"492 280 CURVE SMOOTH"
);
}
);
width = 1086;
}
);
leftKerningGroup = 10;
rightKerningGroup = 10;
unicode = F143;
},
{
glyphname = uniF144;
lastChange = "2014-08-26 21:31:26 -0600";
layers = (
{
layerId = "888C22D7-38C6-439F-A69E-1A09249D6A03";
name = Regular;
paths = (
{
closed = 1;
nodes = (
"1580 565 LINE",
"1393 565 LINE",
"1393 -60 LINE",
"1018 -60 LINE",
"1018 440 LINE",
"643 440 LINE",
"643 -60 LINE",
"268 -60 LINE",
"268 565 LINE",
"80 565 LINE",
"830 1440 LINE"
);
}
);
width = 1660;
}
);
leftKerningGroup = 10;
rightKerningGroup = 10;
unicode = F144;
},
{
glyphname = uniF147;
lastChange = "2014-08-26 21:31:26 -0600";
layers = (
{
layerId = "888C22D7-38C6-439F-A69E-1A09249D6A03";
name = Regular;
paths = (
{
closed = 1;
nodes = (
"1289 814 OFFCURVE",
"1249 797 OFFCURVE",
"1205 797 CURVE SMOOTH",
"1161 797 OFFCURVE",
"1121 814 OFFCURVE",
"1091 844 CURVE SMOOTH",
"1061 874 OFFCURVE",
"1044 914 OFFCURVE",
"1044 958 CURVE SMOOTH",
"1044 1001 OFFCURVE",
"1061 1042 OFFCURVE",
"1091 1072 CURVE SMOOTH",
"1121 1102 OFFCURVE",
"1161 1119 OFFCURVE",
"1205 1119 CURVE SMOOTH",
"1249 1119 OFFCURVE",
"1289 1102 OFFCURVE",
"1319 1072 CURVE SMOOTH",
"1349 1042 OFFCURVE",
"1366 1001 OFFCURVE",
"1366 958 CURVE SMOOTH",
"1366 914 OFFCURVE",
"1349 874 OFFCURVE",
"1319 844 CURVE SMOOTH"
);
},
{
closed = 1;
nodes = (
"1486 1333 LINE SMOOTH",
"1513 1333 OFFCURVE",
"1536 1323 OFFCURVE",
"1553 1306 CURVE SMOOTH",
"1570 1289 OFFCURVE",
"1580 1266 OFFCURVE",
"1580 1239 CURVE SMOOTH",
"1580 141 LINE SMOOTH",
"1580 114 OFFCURVE",
"1570 91 OFFCURVE",
"1553 74 CURVE SMOOTH",
"1536 57 OFFCURVE",
"1513 47 OFFCURVE",
"1486 47 CURVE SMOOTH",
"174 47 LINE SMOOTH",
"147 47 OFFCURVE",
"124 57 OFFCURVE",
"107 74 CURVE SMOOTH",
"90 91 OFFCURVE",
"80 114 OFFCURVE",
"80 141 CURVE SMOOTH",
"80 1239 LINE SMOOTH",
"80 1266 OFFCURVE",
"90 1289 OFFCURVE",
"107 1306 CURVE SMOOTH",
"124 1323 OFFCURVE",
"147 1333 OFFCURVE",
"174 1333 CURVE SMOOTH"
);
},
{
closed = 1;
nodes = (
"1473 315 LINE",
"1473 1186 LINE SMOOTH",
"1473 1212 OFFCURVE",
"1459 1226 OFFCURVE",
"1429 1226 CURVE SMOOTH",
"231 1226 LINE SMOOTH",
"207 1226 OFFCURVE",
"190 1212 OFFCURVE",
"187 1186 CURVE",
"187 315 LINE",
"609 824 LINE",
"626 841 OFFCURVE",
"646 851 OFFCURVE",
"666 851 CURVE SMOOTH",
"689 851 OFFCURVE",
"709 844 OFFCURVE",
"723 827 CURVE",
"904 630 LINE",
"917 616 LINE",
"930 606 OFFCURVE",
"944 603 OFFCURVE",
"954 603 CURVE SMOOTH",
"964 603 OFFCURVE",
"977 610 OFFCURVE",
"994 620 CURVE",
"1054 673 LINE",
"1071 683 OFFCURVE",
"1084 690 OFFCURVE",
"1098 690 CURVE SMOOTH",
"1115 690 OFFCURVE",
"1131 683 OFFCURVE",
"1141 670 CURVE"
);
}
);
width = 1660;
}
);
leftKerningGroup = 10;
rightKerningGroup = 10;
unicode = F147;
},
{
glyphname = uniF148;
lastChange = "2014-08-26 21:31:26 -0600";
layers = (
{
layerId = "888C22D7-38C6-439F-A69E-1A09249D6A03";
name = Regular;
paths = (
{
closed = 1;
nodes = (
"1501 1077 LINE",
"1524 1073 OFFCURVE",
"1541 1067 OFFCURVE",
"1557 1050 CURVE",
"1571 1033 OFFCURVE",
"1577 1017 OFFCURVE",
"1574 997 CURVE",
"1527 120 LINE",
"1524 97 OFFCURVE",
"1517 80 OFFCURVE",
"1501 67 CURVE SMOOTH",
"1484 53 OFFCURVE",
"1467 47 OFFCURVE",
"1444 50 CURVE",
"344 103 LINE",
"321 107 OFFCURVE",
"304 113 OFFCURVE",
"291 127 CURVE",
"274 140 OFFCURVE",
"267 157 OFFCURVE",
"271 180 CURVE",
"277 333 LINE",
"227 330 LINE",
"207 327 OFFCURVE",
"191 333 OFFCURVE",
"177 347 CURVE",
"161 357 OFFCURVE",
"154 373 OFFCURVE",
"151 390 CURVE",
"81 1177 LINE",
"77 1193 OFFCURVE",
"84 1210 OFFCURVE",
"97 1227 CURVE SMOOTH",
"107 1240 OFFCURVE",
"124 1247 OFFCURVE",
"144 1250 CURVE",
"1131 1330 LINE",
"1151 1333 OFFCURVE",
"1167 1327 OFFCURVE",
"1184 1317 CURVE",
"1197 1303 OFFCURVE",
"1204 1287 OFFCURVE",
"1207 1270 CURVE",
"1224 1090 LINE"
);
},
{
closed = 1;
nodes = (
"317 1057 LINE",
"321 1077 OFFCURVE",
"327 1093 OFFCURVE",
"344 1110 CURVE SMOOTH",
"357 1123 OFFCURVE",
"374 1130 OFFCURVE",
"397 1130 CURVE",
"1127 1093 LINE",
"1121 1197 LINE",
"1117 1197 LINE",
"1117 1200 LINE",
"1114 1217 OFFCURVE",
"1101 1227 OFFCURVE",
"1084 1227 CURVE",
"214 1153 LINE",
"191 1153 OFFCURVE",
"181 1143 OFFCURVE",
"181 1123 CURVE SMOOTH",
"181 1120 LINE",
"234 527 LINE",
"294 610 LINE"
);
},
{
closed = 1;
nodes = (
"1431 270 LINE",
"1464 930 LINE",
"1464 933 LINE SMOOTH",
"1464 957 OFFCURVE",
"1451 967 OFFCURVE",
"1427 967 CURVE",
"1234 977 LINE",
"1137 983 LINE",
"457 1013 LINE",
"434 1013 OFFCURVE",
"421 1003 OFFCURVE",
"417 983 CURVE",
"417 980 LINE",
"407 770 LINE",
"384 343 LINE",
"384 320 LINE",
"404 343 LINE",
"744 707 LINE SMOOTH",
"757 720 OFFCURVE",
"774 727 OFFCURVE",
"791 727 CURVE SMOOTH",
"811 727 OFFCURVE",
"827 720 OFFCURVE",
"837 703 CURVE",
"981 540 LINE",
"991 530 LINE SMOOTH",
"1001 520 OFFCURVE",
"1011 517 OFFCURVE",
"1024 517 CURVE SMOOTH",
"1031 517 OFFCURVE",
"1041 520 OFFCURVE",
"1054 527 CURVE",
"1111 567 LINE",
"1121 577 OFFCURVE",
"1134 580 OFFCURVE",
"1147 580 CURVE SMOOTH",
"1164 580 OFFCURVE",
"1177 573 OFFCURVE",
"1184 563 CURVE",
"1274 453 LINE"
);
},
{
closed = 1;
nodes = (
"1184 670 OFFCURVE",
"1157 680 OFFCURVE",
"1134 703 CURVE SMOOTH",
"1111 727 OFFCURVE",
"1101 753 OFFCURVE",
"1101 787 CURVE SMOOTH",
"1101 820 OFFCURVE",
"1114 847 OFFCURVE",
"1137 870 CURVE SMOOTH",
"1161 893 OFFCURVE",
"1187 903 OFFCURVE",
"1217 903 CURVE SMOOTH",
"1251 903 OFFCURVE",
"1277 893 OFFCURVE",
"1301 870 CURVE SMOOTH",
"1324 847 OFFCURVE",
"1334 817 OFFCURVE",
"1334 787 CURVE SMOOTH",
"1334 757 OFFCURVE",
"1324 730 OFFCURVE",
"1301 707 CURVE SMOOTH",
"1277 683 OFFCURVE",
"1247 670 OFFCURVE",
"1217 670 CURVE SMOOTH"
);
}
);
width = 1654.75;
}
);
leftKerningGroup = 10;
rightKerningGroup = 10;
unicode = F148;
},
{
glyphname = uniF149;
lastChange = "2014-08-26 21:31:26 -0600";
layers = (
{
layerId = "888C22D7-38C6-439F-A69E-1A09249D6A03";
name = Regular;
paths = (
{
closed = 1;
nodes = (
"1576 493 OFFCURVE",
"1506 317 OFFCURVE",
"1363 170 CURVE SMOOTH",
"1220 23 OFFCURVE",
"1043 -53 OFFCURVE",
"836 -57 CURVE SMOOTH",
"630 -60 OFFCURVE",
"453 13 OFFCURVE",
"306 157 CURVE SMOOTH",
"160 300 OFFCURVE",
"83 473 OFFCURVE",
"80 680 CURVE SMOOTH",
"76 887 OFFCURVE",
"150 1063 OFFCURVE",
"293 1210 CURVE SMOOTH",
"436 1357 OFFCURVE",
"610 1433 OFFCURVE",
"816 1437 CURVE SMOOTH",
"1023 1440 OFFCURVE",
"1200 1370 OFFCURVE",
"1346 1227 CURVE SMOOTH",
"1493 1083 OFFCURVE",
"1570 907 OFFCURVE",
"1573 700 CURVE SMOOTH"
);
},
{
closed = 1;
nodes = (
"883 1160 OFFCURVE",
"856 1170 OFFCURVE",
"826 1170 CURVE SMOOTH",
"796 1170 OFFCURVE",
"770 1160 OFFCURVE",
"750 1140 CURVE SMOOTH",
"730 1120 OFFCURVE",
"720 1093 OFFCURVE",
"720 1063 CURVE SMOOTH",
"720 1033 OFFCURVE",
"730 1007 OFFCURVE",
"750 987 CURVE SMOOTH",
"770 967 OFFCURVE",
"796 957 OFFCURVE",
"826 957 CURVE SMOOTH",
"856 957 OFFCURVE",
"883 967 OFFCURVE",
"903 987 CURVE SMOOTH",
"923 1007 OFFCURVE",
"933 1033 OFFCURVE",
"933 1063 CURVE SMOOTH",
"933 1093 OFFCURVE",
"923 1120 OFFCURVE",
"903 1140 CURVE SMOOTH"
);
},
{
closed = 1;
nodes = (
"920 227 LINE",
"919 263 LINE",
"919 263 LINE",
"919 837 LINE",
"730 837 LINE",
"735 797 LINE",
"735 797 LINE",
"735 263 LINE",
"735 263 LINE",
"735 227 LINE"
);
}
);
width = 1653.09;
}
);
leftKerningGroup = 10;
rightKerningGroup = 10;
unicode = F149;
},
{
glyphname = uniF15F;
lastChange = "2014-08-26 21:31:26 -0600";
layers = (
{
layerId = "888C22D7-38C6-439F-A69E-1A09249D6A03";
name = Regular;
paths = (
{
closed = 1;
nodes = (
"155 15 LINE",
"155 915 LINE",
"1505 915 LINE",
"1505 15 LINE"
);
},
{
closed = 1;
nodes = (
"680 765 LINE SMOOTH",
"628 765 OFFCURVE",
"605 742 OFFCURVE",
"605 690 CURVE SMOOTH",
"605 638 OFFCURVE",
"628 615 OFFCURVE",
"680 615 CURVE SMOOTH",
"980 615 LINE SMOOTH",
"1032 615 OFFCURVE",
"1055 638 OFFCURVE",
"1055 690 CURVE SMOOTH",
"1055 742 OFFCURVE",
"1032 765 OFFCURVE",
"980 765 CURVE SMOOTH"
);
},
{
closed = 1;
nodes = (
"80 1365 LINE",
"1580 1365 LINE",
"1580 990 LINE",
"1505 990 LINE",
"155 990 LINE",
"80 990 LINE"
);
}
);
width = 1660;
}
);
leftKerningGroup = 10;
rightKerningGroup = 10;
unicode = F15F;
},
{
glyphname = uniF169;
lastChange = "2014-08-26 21:31:26 -0600";
layers = (
{
layerId = "888C22D7-38C6-439F-A69E-1A09249D6A03";
name = Regular;
paths = (
{
closed = 1;
nodes = (
"1118 1440 LINE",
"1118 1036 LINE",
"484 1036 LINE",
"484 632 LINE",
"80 632 LINE",
"80 1440 LINE"
);
},
{
closed = 1;
nodes = (
"542 978 LINE",
"1580 978 LINE",
"1580 171 LINE",
"1407 171 LINE",
"1407 -60 LINE",
"1360 -60 LINE",
"1129 171 LINE",
"542 171 LINE"
);
}
);
width = 1660;
}
);
leftKerningGroup = 10;
rightKerningGroup = 10;
unicode = F169;
},
{
glyphname = uniF16B;
lastChange = "2014-08-26 21:31:26 -0600";
layers = (
{
layerId = "888C22D7-38C6-439F-A69E-1A09249D6A03";
name = Regular;
paths = (
{
closed = 1;
nodes = (
"1580 549 OFFCURVE",
"1510 413 OFFCURVE",
"1365 299 CURVE SMOOTH",
"1221 186 OFFCURVE",
"1041 128 OFFCURVE",
"834 128 CURVE SMOOTH",
"721 128 OFFCURVE",
"623 143 OFFCURVE",
"541 170 CURVE",
"533 170 LINE",
"518 174 OFFCURVE",
"506 178 OFFCURVE",
"494 178 CURVE SMOOTH",
"478 178 OFFCURVE",
"463 174 OFFCURVE",
"447 170 CURVE",
"451 170 LINE",
"447 170 LINE SMOOTH",
"443 170 OFFCURVE",
"435 167 OFFCURVE",
"424 163 CURVE",
"408 155 LINE",
"213 69 LINE",
"205 65 LINE",
"193 65 LINE",
"182 65 LINE",
"158 69 OFFCURVE",
"150 85 OFFCURVE",
"154 104 CURVE",
"197 253 OFFCURVE",
"221 327 OFFCURVE",
"221 331 CURVE SMOOTH",
"221 346 OFFCURVE",
"217 362 OFFCURVE",
"209 374 CURVE",
"209 374 LINE",
"213 370 LINE",
"197 385 LINE",
"119 483 OFFCURVE",
"80 592 OFFCURVE",
"80 713 CURVE SMOOTH",
"80 881 OFFCURVE",
"154 1022 OFFCURVE",
"303 1139 CURVE SMOOTH",
"447 1256 OFFCURVE",
"623 1315 OFFCURVE",
"830 1315 CURVE SMOOTH",
"1037 1315 OFFCURVE",
"1213 1256 OFFCURVE",
"1361 1139 CURVE SMOOTH",
"1506 1022 OFFCURVE",
"1580 881 OFFCURVE",
"1580 713 CURVE SMOOTH"
);
}
);
width = 1660;
}
);
leftKerningGroup = 10;
rightKerningGroup = 10;
unicode = F16B;
},
{
glyphname = uniF17F;
lastChange = "2014-08-26 21:31:26 -0600";
layers = (
{
layerId = "888C22D7-38C6-439F-A69E-1A09249D6A03";
name = Regular;
paths = (
{
closed = 1;
nodes = (
"448 1368 OFFCURVE",
"624 1440 OFFCURVE",
"830 1440 CURVE SMOOTH",
"1036 1440 OFFCURVE",
"1212 1368 OFFCURVE",
"1360 1220 CURVE SMOOTH",
"1508 1072 OFFCURVE",
"1580 896 OFFCURVE",
"1580 690 CURVE SMOOTH",
"1580 484 OFFCURVE",
"1508 308 OFFCURVE",
"1360 160 CURVE SMOOTH",
"1212 12 OFFCURVE",
"1036 -60 OFFCURVE",
"830 -60 CURVE SMOOTH",
"624 -60 OFFCURVE",
"448 12 OFFCURVE",
"300 160 CURVE SMOOTH",
"152 308 OFFCURVE",
"80 484 OFFCURVE",
"80 690 CURVE SMOOTH",
"80 896 OFFCURVE",
"152 1072 OFFCURVE",
"300 1220 CURVE SMOOTH"
);
},
{
closed = 1;
nodes = (
"141 524 OFFCURVE",
"195 376 OFFCURVE",
"304 250 CURVE",
"401 293 OFFCURVE",
"509 333 OFFCURVE",
"628 365 CURVE",
"635 369 OFFCURVE",
"639 384 OFFCURVE",
"639 402 CURVE SMOOTH",
"639 441 OFFCURVE",
"635 470 OFFCURVE",
"624 488 CURVE",
"614 513 OFFCURVE",
"603 553 OFFCURVE",
"592 600 CURVE",
"570 629 OFFCURVE",
"552 668 OFFCURVE",
"542 719 CURVE SMOOTH",
"534 759 OFFCURVE",
"534 791 OFFCURVE",
"545 820 CURVE",
"545 827 LINE",
"552 852 OFFCURVE",
"549 896 OFFCURVE",
"534 964 CURVE SMOOTH",
"524 1025 OFFCURVE",
"542 1090 OFFCURVE",
"588 1152 CURVE SMOOTH",
"635 1213 OFFCURVE",
"704 1245 OFFCURVE",
"798 1253 CURVE",
"862 1253 LINE",
"956 1249 OFFCURVE",
"1025 1213 OFFCURVE",
"1072 1152 CURVE SMOOTH",
"1118 1090 OFFCURVE",
"1136 1025 OFFCURVE",
"1126 964 CURVE SMOOTH",
"1111 896 OFFCURVE",
"1108 852 OFFCURVE",
"1115 827 CURVE",
"1118 823 OFFCURVE",
"1118 823 OFFCURVE",
"1118 820 CURVE",
"1126 795 OFFCURVE",
"1126 762 OFFCURVE",
"1118 719 CURVE",
"1108 672 OFFCURVE",
"1093 632 OFFCURVE",
"1068 603 CURVE",
"1057 549 OFFCURVE",
"1046 513 OFFCURVE",
"1036 488 CURVE SMOOTH",
"1021 456 OFFCURVE",
"1014 427 OFFCURVE",
"1014 405 CURVE SMOOTH",
"1014 380 OFFCURVE",
"1018 369 OFFCURVE",
"1021 365 CURVE",
"1140 329 OFFCURVE",
"1252 290 OFFCURVE",
"1356 250 CURVE",
"1465 376 OFFCURVE",
"1519 524 OFFCURVE",
"1519 690 CURVE SMOOTH",
"1519 881 OFFCURVE",
"1450 1043 OFFCURVE",
"1317 1177 CURVE SMOOTH",
"1183 1310 OFFCURVE",
"1021 1379 OFFCURVE",
"830 1379 CURVE SMOOTH",
"639 1379 OFFCURVE",
"477 1310 OFFCURVE",
"343 1177 CURVE SMOOTH",
"210 1043 OFFCURVE",
"141 881 OFFCURVE",
"141 690 CURVE SMOOTH"
);
}
);
width = 1660;
}
);
leftKerningGroup = 10;
rightKerningGroup = 10;
unicode = F17F;
},
{
glyphname = uniF180;
lastChange = "2014-08-26 21:31:26 -0600";
layers = (
{
layerId = "888C22D7-38C6-439F-A69E-1A09249D6A03";
name = Regular;
paths = (
{
closed = 1;
nodes = (
"448 1368 OFFCURVE",
"624 1440 OFFCURVE",
"830 1440 CURVE SMOOTH",
"1036 1440 OFFCURVE",
"1212 1368 OFFCURVE",
"1360 1220 CURVE SMOOTH",
"1508 1072 OFFCURVE",
"1580 896 OFFCURVE",
"1580 690 CURVE SMOOTH",
"1580 484 OFFCURVE",
"1508 308 OFFCURVE",
"1360 160 CURVE SMOOTH",
"1212 12 OFFCURVE",
"1036 -60 OFFCURVE",
"830 -60 CURVE SMOOTH",
"624 -60 OFFCURVE",
"448 12 OFFCURVE",
"300 160 CURVE SMOOTH",
"152 308 OFFCURVE",
"80 484 OFFCURVE",
"80 690 CURVE SMOOTH",
"80 896 OFFCURVE",
"152 1072 OFFCURVE",
"300 1220 CURVE SMOOTH"
);
},
{
closed = 1;
nodes = (
"1043 1 OFFCURVE",
"1216 84 OFFCURVE",
"1356 250 CURVE",
"1252 290 OFFCURVE",
"1140 329 OFFCURVE",
"1021 365 CURVE",
"1014 369 OFFCURVE",
"1010 384 OFFCURVE",
"1010 405 CURVE SMOOTH",
"1010 423 OFFCURVE",
"1018 448 OFFCURVE",
"1036 488 CURVE SMOOTH",
"1046 513 OFFCURVE",
"1057 549 OFFCURVE",
"1068 603 CURVE",
"1093 632 OFFCURVE",
"1108 672 OFFCURVE",
"1118 719 CURVE",
"1126 762 OFFCURVE",
"1126 795 OFFCURVE",
"1118 820 CURVE",
"1115 823 OFFCURVE",
"1115 823 OFFCURVE",
"1115 827 CURVE",
"1108 852 OFFCURVE",
"1111 896 OFFCURVE",
"1126 964 CURVE SMOOTH",
"1136 1025 OFFCURVE",
"1118 1090 OFFCURVE",
"1072 1152 CURVE SMOOTH",
"1025 1213 OFFCURVE",
"956 1249 OFFCURVE",
"862 1253 CURVE",
"798 1253 LINE",
"704 1245 OFFCURVE",
"635 1213 OFFCURVE",
"588 1152 CURVE SMOOTH",
"542 1090 OFFCURVE",
"524 1025 OFFCURVE",
"534 964 CURVE SMOOTH",
"549 896 OFFCURVE",
"552 852 OFFCURVE",
"545 827 CURVE",
"545 820 LINE",
"534 791 OFFCURVE",
"534 759 OFFCURVE",
"542 719 CURVE SMOOTH",
"552 668 OFFCURVE",
"570 629 OFFCURVE",
"592 600 CURVE",
"603 553 OFFCURVE",
"614 513 OFFCURVE",
"624 488 CURVE",
"635 470 OFFCURVE",
"639 441 OFFCURVE",
"639 402 CURVE SMOOTH",
"639 384 OFFCURVE",
"635 369 OFFCURVE",
"628 365 CURVE",
"509 333 OFFCURVE",
"401 293 OFFCURVE",
"304 250 CURVE",
"441 84 OFFCURVE",
"617 1 OFFCURVE",
"830 1 CURVE SMOOTH"
);
}
);
width = 1660;
}
);
leftKerningGroup = 10;
rightKerningGroup = 10;
unicode = F180;
},
{
glyphname = uniF18B;
lastChange = "2014-08-26 21:31:26 -0600";
layers = (
{
layerId = "888C22D7-38C6-439F-A69E-1A09249D6A03";
name = Regular;
paths = (
{
closed = 1;
nodes = (
"830 1119 LINE",
"1580 690 LINE",
"830 261 LINE",
"830 673 LINE",
"80 261 LINE",
"80 1119 LINE",
"830 707 LINE"
);
}
);
width = 1660;
}
);
leftKerningGroup = 10;
rightKerningGroup = 10;
unicode = F18B;
},
{
glyphname = uniF195;
lastChange = "2014-08-26 21:31:26 -0600";
layers = (
{
layerId = "888C22D7-38C6-439F-A69E-1A09249D6A03";
name = Regular;
paths = (
{
closed = 1;
nodes = (
"1486 846 LINE SMOOTH",
"1514 846 OFFCURVE",
"1533 838 OFFCURVE",
"1553 819 CURVE SMOOTH",
"1572 799 OFFCURVE",
"1580 776 OFFCURVE",
"1580 749 CURVE SMOOTH",
"1580 690 LINE",
"1580 631 LINE SMOOTH",
"1580 604 OFFCURVE",
"1572 581 OFFCURVE",
"1553 561 CURVE SMOOTH",
"1533 542 OFFCURVE",
"1514 534 OFFCURVE",
"1486 534 CURVE SMOOTH",
"1428 534 LINE SMOOTH",
"1404 534 OFFCURVE",
"1385 526 OFFCURVE",
"1365 510 CURVE",
"1346 491 OFFCURVE",
"1338 471 OFFCURVE",
"1338 444 CURVE SMOOTH",
"1338 417 OFFCURVE",
"1350 393 OFFCURVE",
"1369 378 CURVE",
"1408 342 LINE",
"1428 323 OFFCURVE",
"1439 303 OFFCURVE",
"1439 276 CURVE SMOOTH",
"1439 249 OFFCURVE",
"1428 225 OFFCURVE",
"1408 206 CURVE SMOOTH",
"1318 120 LINE SMOOTH",
"1299 100 OFFCURVE",
"1279 92 OFFCURVE",
"1252 92 CURVE SMOOTH",
"1225 92 OFFCURVE",
"1201 100 OFFCURVE",
"1182 120 CURVE SMOOTH",
"1146 155 LINE SMOOTH",
"1127 174 OFFCURVE",
"1103 186 OFFCURVE",
"1080 186 CURVE SMOOTH",
"1053 186 OFFCURVE",
"1033 178 OFFCURVE",
"1014 159 CURVE SMOOTH",
"994 139 OFFCURVE",
"986 120 OFFCURVE",
"986 96 CURVE SMOOTH",
"986 38 LINE SMOOTH",
"986 10 OFFCURVE",
"978 -13 OFFCURVE",
"959 -33 CURVE SMOOTH",
"939 -52 OFFCURVE",
"920 -60 OFFCURVE",
"893 -60 CURVE SMOOTH",
"775 -60 LINE SMOOTH",
"748 -60 OFFCURVE",
"728 -52 OFFCURVE",
"709 -33 CURVE SMOOTH",
"689 -13 OFFCURVE",
"678 10 OFFCURVE",
"678 38 CURVE SMOOTH",
"678 96 LINE SMOOTH",
"678 120 OFFCURVE",
"670 139 OFFCURVE",
"654 159 CURVE",
"635 178 OFFCURVE",
"615 186 OFFCURVE",
"588 186 CURVE SMOOTH",
"560 186 OFFCURVE",
"537 178 OFFCURVE",
"521 159 CURVE",
"482 120 LINE SMOOTH",
"463 100 OFFCURVE",
"443 92 OFFCURVE",
"416 92 CURVE SMOOTH",
"389 92 OFFCURVE",
"365 100 OFFCURVE",
"346 120 CURVE SMOOTH",
"260 206 LINE SMOOTH",
"240 225 OFFCURVE",
"228 249 OFFCURVE",
"228 276 CURVE SMOOTH",
"228 303 OFFCURVE",
"240 323 OFFCURVE",
"260 342 CURVE SMOOTH",
"295 378 LINE",
"314 393 OFFCURVE",
"326 417 OFFCURVE",
"326 444 CURVE SMOOTH",
"326 471 OFFCURVE",
"318 491 OFFCURVE",
"299 510 CURVE",
"279 526 OFFCURVE",
"260 534 OFFCURVE",
"236 534 CURVE SMOOTH",
"178 534 LINE SMOOTH",
"150 534 OFFCURVE",
"127 542 OFFCURVE",
"107 561 CURVE SMOOTH",
"88 581 OFFCURVE",
"80 604 OFFCURVE",
"80 631 CURVE SMOOTH",
"80 690 LINE",
"80 749 LINE SMOOTH",
"80 776 OFFCURVE",
"88 799 OFFCURVE",
"107 819 CURVE SMOOTH",
"127 838 OFFCURVE",
"150 846 OFFCURVE",
"178 846 CURVE SMOOTH",
"236 846 LINE SMOOTH",
"260 846 OFFCURVE",
"279 854 OFFCURVE",
"299 874 CURVE",
"318 889 OFFCURVE",
"326 909 OFFCURVE",
"326 936 CURVE SMOOTH",
"326 963 OFFCURVE",
"314 987 OFFCURVE",
"295 1003 CURVE",
"260 1038 LINE SMOOTH",
"240 1057 OFFCURVE",
"228 1077 OFFCURVE",
"228 1104 CURVE SMOOTH",
"228 1131 OFFCURVE",
"240 1155 OFFCURVE",
"260 1174 CURVE SMOOTH",
"346 1260 LINE SMOOTH",
"365 1280 OFFCURVE",
"389 1288 OFFCURVE",
"416 1288 CURVE SMOOTH",
"443 1288 OFFCURVE",
"467 1280 OFFCURVE",
"486 1260 CURVE",
"521 1221 LINE",
"537 1202 OFFCURVE",
"560 1194 OFFCURVE",
"588 1194 CURVE SMOOTH",
"615 1194 OFFCURVE",
"635 1202 OFFCURVE",
"654 1221 CURVE",
"670 1241 OFFCURVE",
"678 1260 OFFCURVE",
"678 1284 CURVE SMOOTH",
"678 1342 LINE SMOOTH",
"678 1370 OFFCURVE",
"689 1393 OFFCURVE",
"709 1413 CURVE SMOOTH",
"728 1432 OFFCURVE",
"748 1440 OFFCURVE",
"775 1440 CURVE SMOOTH",
"893 1440 LINE SMOOTH",
"920 1440 OFFCURVE",
"943 1432 OFFCURVE",
"963 1413 CURVE SMOOTH",
"982 1393 OFFCURVE",
"990 1370 OFFCURVE",
"990 1342 CURVE SMOOTH",
"990 1284 LINE SMOOTH",
"990 1260 OFFCURVE",
"998 1241 OFFCURVE",
"1018 1221 CURVE",
"1033 1202 OFFCURVE",
"1053 1194 OFFCURVE",
"1080 1194 CURVE SMOOTH",
"1107 1194 OFFCURVE",
"1131 1206 OFFCURVE",
"1146 1225 CURVE",
"1182 1260 LINE SMOOTH",
"1201 1280 OFFCURVE",
"1225 1288 OFFCURVE",
"1252 1288 CURVE SMOOTH",
"1279 1288 OFFCURVE",
"1303 1280 OFFCURVE",
"1322 1260 CURVE SMOOTH",
"1408 1174 LINE SMOOTH",
"1428 1155 OFFCURVE",
"1439 1131 OFFCURVE",
"1439 1104 CURVE SMOOTH",
"1439 1077 OFFCURVE",
"1428 1057 OFFCURVE",
"1408 1038 CURVE SMOOTH",
"1369 999 LINE",
"1350 983 OFFCURVE",
"1338 963 OFFCURVE",
"1338 936 CURVE SMOOTH",
"1338 909 OFFCURVE",
"1346 889 OFFCURVE",
"1365 874 CURVE",
"1385 854 OFFCURVE",
"1404 846 OFFCURVE",
"1428 846 CURVE SMOOTH"
);
},
{
closed = 1;
nodes = (
"521 690 LINE",
"521 604 OFFCURVE",
"553 530 OFFCURVE",
"615 471 CURVE",
"674 409 OFFCURVE",
"748 378 OFFCURVE",
"834 378 CURVE SMOOTH",
"920 378 OFFCURVE",
"994 409 OFFCURVE",
"1057 471 CURVE SMOOTH",
"1115 530 OFFCURVE",
"1146 604 OFFCURVE",
"1146 690 CURVE SMOOTH",
"1146 776 OFFCURVE",
"1115 850 OFFCURVE",
"1057 913 CURVE",
"994 971 OFFCURVE",
"920 1003 OFFCURVE",
"834 1003 CURVE SMOOTH",
"748 1003 OFFCURVE",
"674 971 OFFCURVE",
"615 913 CURVE SMOOTH",
"553 850 OFFCURVE",
"521 776 OFFCURVE",
"521 690 CURVE"
);
}
);
width = 1660;
}
);
leftKerningGroup = 10;
rightKerningGroup = 10;
unicode = F195;
},
{
glyphname = uniF1A4;
lastChange = "2014-08-26 21:31:26 -0600";
layers = (
{
layerId = "888C22D7-38C6-439F-A69E-1A09249D6A03";
name = Regular;
paths = (
{
closed = 1;
nodes = (
"1432 358 OFFCURVE",
"1478 338 OFFCURVE",
"1521 299 CURVE",
"1560 256 OFFCURVE",
"1580 206 OFFCURVE",
"1580 147 CURVE SMOOTH",
"1580 88 OFFCURVE",
"1560 38 OFFCURVE",
"1521 -1 CURVE SMOOTH",
"1482 -40 OFFCURVE",
"1432 -60 OFFCURVE",
"1373 -60 CURVE SMOOTH",
"1314 -60 OFFCURVE",
"1264 -40 OFFCURVE",
"1225 3 CURVE",
"1182 42 OFFCURVE",
"1162 88 OFFCURVE",
"1162 147 CURVE SMOOTH",
"1162 206 OFFCURVE",
"1182 256 OFFCURVE",
"1225 299 CURVE SMOOTH",
"1264 338 OFFCURVE",
"1314 358 OFFCURVE",
"1373 358 CURVE SMOOTH"
);
},
{
closed = 1;
nodes = (
"725 338 OFFCURVE",
"771 358 OFFCURVE",
"830 358 CURVE SMOOTH",
"889 358 OFFCURVE",
"935 338 OFFCURVE",
"978 299 CURVE",
"1018 256 OFFCURVE",
"1037 206 OFFCURVE",
"1037 147 CURVE SMOOTH",
"1037 88 OFFCURVE",
"1018 38 OFFCURVE",
"978 -1 CURVE",
"935 -40 OFFCURVE",
"889 -60 OFFCURVE",
"830 -60 CURVE SMOOTH",
"771 -60 OFFCURVE",
"725 -40 OFFCURVE",
"685 -1 CURVE",
"643 38 OFFCURVE",
"623 88 OFFCURVE",
"623 147 CURVE SMOOTH",
"623 206 OFFCURVE",
"643 256 OFFCURVE",
"685 299 CURVE SMOOTH"
);
},
{
closed = 1;
nodes = (
"346 358 OFFCURVE",
"396 338 OFFCURVE",
"439 299 CURVE",
"478 256 OFFCURVE",
"498 206 OFFCURVE",
"498 147 CURVE SMOOTH",
"498 88 OFFCURVE",
"478 42 OFFCURVE",
"439 3 CURVE SMOOTH",
"396 -40 OFFCURVE",
"346 -60 OFFCURVE",
"287 -60 CURVE SMOOTH",
"228 -60 OFFCURVE",
"178 -40 OFFCURVE",
"139 -1 CURVE SMOOTH",
"100 38 OFFCURVE",
"80 88 OFFCURVE",
"80 147 CURVE SMOOTH",
"80 206 OFFCURVE",
"100 256 OFFCURVE",
"143 299 CURVE SMOOTH",
"182 338 OFFCURVE",
"228 358 OFFCURVE",
"287 358 CURVE SMOOTH"
);
},
{
closed = 1;
nodes = (
"1264 878 OFFCURVE",
"1314 897 OFFCURVE",
"1373 897 CURVE SMOOTH",
"1432 897 OFFCURVE",
"1482 878 OFFCURVE",
"1521 838 CURVE",
"1560 795 OFFCURVE",
"1580 749 OFFCURVE",
"1580 690 CURVE SMOOTH",
"1580 631 OFFCURVE",
"1560 585 OFFCURVE",
"1521 545 CURVE",
"1482 503 OFFCURVE",
"1432 483 OFFCURVE",
"1373 483 CURVE SMOOTH",
"1314 483 OFFCURVE",
"1264 503 OFFCURVE",
"1225 545 CURVE",
"1182 585 OFFCURVE",
"1162 631 OFFCURVE",
"1162 690 CURVE SMOOTH",
"1162 749 OFFCURVE",
"1182 795 OFFCURVE",
"1225 838 CURVE SMOOTH"
);
},
{
closed = 1;
nodes = (
"725 878 OFFCURVE",
"771 897 OFFCURVE",
"830 897 CURVE SMOOTH",
"889 897 OFFCURVE",
"935 878 OFFCURVE",
"978 838 CURVE",
"1018 795 OFFCURVE",
"1037 749 OFFCURVE",
"1037 690 CURVE SMOOTH",
"1037 631 OFFCURVE",
"1018 585 OFFCURVE",
"978 545 CURVE SMOOTH",
"935 503 OFFCURVE",
"889 483 OFFCURVE",
"830 483 CURVE SMOOTH",
"771 483 OFFCURVE",
"725 503 OFFCURVE",
"685 545 CURVE",
"643 585 OFFCURVE",
"623 631 OFFCURVE",
"623 690 CURVE SMOOTH",
"623 749 OFFCURVE",
"643 795 OFFCURVE",
"685 838 CURVE SMOOTH"
);
},
{
closed = 1;
nodes = (
"178 878 OFFCURVE",
"228 897 OFFCURVE",
"287 897 CURVE SMOOTH",
"346 897 OFFCURVE",
"396 878 OFFCURVE",
"439 838 CURVE",
"478 795 OFFCURVE",
"498 749 OFFCURVE",
"498 690 CURVE SMOOTH",
"498 631 OFFCURVE",
"478 585 OFFCURVE",
"439 545 CURVE SMOOTH",
"396 503 OFFCURVE",
"346 483 OFFCURVE",
"287 483 CURVE SMOOTH",
"228 483 OFFCURVE",
"178 503 OFFCURVE",
"139 545 CURVE",
"100 585 OFFCURVE",
"80 631 OFFCURVE",
"80 690 CURVE SMOOTH",
"80 749 OFFCURVE",
"100 795 OFFCURVE",
"139 838 CURVE"
);
},
{
closed = 1;
nodes = (
"1314 1022 OFFCURVE",
"1264 1042 OFFCURVE",
"1225 1085 CURVE",
"1182 1124 OFFCURVE",
"1162 1174 OFFCURVE",
"1162 1233 CURVE SMOOTH",
"1162 1292 OFFCURVE",
"1182 1338 OFFCURVE",
"1225 1381 CURVE SMOOTH",
"1264 1420 OFFCURVE",
"1314 1440 OFFCURVE",
"1373 1440 CURVE SMOOTH",
"1432 1440 OFFCURVE",
"1482 1420 OFFCURVE",
"1521 1381 CURVE SMOOTH",
"1560 1342 OFFCURVE",
"1580 1292 OFFCURVE",
"1580 1233 CURVE SMOOTH",
"1580 1174 OFFCURVE",
"1560 1124 OFFCURVE",
"1521 1085 CURVE SMOOTH",
"1478 1042 OFFCURVE",
"1432 1022 OFFCURVE",
"1373 1022 CURVE SMOOTH"
);
},
{
closed = 1;
nodes = (
"725 1420 OFFCURVE",
"771 1440 OFFCURVE",
"830 1440 CURVE SMOOTH",
"889 1440 OFFCURVE",
"935 1420 OFFCURVE",
"978 1381 CURVE",
"1018 1342 OFFCURVE",
"1037 1292 OFFCURVE",
"1037 1233 CURVE SMOOTH",
"1037 1174 OFFCURVE",
"1018 1124 OFFCURVE",
"978 1085 CURVE SMOOTH",
"935 1042 OFFCURVE",
"889 1022 OFFCURVE",
"830 1022 CURVE SMOOTH",
"771 1022 OFFCURVE",
"725 1042 OFFCURVE",
"685 1085 CURVE",
"643 1124 OFFCURVE",
"623 1174 OFFCURVE",
"623 1233 CURVE SMOOTH",
"623 1292 OFFCURVE",
"643 1342 OFFCURVE",
"685 1381 CURVE"
);
},
{
closed = 1;
nodes = (
"498 1174 OFFCURVE",
"478 1124 OFFCURVE",
"439 1085 CURVE SMOOTH",
"396 1042 OFFCURVE",
"346 1022 OFFCURVE",
"287 1022 CURVE SMOOTH",
"228 1022 OFFCURVE",
"182 1042 OFFCURVE",
"143 1085 CURVE",
"100 1124 OFFCURVE",
"80 1174 OFFCURVE",
"80 1233 CURVE SMOOTH",
"80 1292 OFFCURVE",
"100 1342 OFFCURVE",
"139 1381 CURVE SMOOTH",
"178 1420 OFFCURVE",
"228 1440 OFFCURVE",
"287 1440 CURVE SMOOTH",
"346 1440 OFFCURVE",
"396 1420 OFFCURVE",
"439 1381 CURVE",
"478 1338 OFFCURVE",
"498 1292 OFFCURVE",
"498 1233 CURVE SMOOTH"
);
}
);
width = 1660;
}
);
leftKerningGroup = 10;
rightKerningGroup = 10;
unicode = F1A4;
},
{
glyphname = uniF1A6;
lastChange = "2014-08-26 21:31:26 -0600";
layers = (
{
layerId = "888C22D7-38C6-439F-A69E-1A09249D6A03";
name = Regular;
paths = (
{
closed = 1;
nodes = (
"978 938 OFFCURVE",
"968 881 OFFCURVE",
"947 827 CURVE",
"944 824 LINE",
"944 821 OFFCURVE",
"944 821 OFFCURVE",
"944 817 CURVE",
"941 811 LINE",
"937 807 LINE",
"529 -60 LINE",
"121 811 LINE",
"117 817 LINE",
"114 821 OFFCURVE",
"114 821 OFFCURVE",
"114 824 CURVE SMOOTH",
"114 827 LINE",
"90 888 OFFCURVE",
"80 944 OFFCURVE",
"80 995 CURVE SMOOTH",
"80 1118 OFFCURVE",
"124 1222 OFFCURVE",
"211 1309 CURVE SMOOTH",
"298 1396 OFFCURVE",
"405 1440 OFFCURVE",
"529 1440 CURVE SMOOTH",
"653 1440 OFFCURVE",
"760 1396 OFFCURVE",
"847 1309 CURVE SMOOTH",
"934 1222 OFFCURVE",
"978 1118 OFFCURVE",
"978 995 CURVE SMOOTH"
);
},
{
closed = 1;
nodes = (
"449 871 OFFCURVE",
"485 854 OFFCURVE",
"529 854 CURVE SMOOTH",
"573 854 OFFCURVE",
"613 871 OFFCURVE",
"643 901 CURVE SMOOTH",
"673 931 OFFCURVE",
"686 968 OFFCURVE",
"686 1011 CURVE SMOOTH",
"686 1055 OFFCURVE",
"673 1095 OFFCURVE",
"643 1125 CURVE SMOOTH",
"613 1155 OFFCURVE",
"573 1169 OFFCURVE",
"529 1169 CURVE SMOOTH",
"485 1169 OFFCURVE",
"449 1155 OFFCURVE",
"419 1125 CURVE SMOOTH",
"388 1095 OFFCURVE",
"372 1055 OFFCURVE",
"372 1011 CURVE SMOOTH",
"372 968 OFFCURVE",
"388 931 OFFCURVE",
"419 901 CURVE SMOOTH"
);
}
);
width = 1058;
}
);
leftKerningGroup = 10;
rightKerningGroup = 10;
unicode = F1A6;
},
{
glyphname = uniF1B6;
lastChange = "2014-08-26 21:31:26 -0600";
layers = (
{
layerId = "888C22D7-38C6-439F-A69E-1A09249D6A03";
name = Regular;
paths = (
{
closed = 1;
nodes = (
"1420 426 LINE SMOOTH",
"1420 288 OFFCURVE",
"1408 200 OFFCURVE",
"1378 158 CURVE SMOOTH",
"1345 112 OFFCURVE",
"1291 87 OFFCURVE",
"1215 82 CURVE SMOOTH",
"1043 74 OFFCURVE",
"955 133 OFFCURVE",
"955 254 CURVE SMOOTH",
"955 363 OFFCURVE",
"1027 422 OFFCURVE",
"1173 426 CURVE SMOOTH",
"1198 426 OFFCURVE",
"1223 426 OFFCURVE",
"1253 430 CURVE",
"1278 430 OFFCURVE",
"1299 430 OFFCURVE",
"1316 434 CURVE",
"1328 434 OFFCURVE",
"1341 434 OFFCURVE",
"1353 434 CURVE",
"1353 1105 LINE",
"553 971 LINE",
"553 296 LINE SMOOTH",
"553 292 OFFCURVE",
"553 284 OFFCURVE",
"553 275 CURVE SMOOTH",
"553 229 OFFCURVE",
"553 191 OFFCURVE",
"549 166 CURVE SMOOTH",
"545 137 OFFCURVE",
"541 103 OFFCURVE",
"528 66 CURVE SMOOTH",
"515 28 OFFCURVE",
"494 -1 OFFCURVE",
"465 -18 CURVE",
"436 -39 OFFCURVE",
"394 -47 OFFCURVE",
"344 -52 CURVE",
"168 -60 OFFCURVE",
"80 -1 OFFCURVE",
"80 124 CURVE SMOOTH",
"80 233 OFFCURVE",
"151 292 OFFCURVE",
"297 296 CURVE",
"360 300 OFFCURVE",
"423 300 OFFCURVE",
"482 300 CURVE",
"482 1293 LINE",
"1420 1440 LINE"
);
}
);
width = 1500;
}
);
leftKerningGroup = 10;
rightKerningGroup = 10;
unicode = F1B6;
},
{
glyphname = uniF1BE;
lastChange = "2014-08-26 21:31:26 -0600";
layers = (
{
layerId = "888C22D7-38C6-439F-A69E-1A09249D6A03";
name = Regular;
paths = (
{
closed = 1;
nodes = (
"80 261 LINE",
"80 1119 LINE",
"292 1119 LINE",
"292 261 LINE"
);
},
{
closed = 1;
nodes = (
"554 261 LINE",
"554 1119 LINE",
"766 1119 LINE",
"766 261 LINE"
);
}
);
width = 846;
}
);
leftKerningGroup = 10;
rightKerningGroup = 10;
unicode = F1BE;
},
{
glyphname = uniF1C0;
lastChange = "2014-08-26 21:31:26 -0600";
layers = (
{
layerId = "888C22D7-38C6-439F-A69E-1A09249D6A03";
name = Regular;
paths = (
{
closed = 1;
nodes = (
"1188 407 OFFCURVE",
"1225 377 OFFCURVE",
"1255 340 CURVE",
"1282 300 OFFCURVE",
"1295 256 OFFCURVE",
"1295 206 CURVE",
"1202 206 LINE",
"365 206 LINE",
"365 287 OFFCURVE",
"395 347 OFFCURVE",
"455 390 CURVE SMOOTH",
"478 407 OFFCURVE",
"532 424 OFFCURVE",
"619 444 CURVE",
"673 451 OFFCURVE",
"703 464 OFFCURVE",
"706 487 CURVE",
"709 497 OFFCURVE",
"709 521 OFFCURVE",
"709 564 CURVE SMOOTH",
"709 571 OFFCURVE",
"706 578 OFFCURVE",
"703 581 CURVE SMOOTH",
"693 591 OFFCURVE",
"686 605 OFFCURVE",
"676 628 CURVE",
"673 645 OFFCURVE",
"666 672 OFFCURVE",
"663 708 CURVE",
"653 705 OFFCURVE",
"646 708 OFFCURVE",
"643 718 CURVE",
"636 729 OFFCURVE",
"632 739 OFFCURVE",
"629 755 CURVE",
"626 769 OFFCURVE",
"622 775 OFFCURVE",
"622 779 CURVE",
"612 829 OFFCURVE",
"616 852 OFFCURVE",
"632 849 CURVE",
"626 859 OFFCURVE",
"619 879 OFFCURVE",
"616 913 CURVE SMOOTH",
"609 963 OFFCURVE",
"612 1006 OFFCURVE",
"626 1043 CURVE SMOOTH",
"643 1087 OFFCURVE",
"669 1117 OFFCURVE",
"709 1140 CURVE SMOOTH",
"750 1164 OFFCURVE",
"793 1174 OFFCURVE",
"840 1170 CURVE SMOOTH",
"884 1167 OFFCURVE",
"927 1154 OFFCURVE",
"964 1130 CURVE SMOOTH",
"1001 1107 OFFCURVE",
"1024 1073 OFFCURVE",
"1038 1030 CURVE SMOOTH",
"1048 1000 OFFCURVE",
"1051 956 OFFCURVE",
"1041 899 CURVE",
"1038 872 OFFCURVE",
"1031 856 OFFCURVE",
"1028 849 CURVE",
"1034 852 OFFCURVE",
"1041 849 OFFCURVE",
"1044 842 CURVE SMOOTH",
"1048 836 OFFCURVE",
"1048 829 OFFCURVE",
"1048 819 CURVE",
"1044 809 OFFCURVE",
"1044 799 OFFCURVE",
"1044 792 CURVE",
"1041 782 OFFCURVE",
"1041 775 OFFCURVE",
"1038 772 CURVE",
"1031 749 LINE",
"1028 732 OFFCURVE",
"1024 722 OFFCURVE",
"1021 715 CURVE",
"1014 708 OFFCURVE",
"1007 705 OFFCURVE",
"997 708 CURVE",
"994 658 OFFCURVE",
"984 625 OFFCURVE",
"974 605 CURVE",
"974 601 OFFCURVE",
"971 598 OFFCURVE",
"964 588 CURVE",
"954 578 OFFCURVE",
"951 574 OFFCURVE",
"951 571 CURVE SMOOTH",
"951 534 LINE SMOOTH",
"951 511 OFFCURVE",
"954 494 OFFCURVE",
"957 484 CURVE SMOOTH",
"961 474 OFFCURVE",
"977 464 OFFCURVE",
"1004 457 CURVE",
"1021 451 OFFCURVE",
"1044 444 OFFCURVE",
"1074 441 CURVE SMOOTH",
"1105 437 OFFCURVE",
"1125 431 OFFCURVE",
"1141 424 CURVE"
);
},
{
closed = 1;
nodes = (
"452 467 LINE",
"458 467 LINE",
"455 467 LINE"
);
},
{
closed = 1;
nodes = (
"422 451 OFFCURVE",
"395 427 OFFCURVE",
"371 404 CURVE",
"361 380 OFFCURVE",
"351 367 OFFCURVE",
"348 367 CURVE SMOOTH",
"264 367 LINE",
"80 367 LINE",
"80 434 OFFCURVE",
"113 477 OFFCURVE",
"180 501 CURVE",
"184 501 OFFCURVE",
"194 504 OFFCURVE",
"211 508 CURVE SMOOTH",
"227 511 OFFCURVE",
"244 518 OFFCURVE",
"257 521 CURVE SMOOTH",
"271 524 OFFCURVE",
"278 531 OFFCURVE",
"281 538 CURVE SMOOTH",
"284 544 OFFCURVE",
"284 561 OFFCURVE",
"284 591 CURVE",
"241 588 OFFCURVE",
"204 595 OFFCURVE",
"177 615 CURVE",
"190 655 LINE",
"194 658 OFFCURVE",
"194 665 OFFCURVE",
"197 675 CURVE",
"201 682 OFFCURVE",
"201 688 OFFCURVE",
"201 692 CURVE",
"204 712 OFFCURVE",
"204 742 OFFCURVE",
"204 785 CURVE SMOOTH",
"204 869 OFFCURVE",
"214 923 OFFCURVE",
"231 949 CURVE SMOOTH",
"254 990 OFFCURVE",
"298 1010 OFFCURVE",
"358 1010 CURVE SMOOTH",
"448 1010 OFFCURVE",
"502 970 OFFCURVE",
"515 886 CURVE SMOOTH",
"519 866 OFFCURVE",
"522 836 OFFCURVE",
"522 799 CURVE SMOOTH",
"522 759 OFFCURVE",
"522 735 OFFCURVE",
"522 725 CURVE SMOOTH",
"522 702 OFFCURVE",
"529 675 OFFCURVE",
"539 645 CURVE",
"549 628 OFFCURVE",
"552 618 OFFCURVE",
"549 615 CURVE",
"529 605 LINE",
"519 601 OFFCURVE",
"499 595 OFFCURVE",
"472 591 CURVE",
"455 591 OFFCURVE",
"445 591 OFFCURVE",
"442 588 CURVE",
"442 551 LINE SMOOTH",
"442 538 OFFCURVE",
"448 531 OFFCURVE",
"458 528 CURVE",
"462 524 OFFCURVE",
"472 524 OFFCURVE",
"485 521 CURVE",
"495 518 OFFCURVE",
"505 518 OFFCURVE",
"515 514 CURVE SMOOTH",
"525 511 OFFCURVE",
"532 504 OFFCURVE",
"535 501 CURVE",
"542 491 OFFCURVE",
"539 484 OFFCURVE",
"529 484 CURVE",
"499 481 OFFCURVE",
"475 474 OFFCURVE",
"458 467 CURVE",
"455 467 LINE",
"438 461 LINE",
"442 461 LINE",
"445 464 OFFCURVE",
"448 464 OFFCURVE",
"452 467 CURVE"
);
},
{
closed = 1;
nodes = (
"1547 477 OFFCURVE",
"1580 434 OFFCURVE",
"1580 367 CURVE",
"1312 367 LINE",
"1309 384 OFFCURVE",
"1289 404 OFFCURVE",
"1259 431 CURVE",
"1222 461 OFFCURVE",
"1188 477 OFFCURVE",
"1165 481 CURVE",
"1161 481 OFFCURVE",
"1158 481 OFFCURVE",
"1148 481 CURVE SMOOTH",
"1138 481 OFFCURVE",
"1131 481 OFFCURVE",
"1128 484 CURVE",
"1121 487 OFFCURVE",
"1118 491 OFFCURVE",
"1121 497 CURVE SMOOTH",
"1125 504 OFFCURVE",
"1141 511 OFFCURVE",
"1165 518 CURVE SMOOTH",
"1198 528 OFFCURVE",
"1215 534 OFFCURVE",
"1218 541 CURVE",
"1218 588 LINE",
"1205 588 OFFCURVE",
"1185 591 OFFCURVE",
"1158 595 CURVE",
"1145 598 OFFCURVE",
"1131 605 OFFCURVE",
"1121 608 CURVE SMOOTH",
"1111 611 OFFCURVE",
"1111 625 OFFCURVE",
"1121 645 CURVE",
"1128 662 OFFCURVE",
"1135 718 OFFCURVE",
"1138 816 CURVE SMOOTH",
"1141 913 OFFCURVE",
"1172 973 OFFCURVE",
"1228 996 CURVE SMOOTH",
"1285 1020 OFFCURVE",
"1339 1016 OFFCURVE",
"1389 986 CURVE SMOOTH",
"1433 960 OFFCURVE",
"1456 909 OFFCURVE",
"1456 839 CURVE SMOOTH",
"1456 829 OFFCURVE",
"1456 812 OFFCURVE",
"1456 789 CURVE",
"1453 765 OFFCURVE",
"1453 745 OFFCURVE",
"1453 732 CURVE SMOOTH",
"1453 718 OFFCURVE",
"1456 702 OFFCURVE",
"1459 682 CURVE SMOOTH",
"1463 662 OFFCURVE",
"1470 645 OFFCURVE",
"1480 631 CURVE",
"1486 621 OFFCURVE",
"1486 615 OFFCURVE",
"1480 611 CURVE",
"1476 608 OFFCURVE",
"1473 608 OFFCURVE",
"1470 608 CURVE SMOOTH",
"1466 608 OFFCURVE",
"1463 608 OFFCURVE",
"1459 605 CURVE",
"1419 595 LINE",
"1409 591 OFFCURVE",
"1396 591 OFFCURVE",
"1376 591 CURVE",
"1376 554 OFFCURVE",
"1376 538 OFFCURVE",
"1379 534 CURVE SMOOTH",
"1386 528 OFFCURVE",
"1396 521 OFFCURVE",
"1406 518 CURVE SMOOTH",
"1416 514 OFFCURVE",
"1429 511 OFFCURVE",
"1446 508 CURVE",
"1459 504 OFFCURVE",
"1470 504 OFFCURVE",
"1476 501 CURVE"
);
}
);
width = 1660;
}
);
leftKerningGroup = 10;
rightKerningGroup = 10;
unicode = F1C0;
},
{
glyphname = uniF1C2;
lastChange = "2014-08-26 21:31:26 -0600";
layers = (
{
layerId = "888C22D7-38C6-439F-A69E-1A09249D6A03";
name = Regular;
paths = (
{
closed = 1;
nodes = (
"1496 123 OFFCURVE",
"1580 38 OFFCURVE",
"1580 -60 CURVE",
"830 -60 LINE",
"80 -60 LINE",
"80 38 OFFCURVE",
"164 123 OFFCURVE",
"328 184 CURVE SMOOTH",
"352 193 OFFCURVE",
"389 203 OFFCURVE",
"441 212 CURVE",
"493 217 OFFCURVE",
"521 221 OFFCURVE",
"530 226 CURVE",
"582 240 OFFCURVE",
"614 254 OFFCURVE",
"624 268 CURVE",
"628 460 LINE",
"610 493 OFFCURVE",
"596 521 OFFCURVE",
"586 545 CURVE",
"553 695 LINE",
"530 695 OFFCURVE",
"516 713 OFFCURVE",
"511 751 CURVE",
"507 770 OFFCURVE",
"502 793 OFFCURVE",
"497 817 CURVE",
"488 840 OFFCURVE",
"483 863 OFFCURVE",
"483 878 CURVE SMOOTH",
"483 892 OFFCURVE",
"483 901 OFFCURVE",
"488 910 CURVE",
"493 915 OFFCURVE",
"497 920 OFFCURVE",
"502 924 CURVE",
"507 924 LINE",
"493 967 OFFCURVE",
"488 1032 OFFCURVE",
"483 1121 CURVE SMOOTH",
"478 1206 OFFCURVE",
"511 1281 OFFCURVE",
"572 1346 CURVE",
"633 1407 OFFCURVE",
"722 1440 OFFCURVE",
"830 1440 CURVE SMOOTH",
"938 1440 OFFCURVE",
"1027 1407 OFFCURVE",
"1088 1346 CURVE",
"1149 1281 OFFCURVE",
"1182 1206 OFFCURVE",
"1177 1121 CURVE",
"1153 924 LINE",
"1168 920 OFFCURVE",
"1177 906 OFFCURVE",
"1177 878 CURVE SMOOTH",
"1177 873 OFFCURVE",
"1168 826 OFFCURVE",
"1149 746 CURVE",
"1144 732 OFFCURVE",
"1139 718 OFFCURVE",
"1135 709 CURVE SMOOTH",
"1130 699 OFFCURVE",
"1121 695 OFFCURVE",
"1116 690 CURVE",
"1107 690 LINE",
"1093 620 OFFCURVE",
"1083 568 OFFCURVE",
"1074 545 CURVE",
"1032 460 LINE",
"1027 343 OFFCURVE",
"1027 282 OFFCURVE",
"1036 268 CURVE SMOOTH",
"1046 254 OFFCURVE",
"1078 240 OFFCURVE",
"1130 226 CURVE",
"1139 221 OFFCURVE",
"1168 217 OFFCURVE",
"1219 212 CURVE",
"1271 203 OFFCURVE",
"1308 193 OFFCURVE",
"1332 184 CURVE SMOOTH"
);
}
);
width = 1660;
}
);
leftKerningGroup = 10;
rightKerningGroup = 10;
unicode = F1C2;
},
{
glyphname = uniF1C8;
lastChange = "2014-08-26 21:31:26 -0600";
layers = (
{
layerId = "888C22D7-38C6-439F-A69E-1A09249D6A03";
name = Regular;
paths = (
{
closed = 1;
nodes = (
"80 1119 LINE",
"766 690 LINE",
"80 261 LINE"
);
}
);
width = 846;
}
);
leftKerningGroup = 10;
rightKerningGroup = 10;
unicode = F1C8;
},
{
glyphname = uniF1D3;
lastChange = "2014-08-26 21:31:26 -0600";
layers = (
{
layerId = "888C22D7-38C6-439F-A69E-1A09249D6A03";
name = Regular;
paths = (
{
closed = 1;
nodes = (
"80 261 LINE",
"80 351 LINE SMOOTH",
"80 512 OFFCURVE",
"125 642 OFFCURVE",
"219 735 CURVE SMOOTH",
"312 834 OFFCURVE",
"447 885 OFFCURVE",
"622 893 CURVE",
"622 1119 LINE",
"1164 758 LINE",
"622 397 LINE",
"622 622 LINE",
"535 619 OFFCURVE",
"453 603 OFFCURVE",
"377 566 CURVE SMOOTH",
"303 532 OFFCURVE",
"233 459 OFFCURVE",
"165 349 CURVE SMOOTH",
"109 261 LINE"
);
}
);
width = 1244;
}
);
leftKerningGroup = 10;
rightKerningGroup = 10;
unicode = F1D3;
},
{
glyphname = uniF1D8;
lastChange = "2014-08-26 21:31:26 -0600";
layers = (
{
layerId = "888C22D7-38C6-439F-A69E-1A09249D6A03";
name = Regular;
paths = (
{
closed = 1;
nodes = (
"830 1119 LINE",
"830 707 LINE",
"1580 1119 LINE",
"1580 261 LINE",
"830 673 LINE",
"830 261 LINE",
"80 690 LINE"
);
}
);
width = 1660;
}
);
leftKerningGroup = 10;
rightKerningGroup = 10;
unicode = F1D8;
},
{
glyphname = uniF1DC;
lastChange = "2014-08-26 21:31:26 -0600";
layers = (
{
layerId = "888C22D7-38C6-439F-A69E-1A09249D6A03";
name = Regular;
paths = (
{
closed = 1;
nodes = (
"80 1119 LINE",
"292 1119 LINE",
"292 738 LINE",
"938 1119 LINE",
"938 261 LINE",
"292 642 LINE",
"292 261 LINE",
"80 261 LINE"
);
}
);
width = 1018;
}
);
leftKerningGroup = 10;
rightKerningGroup = 10;
unicode = F1DC;
},
{
glyphname = uniF1DE;
lastChange = "2014-08-26 21:31:26 -0600";
layers = (
{
layerId = "888C22D7-38C6-439F-A69E-1A09249D6A03";
name = Regular;
paths = (
{
closed = 1;
nodes = (
"726 1119 LINE",
"938 1119 LINE",
"938 261 LINE",
"726 261 LINE",
"726 642 LINE",
"80 261 LINE",
"80 1119 LINE",
"726 738 LINE"
);
}
);
width = 1018;
}
);
leftKerningGroup = 10;
rightKerningGroup = 10;
unicode = F1DE;
},
{
glyphname = uniF1E6;
lastChange = "2014-08-26 21:31:26 -0600";
layers = (
{
layerId = "888C22D7-38C6-439F-A69E-1A09249D6A03";
name = Regular;
paths = (
{
closed = 1;
nodes = (
"1561 273 OFFCURVE",
"1561 182 OFFCURVE",
"1478 82 CURVE SMOOTH",
"1444 44 OFFCURVE",
"1411 15 OFFCURVE",
"1382 -6 CURVE",
"1349 -27 OFFCURVE",
"1324 -35 OFFCURVE",
"1303 -39 CURVE SMOOTH",
"1282 -43 OFFCURVE",
"1249 -43 OFFCURVE",
"1211 -43 CURVE SMOOTH",
"1103 -43 OFFCURVE",
"974 11 OFFCURVE",
"824 123 CURVE SMOOTH",
"703 211 OFFCURVE",
"594 303 OFFCURVE",
"499 403 CURVE SMOOTH",
"374 532 OFFCURVE",
"265 682 OFFCURVE",
"169 848 CURVE SMOOTH",
"86 1003 OFFCURVE",
"61 1132 OFFCURVE",
"94 1232 CURVE SMOOTH",
"111 1286 OFFCURVE",
"149 1332 OFFCURVE",
"211 1369 CURVE",
"215 1373 LINE",
"265 1407 OFFCURVE",
"311 1423 OFFCURVE",
"349 1423 CURVE SMOOTH",
"403 1423 OFFCURVE",
"449 1398 OFFCURVE",
"490 1348 CURVE",
"494 1344 LINE",
"557 1261 OFFCURVE",
"603 1194 OFFCURVE",
"628 1148 CURVE",
"669 1061 OFFCURVE",
"669 990 OFFCURVE",
"624 928 CURVE SMOOTH",
"590 882 OFFCURVE",
"574 853 OFFCURVE",
"574 832 CURVE SMOOTH",
"574 823 OFFCURVE",
"590 798 OFFCURVE",
"628 757 CURVE",
"632 753 LINE",
"699 678 OFFCURVE",
"736 636 OFFCURVE",
"740 632 CURVE",
"744 632 OFFCURVE",
"744 632 OFFCURVE",
"749 628 CURVE SMOOTH",
"753 623 OFFCURVE",
"753 623 OFFCURVE",
"757 619 CURVE SMOOTH",
"765 611 LINE SMOOTH",
"819 557 OFFCURVE",
"861 515 OFFCURVE",
"886 494 CURVE",
"890 490 LINE",
"915 469 OFFCURVE",
"932 457 OFFCURVE",
"940 457 CURVE SMOOTH",
"953 457 OFFCURVE",
"994 478 OFFCURVE",
"1061 519 CURVE SMOOTH",
"1082 532 OFFCURVE",
"1103 540 OFFCURVE",
"1132 540 CURVE SMOOTH",
"1182 540 OFFCURVE",
"1244 519 OFFCURVE",
"1315 478 CURVE SMOOTH",
"1386 436 OFFCURVE",
"1440 394 OFFCURVE",
"1478 357 CURVE SMOOTH"
);
}
);
width = 1620.25;
}
);
leftKerningGroup = 10;
rightKerningGroup = 10;
unicode = F1E6;
},
{
glyphname = uniF1EE;
lastChange = "2014-08-26 21:31:26 -0600";
layers = (
{
layerId = "888C22D7-38C6-439F-A69E-1A09249D6A03";
name = Regular;
paths = (
{
closed = 1;
nodes = (
"1164 261 LINE",
"1135 261 LINE",
"1079 349 LINE SMOOTH",
"1011 459 OFFCURVE",
"941 532 OFFCURVE",
"867 566 CURVE SMOOTH",
"791 603 OFFCURVE",
"709 619 OFFCURVE",
"622 622 CURVE",
"622 397 LINE",
"80 758 LINE",
"622 1119 LINE",
"622 893 LINE",
"794 885 OFFCURVE",
"927 834 OFFCURVE",
"1025 735 CURVE SMOOTH",
"1119 642 OFFCURVE",
"1164 512 OFFCURVE",
"1164 351 CURVE SMOOTH"
);
}
);
width = 1244;
}
);
leftKerningGroup = 10;
rightKerningGroup = 10;
unicode = F1EE;
},
{
glyphname = uniF1F4;
lastChange = "2014-08-26 21:31:26 -0600";
layers = (
{
layerId = "888C22D7-38C6-439F-A69E-1A09249D6A03";
name = Regular;
paths = (
{
closed = 1;
nodes = (
"1002 1149 LINE SMOOTH",
"1035 1149 OFFCURVE",
"1063 1139 OFFCURVE",
"1088 1117 CURVE",
"1110 1092 OFFCURVE",
"1121 1063 OFFCURVE",
"1121 1031 CURVE SMOOTH",
"1121 356 LINE SMOOTH",
"1121 324 OFFCURVE",
"1110 295 OFFCURVE",
"1088 270 CURVE",
"1063 245 OFFCURVE",
"1035 231 OFFCURVE",
"1002 231 CURVE SMOOTH",
"209 231 LINE SMOOTH",
"177 231 OFFCURVE",
"145 245 OFFCURVE",
"119 270 CURVE SMOOTH",
"94 295 OFFCURVE",
"80 324 OFFCURVE",
"80 356 CURVE SMOOTH",
"80 1031 LINE SMOOTH",
"80 1063 OFFCURVE",
"94 1092 OFFCURVE",
"119 1117 CURVE",
"145 1139 OFFCURVE",
"173 1149 OFFCURVE",
"209 1149 CURVE SMOOTH"
);
},
{
closed = 1;
nodes = (
"1228 844 LINE",
"1580 1034 LINE",
"1580 346 LINE",
"1228 536 LINE"
);
}
);
width = 1660;
}
);
leftKerningGroup = 10;
rightKerningGroup = 10;
unicode = F1F4;
},
{
glyphname = uniF1F9;
lastChange = "2014-08-26 21:31:26 -0600";
layers = (
{
layerId = "888C22D7-38C6-439F-A69E-1A09249D6A03";
name = Regular;
paths = (
{
closed = 1;
nodes = (
"81 1405 LINE SMOOTH",
"81 1428 OFFCURVE",
"92 1440 OFFCURVE",
"116 1440 CURVE SMOOTH",
"1170 1440 LINE SMOOTH",
"1194 1440 OFFCURVE",
"1206 1428 OFFCURVE",
"1206 1405 CURVE SMOOTH",
"1206 -25 LINE SMOOTH",
"1206 -48 OFFCURVE",
"1194 -60 OFFCURVE",
"1170 -60 CURVE SMOOTH",
"116 -60 LINE SMOOTH",
"92 -60 OFFCURVE",
"81 -48 OFFCURVE",
"81 -25 CURVE SMOOTH"
);
},
{
closed = 1;
nodes = (
"698 49 OFFCURVE",
"694 61 OFFCURVE",
"682 73 CURVE SMOOTH",
"670 85 OFFCURVE",
"655 88 OFFCURVE",
"643 88 CURVE SMOOTH",
"608 88 OFFCURVE",
"588 69 OFFCURVE",
"588 34 CURVE SMOOTH",
"588 -1 OFFCURVE",
"608 -21 OFFCURVE",
"643 -21 CURVE SMOOTH",
"678 -21 OFFCURVE",
"698 -1 OFFCURVE",
"698 34 CURVE SMOOTH"
);
},
{
closed = 1;
nodes = (
"206 151 LINE SMOOTH",
"206 135 OFFCURVE",
"213 128 OFFCURVE",
"229 128 CURVE SMOOTH",
"1053 128 LINE SMOOTH",
"1073 128 OFFCURVE",
"1081 135 OFFCURVE",
"1081 151 CURVE SMOOTH",
"1081 1225 LINE SMOOTH",
"1081 1245 OFFCURVE",
"1073 1253 OFFCURVE",
"1053 1253 CURVE SMOOTH",
"229 1253 LINE SMOOTH",
"213 1253 OFFCURVE",
"206 1245 OFFCURVE",
"206 1225 CURVE SMOOTH"
);
}
);
width = 1286;
}
);
leftKerningGroup = 10;
rightKerningGroup = 10;
unicode = F1F9;
},
{
glyphname = uniF1FA;
lastChange = "2014-08-26 21:31:26 -0600";
layers = (
{
layerId = "888C22D7-38C6-439F-A69E-1A09249D6A03";
name = Regular;
paths = (
{
closed = 1;
nodes = (
"736 1440 LINE SMOOTH",
"764 1440 OFFCURVE",
"783 1432 OFFCURVE",
"803 1413 CURVE SMOOTH",
"822 1393 OFFCURVE",
"830 1374 OFFCURVE",
"830 1346 CURVE SMOOTH",
"830 34 LINE SMOOTH",
"830 6 OFFCURVE",
"822 -13 OFFCURVE",
"803 -33 CURVE SMOOTH",
"783 -52 OFFCURVE",
"764 -60 OFFCURVE",
"736 -60 CURVE SMOOTH",
"174 -60 LINE SMOOTH",
"146 -60 OFFCURVE",
"127 -52 OFFCURVE",
"107 -33 CURVE SMOOTH",
"88 -13 OFFCURVE",
"80 6 OFFCURVE",
"80 34 CURVE SMOOTH",
"80 1346 LINE SMOOTH",
"80 1374 OFFCURVE",
"88 1393 OFFCURVE",
"107 1413 CURVE SMOOTH",
"127 1432 OFFCURVE",
"146 1440 OFFCURVE",
"174 1440 CURVE SMOOTH"
);
},
{
closed = 1;
nodes = (
"502 1284 LINE SMOOTH",
"514 1284 OFFCURVE",
"518 1288 OFFCURVE",
"518 1299 CURVE SMOOTH",
"518 1311 OFFCURVE",
"514 1315 OFFCURVE",
"502 1315 CURVE SMOOTH",
"408 1315 LINE SMOOTH",
"396 1315 OFFCURVE",
"393 1311 OFFCURVE",
"393 1299 CURVE SMOOTH",
"393 1288 OFFCURVE",
"396 1284 OFFCURVE",
"408 1284 CURVE SMOOTH"
);
},
{
closed = 1;
nodes = (
"361 1311 OFFCURVE",
"357 1315 OFFCURVE",
"346 1315 CURVE SMOOTH",
"334 1315 OFFCURVE",
"330 1311 OFFCURVE",
"330 1299 CURVE SMOOTH",
"330 1288 OFFCURVE",
"334 1284 OFFCURVE",
"346 1284 CURVE SMOOTH",
"357 1284 OFFCURVE",
"361 1288 OFFCURVE",
"361 1299 CURVE SMOOTH"
);
},
{
closed = 1;
nodes = (
"393 22 OFFCURVE",
"412 3 OFFCURVE",
"455 3 CURVE SMOOTH",
"498 3 OFFCURVE",
"518 22 OFFCURVE",
"518 65 CURVE SMOOTH",
"518 108 OFFCURVE",
"498 128 OFFCURVE",
"455 128 CURVE SMOOTH",
"412 128 OFFCURVE",
"393 108 OFFCURVE",
"393 65 CURVE SMOOTH"
);
},
{
closed = 1;
nodes = (
"768 190 LINE",
"768 1190 LINE",
"143 1190 LINE",
"143 190 LINE"
);
}
);
width = 910;
}
);
leftKerningGroup = 10;
rightKerningGroup = 10;
unicode = F1FA;
},
{
glyphname = uniF1FB;
lastChange = "2014-08-26 21:31:26 -0600";
layers = (
{
layerId = "888C22D7-38C6-439F-A69E-1A09249D6A03";
name = Regular;
paths = (
{
closed = 1;
nodes = (
"452 463 OFFCURVE",
"483 475 OFFCURVE",
"518 475 CURVE SMOOTH",
"553 475 OFFCURVE",
"584 463 OFFCURVE",
"608 440 CURVE",
"631 413 OFFCURVE",
"643 385 OFFCURVE",
"643 350 CURVE SMOOTH",
"643 315 OFFCURVE",
"631 288 OFFCURVE",
"608 264 CURVE",
"584 237 OFFCURVE",
"553 225 OFFCURVE",
"518 225 CURVE SMOOTH",
"483 225 OFFCURVE",
"452 237 OFFCURVE",
"428 264 CURVE",
"405 288 OFFCURVE",
"393 315 OFFCURVE",
"393 350 CURVE SMOOTH",
"393 385 OFFCURVE",
"405 413 OFFCURVE",
"428 440 CURVE"
);
},
{
closed = 1;
nodes = (
"846 1440 LINE SMOOTH",
"873 1440 OFFCURVE",
"901 1428 OFFCURVE",
"924 1409 CURVE",
"944 1389 OFFCURVE",
"956 1362 OFFCURVE",
"956 1331 CURVE SMOOTH",
"956 49 LINE SMOOTH",
"956 18 OFFCURVE",
"944 -9 OFFCURVE",
"924 -29 CURVE",
"901 -48 OFFCURVE",
"873 -60 OFFCURVE",
"846 -60 CURVE SMOOTH",
"190 -60 LINE SMOOTH",
"163 -60 OFFCURVE",
"135 -48 OFFCURVE",
"116 -29 CURVE",
"92 -9 OFFCURVE",
"81 18 OFFCURVE",
"81 49 CURVE SMOOTH",
"81 1331 LINE SMOOTH",
"81 1362 OFFCURVE",
"92 1389 OFFCURVE",
"116 1409 CURVE",
"135 1428 OFFCURVE",
"163 1440 OFFCURVE",
"190 1440 CURVE SMOOTH"
);
},
{
closed = 1;
nodes = (
"373 92 OFFCURVE",
"440 65 OFFCURVE",
"518 65 CURVE SMOOTH",
"596 65 OFFCURVE",
"663 92 OFFCURVE",
"717 147 CURVE SMOOTH",
"772 202 OFFCURVE",
"799 268 OFFCURVE",
"799 346 CURVE SMOOTH",
"799 424 OFFCURVE",
"772 491 OFFCURVE",
"717 545 CURVE SMOOTH",
"663 600 OFFCURVE",
"596 628 OFFCURVE",
"518 628 CURVE SMOOTH",
"440 628 OFFCURVE",
"373 600 OFFCURVE",
"319 545 CURVE SMOOTH",
"264 491 OFFCURVE",
"237 424 OFFCURVE",
"237 346 CURVE SMOOTH",
"237 268 OFFCURVE",
"264 202 OFFCURVE",
"319 147 CURVE SMOOTH"
);
},
{
closed = 1;
nodes = (
"831 1264 LINE",
"827 1292 OFFCURVE",
"811 1311 OFFCURVE",
"784 1315 CURVE",
"252 1315 LINE",
"221 1311 OFFCURVE",
"206 1292 OFFCURVE",
"206 1256 CURVE SMOOTH",
"206 811 LINE SMOOTH",
"206 772 OFFCURVE",
"225 753 OFFCURVE",
"260 753 CURVE SMOOTH",
"772 753 LINE SMOOTH",
"807 753 OFFCURVE",
"827 768 OFFCURVE",
"831 803 CURVE"
);
}
);
width = 1036;
}
);
leftKerningGroup = 10;
rightKerningGroup = 10;
unicode = F1FB;
},
{
glyphname = uniF1FC;
lastChange = "2014-08-26 21:31:26 -0600";
layers = (
{
layerId = "888C22D7-38C6-439F-A69E-1A09249D6A03";
name = Regular;
paths = (
{
closed = 1;
nodes = (
"1486 362 LINE",
"174 362 LINE",
"174 1129 LINE SMOOTH",
"174 1150 OFFCURVE",
"183 1159 OFFCURVE",
"203 1159 CURVE SMOOTH",
"1457 1159 LINE SMOOTH",
"1477 1159 OFFCURVE",
"1486 1150 OFFCURVE",
"1486 1129 CURVE SMOOTH"
);
},
{
closed = 1;
nodes = (
"1393 456 LINE",
"1393 1065 LINE",
"268 1065 LINE",
"268 456 LINE"
);
},
{
closed = 1;
nodes = (
"80 315 LINE",
"1580 315 LINE",
"1580 300 LINE",
"1472 268 OFFCURVE",
"1369 248 OFFCURVE",
"1272 239 CURVE SMOOTH",
"1176 227 OFFCURVE",
"1026 221 OFFCURVE",
"830 221 CURVE SMOOTH",
"634 221 OFFCURVE",
"484 227 OFFCURVE",
"388 239 CURVE SMOOTH",
"291 248 OFFCURVE",
"188 268 OFFCURVE",
"80 300 CURVE"
);
}
);
width = 1660;
}
);
leftKerningGroup = 10;
rightKerningGroup = 10;
unicode = F1FC;
},
{
glyphname = uniF1FD;
lastChange = "2014-08-26 21:31:26 -0600";
layers = (
{
layerId = "888C22D7-38C6-439F-A69E-1A09249D6A03";
name = Regular;
paths = (
{
closed = 1;
nodes = (
"1549 248 OFFCURVE",
"1563 237 OFFCURVE",
"1566 213 CURVE SMOOTH",
"1570 188 OFFCURVE",
"1566 164 OFFCURVE",
"1556 143 CURVE SMOOTH",
"1545 121 OFFCURVE",
"1531 111 OFFCURVE",
"1514 114 CURVE",
"1465 111 OFFCURVE",
"1391 125 OFFCURVE",
"1292 157 CURVE",
"1254 111 OFFCURVE",
"1208 76 OFFCURVE",
"1155 51 CURVE",
"1113 34 OFFCURVE",
"1061 20 OFFCURVE",
"997 9 CURVE SMOOTH",
"934 -1 OFFCURVE",
"850 9 OFFCURVE",
"748 34 CURVE SMOOTH",
"643 58 OFFCURVE",
"548 111 OFFCURVE",
"463 185 CURVE SMOOTH",
"291 343 OFFCURVE",
"172 606 OFFCURVE",
"109 979 CURVE SMOOTH",
"77 1179 OFFCURVE",
"70 1305 OFFCURVE",
"95 1351 CURVE",
"98 1361 OFFCURVE",
"105 1361 OFFCURVE",
"112 1354 CURVE SMOOTH",
"200 1263 OFFCURVE",
"302 1203 OFFCURVE",
"425 1172 CURVE SMOOTH",
"544 1140 OFFCURVE",
"664 1112 OFFCURVE",
"783 1095 CURVE SMOOTH",
"899 1077 OFFCURVE",
"994 1038 OFFCURVE",
"1061 982 CURVE SMOOTH",
"1155 905 OFFCURVE",
"1229 803 OFFCURVE",
"1282 673 CURVE SMOOTH",
"1335 543 OFFCURVE",
"1349 424 OFFCURVE",
"1331 308 CURVE",
"1342 290 OFFCURVE",
"1408 269 OFFCURVE",
"1531 251 CURVE"
);
},
{
closed = 1;
nodes = (
"1219 262 OFFCURVE",
"1229 290 OFFCURVE",
"1229 322 CURVE",
"1124 357 OFFCURVE",
"1022 399 OFFCURVE",
"924 452 CURVE",
"822 501 OFFCURVE",
"741 550 OFFCURVE",
"674 599 CURVE SMOOTH",
"607 648 OFFCURVE",
"548 694 OFFCURVE",
"495 740 CURVE",
"442 782 OFFCURVE",
"404 817 OFFCURVE",
"379 845 CURVE SMOOTH",
"344 884 LINE",
"355 870 OFFCURVE",
"369 852 OFFCURVE",
"386 828 CURVE SMOOTH",
"404 803 OFFCURVE",
"446 761 OFFCURVE",
"506 701 CURVE SMOOTH",
"565 638 OFFCURVE",
"625 578 OFFCURVE",
"688 525 CURVE SMOOTH",
"748 473 OFFCURVE",
"825 417 OFFCURVE",
"920 360 CURVE SMOOTH",
"1011 304 OFFCURVE",
"1103 262 OFFCURVE",
"1194 237 CURVE"
);
}
);
width = 1647.53;
}
);
leftKerningGroup = 10;
rightKerningGroup = 10;
unicode = F1FD;
},
{
glyphname = uniF1FE;
lastChange = "2014-08-26 21:31:26 -0600";
layers = (
{
layerId = "888C22D7-38C6-439F-A69E-1A09249D6A03";
name = Regular;
paths = (
{
closed = 1;
nodes = (
"1268 1065 LINE SMOOTH",
"1353 1065 OFFCURVE",
"1428 1034 OFFCURVE",
"1490 975 CURVE",
"1549 913 OFFCURVE",
"1580 838 OFFCURVE",
"1580 753 CURVE SMOOTH",
"1580 628 LINE SMOOTH",
"1580 542 OFFCURVE",
"1549 467 OFFCURVE",
"1490 409 CURVE SMOOTH",
"1428 346 OFFCURVE",
"1353 315 OFFCURVE",
"1268 315 CURVE SMOOTH",
"830 315 LINE SMOOTH",
"697 315 OFFCURVE",
"603 378 OFFCURVE",
"545 503 CURVE SMOOTH",
"525 545 OFFCURVE",
"518 588 OFFCURVE",
"518 628 CURVE SMOOTH",
"518 753 LINE",
"705 753 LINE",
"705 628 LINE SMOOTH",
"705 592 OFFCURVE",
"717 561 OFFCURVE",
"740 538 CURVE SMOOTH",
"764 514 OFFCURVE",
"795 503 OFFCURVE",
"830 503 CURVE SMOOTH",
"1268 503 LINE SMOOTH",
"1303 503 OFFCURVE",
"1334 514 OFFCURVE",
"1357 538 CURVE SMOOTH",
"1381 561 OFFCURVE",
"1393 592 OFFCURVE",
"1393 628 CURVE SMOOTH",
"1393 753 LINE SMOOTH",
"1393 788 OFFCURVE",
"1381 819 OFFCURVE",
"1357 842 CURVE SMOOTH",
"1334 866 OFFCURVE",
"1303 878 OFFCURVE",
"1268 878 CURVE SMOOTH",
"1205 878 LINE",
"1197 913 OFFCURVE",
"1182 948 OFFCURVE",
"1162 979 CURVE SMOOTH",
"1143 1010 OFFCURVE",
"1123 1034 OFFCURVE",
"1103 1045 CURVE",
"1080 1065 LINE"
);
},
{
closed = 1;
nodes = (
"1135 838 OFFCURVE",
"1143 795 OFFCURVE",
"1143 753 CURVE SMOOTH",
"1143 628 LINE",
"955 628 LINE",
"955 753 LINE SMOOTH",
"955 788 OFFCURVE",
"943 819 OFFCURVE",
"920 842 CURVE SMOOTH",
"896 866 OFFCURVE",
"865 878 OFFCURVE",
"830 878 CURVE SMOOTH",
"393 878 LINE SMOOTH",
"357 878 OFFCURVE",
"326 866 OFFCURVE",
"303 842 CURVE SMOOTH",
"279 819 OFFCURVE",
"268 788 OFFCURVE",
"268 753 CURVE SMOOTH",
"268 628 LINE SMOOTH",
"268 592 OFFCURVE",
"279 561 OFFCURVE",
"303 538 CURVE SMOOTH",
"326 514 OFFCURVE",
"357 503 OFFCURVE",
"393 503 CURVE SMOOTH",
"455 503 LINE",
"463 467 OFFCURVE",
"478 432 OFFCURVE",
"498 401 CURVE SMOOTH",
"518 370 OFFCURVE",
"537 346 OFFCURVE",
"557 335 CURVE",
"580 315 LINE",
"393 315 LINE SMOOTH",
"307 315 OFFCURVE",
"232 346 OFFCURVE",
"174 409 CURVE",
"111 467 OFFCURVE",
"80 542 OFFCURVE",
"80 628 CURVE SMOOTH",
"80 753 LINE SMOOTH",
"80 838 OFFCURVE",
"111 913 OFFCURVE",
"174 975 CURVE SMOOTH",
"232 1034 OFFCURVE",
"307 1065 OFFCURVE",
"393 1065 CURVE SMOOTH",
"830 1065 LINE SMOOTH",
"893 1065 OFFCURVE",
"951 1049 OFFCURVE",
"1006 1014 CURVE SMOOTH",
"1057 979 OFFCURVE",
"1096 932 OFFCURVE",
"1119 878 CURVE SMOOTH"
);
}
);
width = 1660;
}
);
leftKerningGroup = 10;
rightKerningGroup = 10;
unicode = F1FE;
},
{
glyphname = uniF1FF;
lastChange = "2014-08-26 21:31:26 -0600";
layers = (
{
layerId = "888C22D7-38C6-439F-A69E-1A09249D6A03";
name = Regular;
paths = (
{
closed = 1;
nodes = (
"1013 838 OFFCURVE",
"974 686 OFFCURVE",
"896 514 CURVE SMOOTH",
"818 342 OFFCURVE",
"740 202 OFFCURVE",
"662 96 CURVE SMOOTH",
"545 -60 LINE",
"533 -44 OFFCURVE",
"513 -21 OFFCURVE",
"494 6 CURVE SMOOTH",
"474 34 OFFCURVE",
"435 92 OFFCURVE",
"384 174 CURVE SMOOTH",
"330 256 OFFCURVE",
"283 335 OFFCURVE",
"244 417 CURVE",
"201 495 OFFCURVE",
"166 585 OFFCURVE",
"130 690 CURVE SMOOTH",
"95 795 OFFCURVE",
"80 889 OFFCURVE",
"80 971 CURVE SMOOTH",
"80 1100 OFFCURVE",
"127 1213 OFFCURVE",
"216 1303 CURVE SMOOTH",
"306 1393 OFFCURVE",
"416 1440 OFFCURVE",
"545 1440 CURVE SMOOTH",
"673 1440 OFFCURVE",
"783 1393 OFFCURVE",
"877 1303 CURVE SMOOTH",
"966 1213 OFFCURVE",
"1013 1100 OFFCURVE",
"1013 971 CURVE SMOOTH"
);
},
{
closed = 1;
nodes = (
"435 768 OFFCURVE",
"486 745 OFFCURVE",
"545 745 CURVE SMOOTH",
"603 745 OFFCURVE",
"658 768 OFFCURVE",
"701 811 CURVE SMOOTH",
"744 854 OFFCURVE",
"767 905 OFFCURVE",
"767 963 CURVE SMOOTH",
"767 1022 OFFCURVE",
"744 1077 OFFCURVE",
"701 1120 CURVE SMOOTH",
"658 1163 OFFCURVE",
"603 1186 OFFCURVE",
"545 1186 CURVE SMOOTH",
"486 1186 OFFCURVE",
"435 1163 OFFCURVE",
"392 1120 CURVE SMOOTH",
"349 1077 OFFCURVE",
"326 1022 OFFCURVE",
"326 963 CURVE SMOOTH",
"326 905 OFFCURVE",
"349 854 OFFCURVE",
"392 811 CURVE SMOOTH"
);
}
);
width = 1093;
}
);
leftKerningGroup = 10;
rightKerningGroup = 10;
unicode = F1FF;
},
{
glyphname = uniF200;
lastChange = "2014-08-26 21:31:26 -0600";
layers = (
{
layerId = "888C22D7-38C6-439F-A69E-1A09249D6A03";
name = Regular;
paths = (
{
closed = 1;
nodes = (
"154 -60 LINE SMOOTH",
"134 -60 OFFCURVE",
"117 -53 OFFCURVE",
"104 -37 CURVE",
"87 -23 OFFCURVE",
"80 -6 OFFCURVE",
"80 14 CURVE SMOOTH",
"80 723 LINE SMOOTH",
"80 744 OFFCURVE",
"87 760 OFFCURVE",
"104 777 CURVE SMOOTH",
"117 790 OFFCURVE",
"134 797 OFFCURVE",
"154 797 CURVE SMOOTH",
"164 797 LINE",
"227 797 LINE",
"227 901 LINE SMOOTH",
"227 1055 OFFCURVE",
"274 1182 OFFCURVE",
"371 1286 CURVE SMOOTH",
"469 1390 OFFCURVE",
"586 1440 OFFCURVE",
"723 1440 CURVE",
"723 1440 LINE",
"860 1440 OFFCURVE",
"977 1390 OFFCURVE",
"1075 1286 CURVE SMOOTH",
"1172 1182 OFFCURVE",
"1219 1055 OFFCURVE",
"1219 901 CURVE SMOOTH",
"1219 797 LINE",
"1292 797 LINE SMOOTH",
"1312 797 OFFCURVE",
"1329 790 OFFCURVE",
"1346 777 CURVE",
"1359 760 OFFCURVE",
"1366 744 OFFCURVE",
"1366 723 CURVE SMOOTH",
"1366 14 LINE SMOOTH",
"1366 -6 OFFCURVE",
"1359 -23 OFFCURVE",
"1346 -37 CURVE SMOOTH",
"1329 -53 OFFCURVE",
"1312 -60 OFFCURVE",
"1292 -60 CURVE SMOOTH"
);
},
{
closed = 1;
nodes = (
"405 797 LINE",
"462 797 LINE",
"981 797 LINE",
"1041 797 LINE",
"1041 901 LINE SMOOTH",
"1041 1011 OFFCURVE",
"1011 1102 OFFCURVE",
"947 1169 CURVE",
"947 1172 LINE",
"887 1236 OFFCURVE",
"813 1269 OFFCURVE",
"723 1269 CURVE SMOOTH",
"723 1269 LINE SMOOTH",
"633 1269 OFFCURVE",
"559 1236 OFFCURVE",
"499 1172 CURVE",
"499 1169 LINE",
"435 1102 OFFCURVE",
"405 1011 OFFCURVE",
"405 901 CURVE SMOOTH"
);
}
);
width = 1446;
}
);
leftKerningGroup = 10;
rightKerningGroup = 10;
unicode = F200;
},
{
glyphname = uniF201;
lastChange = "2014-08-26 21:31:26 -0600";
layers = (
{
layerId = "888C22D7-38C6-439F-A69E-1A09249D6A03";
name = Regular;
paths = (
{
closed = 1;
nodes = (
"696 543 LINE",
"696 348 LINE",
"780 362 OFFCURVE",
"847 402 OFFCURVE",
"904 466 CURVE SMOOTH",
"957 529 OFFCURVE",
"984 606 OFFCURVE",
"984 690 CURVE SMOOTH",
"984 740 OFFCURVE",
"974 790 OFFCURVE",
"950 837 CURVE",
"940 861 OFFCURVE",
"930 877 OFFCURVE",
"920 894 CURVE",
"1078 1038 LINE",
"1078 1038 OFFCURVE",
"1081 1035 OFFCURVE",
"1088 1025 CURVE",
"1161 928 OFFCURVE",
"1198 814 OFFCURVE",
"1198 690 CURVE SMOOTH",
"1198 677 LINE SMOOTH",
"1195 559 OFFCURVE",
"1161 452 OFFCURVE",
"1091 359 CURVE SMOOTH",
"1021 265 OFFCURVE",
"934 198 OFFCURVE",
"827 161 CURVE",
"783 144 OFFCURVE",
"739 134 OFFCURVE",
"696 131 CURVE",
"696 -60 LINE",
"441 164 LINE",
"354 241 LINE",
"502 372 LINE"
);
},
{
closed = 1;
nodes = (
"80 703 LINE",
"83 780 OFFCURVE",
"100 857 OFFCURVE",
"133 928 CURVE",
"164 998 OFFCURVE",
"210 1058 OFFCURVE",
"267 1109 CURVE SMOOTH",
"324 1159 OFFCURVE",
"388 1199 OFFCURVE",
"458 1222 CURVE SMOOTH",
"498 1236 OFFCURVE",
"539 1246 OFFCURVE",
"582 1249 CURVE",
"582 1440 LINE",
"837 1216 LINE",
"924 1139 LINE",
"776 1008 LINE",
"579 837 LINE",
"582 1032 LINE",
"498 1018 OFFCURVE",
"431 978 OFFCURVE",
"378 914 CURVE SMOOTH",
"321 851 OFFCURVE",
"294 774 OFFCURVE",
"294 690 CURVE SMOOTH",
"294 636 OFFCURVE",
"304 586 OFFCURVE",
"328 539 CURVE",
"338 523 OFFCURVE",
"348 502 OFFCURVE",
"358 486 CURVE",
"200 338 LINE",
"197 345 OFFCURVE",
"194 352 OFFCURVE",
"190 355 CURVE",
"117 456 OFFCURVE",
"80 566 OFFCURVE",
"80 690 CURVE SMOOTH"
);
}
);
width = 1278;
}
);
leftKerningGroup = 10;
rightKerningGroup = 10;
unicode = F201;
},
{
glyphname = uniF203;
lastChange = "2014-08-26 21:31:26 -0600";
layers = (
{
layerId = "888C22D7-38C6-439F-A69E-1A09249D6A03";
name = Regular;
paths = (
{
closed = 1;
nodes = (
"1557 1088 LINE",
"1573 1078 OFFCURVE",
"1580 1062 OFFCURVE",
"1580 1042 CURVE SMOOTH",
"1580 101 LINE SMOOTH",
"1580 81 OFFCURVE",
"1570 64 OFFCURVE",
"1553 54 CURVE",
"1543 50 OFFCURVE",
"1536 47 OFFCURVE",
"1530 47 CURVE SMOOTH",
"1520 47 OFFCURVE",
"1510 50 OFFCURVE",
"1506 54 CURVE",
"1182 275 LINE",
"857 54 LINE",
"840 44 OFFCURVE",
"820 44 OFFCURVE",
"803 54 CURVE",
"478 275 LINE",
"154 54 LINE",
"137 44 OFFCURVE",
"120 44 OFFCURVE",
"103 54 CURVE SMOOTH",
"87 64 OFFCURVE",
"80 77 OFFCURVE",
"80 101 CURVE SMOOTH",
"80 1042 LINE SMOOTH",
"80 1062 OFFCURVE",
"87 1078 OFFCURVE",
"103 1088 CURVE",
"455 1326 LINE",
"472 1336 OFFCURVE",
"488 1336 OFFCURVE",
"505 1326 CURVE",
"830 1105 LINE",
"1155 1326 LINE",
"1172 1336 OFFCURVE",
"1188 1336 OFFCURVE",
"1205 1326 CURVE"
);
},
{
closed = 1;
nodes = (
"425 365 LINE",
"425 1172 LINE",
"187 1008 LINE",
"187 198 LINE"
);
},
{
closed = 1;
nodes = (
"532 365 LINE",
"776 201 LINE",
"776 640 LINE",
"763 596 LINE",
"746 600 OFFCURVE",
"723 613 OFFCURVE",
"693 630 CURVE",
"723 673 LINE",
"740 663 OFFCURVE",
"760 653 OFFCURVE",
"776 646 CURVE",
"776 1011 LINE",
"532 1175 LINE",
"532 837 LINE",
"549 827 OFFCURVE",
"562 821 OFFCURVE",
"572 814 CURVE",
"542 770 LINE",
"539 774 LINE SMOOTH",
"535 777 OFFCURVE",
"535 777 OFFCURVE",
"532 777 CURVE"
);
},
{
closed = 1;
nodes = (
"884 201 LINE",
"1128 365 LINE",
"1128 730 LINE",
"1121 723 LINE SMOOTH",
"1118 720 OFFCURVE",
"1118 717 OFFCURVE",
"1115 713 CURVE SMOOTH",
"1111 710 OFFCURVE",
"1108 707 OFFCURVE",
"1105 703 CURVE",
"1064 740 LINE",
"1068 744 OFFCURVE",
"1071 747 OFFCURVE",
"1074 750 CURVE SMOOTH",
"1078 754 OFFCURVE",
"1078 757 OFFCURVE",
"1081 760 CURVE SMOOTH",
"1084 764 OFFCURVE",
"1091 770 OFFCURVE",
"1098 780 CURVE",
"1105 787 OFFCURVE",
"1108 790 OFFCURVE",
"1111 794 CURVE",
"1128 777 LINE",
"1128 1175 LINE",
"884 1011 LINE",
"884 636 LINE",
"904 636 LINE",
"914 586 LINE",
"910 586 OFFCURVE",
"907 586 OFFCURVE",
"900 586 CURVE",
"894 583 OFFCURVE",
"887 583 OFFCURVE",
"884 583 CURVE"
);
},
{
closed = 1;
nodes = (
"1473 201 LINE",
"1473 1011 LINE",
"1235 1175 LINE",
"1235 881 LINE",
"1249 884 OFFCURVE",
"1259 888 OFFCURVE",
"1262 888 CURVE",
"1272 837 LINE",
"1259 834 OFFCURVE",
"1245 827 OFFCURVE",
"1235 824 CURVE",
"1235 365 LINE"
);
},
{
closed = 1;
nodes = (
"304 687 LINE",
"251 703 LINE",
"254 707 LINE",
"264 734 OFFCURVE",
"274 757 OFFCURVE",
"284 774 CURVE",
"328 744 LINE",
"321 734 OFFCURVE",
"314 717 OFFCURVE",
"304 690 CURVE"
);
},
{
closed = 1;
nodes = (
"388 804 OFFCURVE",
"375 794 OFFCURVE",
"358 784 CURVE",
"321 824 LINE",
"345 841 OFFCURVE",
"355 851 OFFCURVE",
"358 851 CURVE",
"361 854 OFFCURVE",
"375 857 OFFCURVE",
"391 864 CURVE",
"408 814 LINE",
"405 811 OFFCURVE",
"405 811 OFFCURVE",
"408 811 CURVE",
"408 811 OFFCURVE",
"408 811 OFFCURVE",
"405 807 CURVE"
);
},
{
closed = 1;
nodes = (
"964 657 LINE",
"987 667 OFFCURVE",
"1004 677 OFFCURVE",
"1018 690 CURVE",
"1051 650 LINE",
"1034 633 OFFCURVE",
"1014 620 OFFCURVE",
"987 610 CURVE"
);
},
{
closed = 1;
nodes = (
"639 747 OFFCURVE",
"646 740 OFFCURVE",
"653 734 CURVE",
"659 723 OFFCURVE",
"666 717 OFFCURVE",
"669 713 CURVE",
"632 673 LINE",
"629 677 OFFCURVE",
"622 687 OFFCURVE",
"616 697 CURVE",
"606 707 OFFCURVE",
"599 713 OFFCURVE",
"596 717 CURVE SMOOTH",
"586 727 LINE",
"626 764 LINE",
"629 760 OFFCURVE",
"632 757 OFFCURVE",
"636 750 CURVE"
);
},
{
closed = 1;
nodes = (
"1339 777 LINE",
"1299 817 LINE",
"1336 851 LINE",
"1299 884 LINE",
"1339 924 LINE",
"1372 888 LINE",
"1406 924 LINE",
"1446 884 LINE",
"1409 851 LINE",
"1446 817 LINE",
"1406 777 LINE",
"1372 814 LINE"
);
}
);
width = 1660;
}
);
leftKerningGroup = 10;
rightKerningGroup = 10;
unicode = F203;
},
{
glyphname = uniF204;
lastChange = "2014-08-26 21:31:26 -0600";
layers = (
{
layerId = "888C22D7-38C6-439F-A69E-1A09249D6A03";
name = Regular;
paths = (
{
closed = 1;
nodes = (
"80 750 LINE SMOOTH",
"80 767 OFFCURVE",
"87 784 OFFCURVE",
"100 797 CURVE",
"113 807 OFFCURVE",
"130 814 OFFCURVE",
"147 814 CURVE SMOOTH",
"164 814 OFFCURVE",
"180 807 OFFCURVE",
"194 797 CURVE",
"204 784 OFFCURVE",
"210 767 OFFCURVE",
"210 750 CURVE SMOOTH",
"210 703 LINE SMOOTH",
"210 613 OFFCURVE",
"244 533 OFFCURVE",
"314 462 CURVE SMOOTH",
"385 392 OFFCURVE",
"465 359 OFFCURVE",
"562 359 CURVE SMOOTH",
"659 359 OFFCURVE",
"739 392 OFFCURVE",
"810 462 CURVE SMOOTH",
"880 533 OFFCURVE",
"914 613 OFFCURVE",
"914 703 CURVE SMOOTH",
"914 750 LINE SMOOTH",
"914 767 OFFCURVE",
"920 784 OFFCURVE",
"934 797 CURVE SMOOTH",
"944 807 OFFCURVE",
"960 814 OFFCURVE",
"977 814 CURVE SMOOTH",
"994 814 OFFCURVE",
"1011 807 OFFCURVE",
"1024 797 CURVE",
"1037 784 OFFCURVE",
"1044 767 OFFCURVE",
"1044 750 CURVE SMOOTH",
"1044 703 LINE SMOOTH",
"1044 593 OFFCURVE",
"1011 499 OFFCURVE",
"944 415 CURVE SMOOTH",
"873 332 OFFCURVE",
"786 275 OFFCURVE",
"683 248 CURVE",
"676 248 LINE",
"669 245 LINE",
"649 238 OFFCURVE",
"636 225 OFFCURVE",
"629 201 CURVE",
"629 7 LINE SMOOTH",
"629 -10 OFFCURVE",
"622 -27 OFFCURVE",
"609 -40 CURVE SMOOTH",
"595 -53 OFFCURVE",
"579 -60 OFFCURVE",
"562 -60 CURVE SMOOTH",
"545 -60 OFFCURVE",
"529 -53 OFFCURVE",
"515 -40 CURVE SMOOTH",
"502 -27 OFFCURVE",
"495 -10 OFFCURVE",
"495 7 CURVE SMOOTH",
"495 201 LINE",
"488 225 OFFCURVE",
"475 238 OFFCURVE",
"455 245 CURVE",
"448 248 LINE",
"441 248 LINE",
"338 275 OFFCURVE",
"251 332 OFFCURVE",
"184 415 CURVE SMOOTH",
"113 499 OFFCURVE",
"80 593 OFFCURVE",
"80 703 CURVE SMOOTH"
);
},
{
closed = 1;
nodes = (
"304 1186 LINE SMOOTH",
"304 1256 OFFCURVE",
"331 1316 OFFCURVE",
"381 1366 CURVE SMOOTH",
"431 1417 OFFCURVE",
"492 1440 OFFCURVE",
"562 1440 CURVE SMOOTH",
"632 1440 OFFCURVE",
"696 1417 OFFCURVE",
"746 1366 CURVE SMOOTH",
"796 1316 OFFCURVE",
"823 1256 OFFCURVE",
"823 1186 CURVE SMOOTH",
"823 703 LINE SMOOTH",
"823 633 OFFCURVE",
"796 576 OFFCURVE",
"746 526 CURVE SMOOTH",
"696 476 OFFCURVE",
"632 452 OFFCURVE",
"562 452 CURVE SMOOTH",
"492 452 OFFCURVE",
"431 476 OFFCURVE",
"381 526 CURVE SMOOTH",
"331 576 OFFCURVE",
"304 633 OFFCURVE",
"304 703 CURVE SMOOTH"
);
}
);
width = 1124;
}
);
leftKerningGroup = 10;
rightKerningGroup = 10;
unicode = F204;
},
{
glyphname = uniF205;
lastChange = "2014-08-26 21:31:26 -0600";
layers = (
{
layerId = "888C22D7-38C6-439F-A69E-1A09249D6A03";
name = Regular;
paths = (
{
closed = 1;
nodes = (
"621 1189 OFFCURVE",
"624 1129 OFFCURVE",
"611 1058 CURVE SMOOTH",
"604 1028 OFFCURVE",
"587 998 OFFCURVE",
"564 965 CURVE SMOOTH",
"554 951 OFFCURVE",
"544 941 OFFCURVE",
"527 934 CURVE",
"523 934 OFFCURVE",
"523 934 OFFCURVE",
"523 934 CURVE",
"523 931 OFFCURVE",
"523 931 OFFCURVE",
"520 931 CURVE",
"507 928 OFFCURVE",
"497 924 OFFCURVE",
"487 921 CURVE",
"443 911 OFFCURVE",
"400 904 OFFCURVE",
"356 904 CURVE SMOOTH",
"353 904 LINE",
"349 904 LINE SMOOTH",
"302 904 OFFCURVE",
"256 911 OFFCURVE",
"212 921 CURVE",
"202 924 OFFCURVE",
"192 928 OFFCURVE",
"179 931 CURVE",
"175 931 OFFCURVE",
"175 931 OFFCURVE",
"175 934 CURVE",
"175 934 OFFCURVE",
"175 934 OFFCURVE",
"172 934 CURVE",
"155 941 OFFCURVE",
"145 951 OFFCURVE",
"135 965 CURVE SMOOTH",
"112 998 OFFCURVE",
"95 1028 OFFCURVE",
"88 1058 CURVE SMOOTH",
"75 1129 OFFCURVE",
"78 1189 OFFCURVE",
"95 1242 CURVE SMOOTH",
"112 1303 OFFCURVE",
"145 1350 OFFCURVE",
"192 1386 CURVE SMOOTH",
"239 1423 OFFCURVE",
"292 1440 OFFCURVE",
"349 1440 CURVE SMOOTH",
"406 1440 OFFCURVE",
"460 1423 OFFCURVE",
"507 1386 CURVE SMOOTH",
"554 1350 OFFCURVE",
"587 1303 OFFCURVE",
"604 1242 CURVE SMOOTH"
);
},
{
closed = 1;
nodes = (
"480 874 LINE SMOOTH",
"507 874 OFFCURVE",
"520 861 OFFCURVE",
"520 834 CURVE SMOOTH",
"520 827 LINE",
"480 292 OFFCURVE",
"460 10 OFFCURVE",
"456 -16 CURVE",
"450 -47 OFFCURVE",
"413 -60 OFFCURVE",
"349 -60 CURVE SMOOTH",
"319 -60 OFFCURVE",
"296 -57 OFFCURVE",
"279 -50 CURVE SMOOTH",
"262 -43 OFFCURVE",
"252 -37 OFFCURVE",
"249 -27 CURVE",
"242 -16 LINE",
"242 -6 OFFCURVE",
"239 54 OFFCURVE",
"232 161 CURVE SMOOTH",
"222 265 OFFCURVE",
"215 389 OFFCURVE",
"205 526 CURVE SMOOTH",
"195 663 OFFCURVE",
"185 764 OFFCURVE",
"182 827 CURVE",
"182 834 LINE SMOOTH",
"182 861 OFFCURVE",
"195 874 OFFCURVE",
"219 874 CURVE SMOOTH",
"222 874 LINE",
"225 871 LINE",
"229 871 LINE SMOOTH",
"232 871 OFFCURVE",
"236 871 OFFCURVE",
"239 871 CURVE",
"242 867 OFFCURVE",
"246 867 OFFCURVE",
"249 867 CURVE",
"269 864 OFFCURVE",
"302 861 OFFCURVE",
"353 861 CURVE SMOOTH",
"396 861 OFFCURVE",
"430 864 OFFCURVE",
"450 867 CURVE",
"453 867 OFFCURVE",
"456 867 OFFCURVE",
"460 871 CURVE",
"463 871 OFFCURVE",
"467 871 OFFCURVE",
"470 871 CURVE SMOOTH",
"473 871 LINE",
"477 874 LINE"
);
},
{
closed = 1;
nodes = (
"383 713 LINE SMOOTH",
"383 737 OFFCURVE",
"373 750 OFFCURVE",
"349 750 CURVE SMOOTH",
"326 750 OFFCURVE",
"316 737 OFFCURVE",
"316 713 CURVE SMOOTH",
"316 603 LINE SMOOTH",
"316 580 OFFCURVE",
"326 566 OFFCURVE",
"349 566 CURVE SMOOTH",
"373 566 OFFCURVE",
"383 580 OFFCURVE",
"383 603 CURVE SMOOTH"
);
}
);
width = 699.061;
}
);
leftKerningGroup = 10;
rightKerningGroup = 10;
unicode = F205;
},
{
glyphname = uniF206;
lastChange = "2014-08-26 21:31:26 -0600";
layers = (
{
layerId = "888C22D7-38C6-439F-A69E-1A09249D6A03";
name = Regular;
paths = (
{
closed = 1;
nodes = (
"753 1440 LINE SMOOTH",
"804 1440 OFFCURVE",
"847 1423 OFFCURVE",
"884 1390 CURVE SMOOTH",
"921 1356 OFFCURVE",
"938 1316 OFFCURVE",
"938 1266 CURVE SMOOTH",
"938 1172 LINE",
"740 1172 LINE",
"740 1048 LINE",
"938 1048 LINE",
"938 904 LINE",
"740 904 LINE",
"740 780 LINE",
"938 780 LINE",
"938 636 LINE",
"740 636 LINE",
"740 513 LINE",
"938 513 LINE",
"938 372 LINE SMOOTH",
"938 322 OFFCURVE",
"921 282 OFFCURVE",
"884 248 CURVE SMOOTH",
"847 215 OFFCURVE",
"804 198 OFFCURVE",
"753 198 CURVE SMOOTH",
"653 198 LINE",
"653 -60 LINE",
"365 -60 LINE",
"365 198 LINE",
"265 198 LINE SMOOTH",
"214 198 OFFCURVE",
"171 215 OFFCURVE",
"134 248 CURVE SMOOTH",
"97 282 OFFCURVE",
"80 322 OFFCURVE",
"80 372 CURVE SMOOTH",
"80 513 LINE",
"589 513 LINE",
"589 636 LINE",
"80 636 LINE",
"80 780 LINE",
"589 780 LINE",
"589 904 LINE",
"80 904 LINE",
"80 1048 LINE",
"589 1048 LINE",
"589 1172 LINE",
"80 1172 LINE",
"80 1266 LINE SMOOTH",
"80 1316 OFFCURVE",
"97 1356 OFFCURVE",
"134 1390 CURVE SMOOTH",
"171 1423 OFFCURVE",
"214 1440 OFFCURVE",
"265 1440 CURVE SMOOTH"
);
}
);
width = 1018;
}
);
leftKerningGroup = 10;
rightKerningGroup = 10;
unicode = F206;
},
{
glyphname = uniF207;
lastChange = "2014-08-26 21:31:26 -0600";
layers = (
{
layerId = "888C22D7-38C6-439F-A69E-1A09249D6A03";
name = Regular;
paths = (
{
closed = 1;
nodes = (
"445 1366 OFFCURVE",
"622 1440 OFFCURVE",
"830 1440 CURVE SMOOTH",
"1038 1440 OFFCURVE",
"1215 1366 OFFCURVE",
"1362 1222 CURVE SMOOTH",
"1506 1075 OFFCURVE",
"1580 898 OFFCURVE",
"1580 690 CURVE SMOOTH",
"1580 482 OFFCURVE",
"1506 305 OFFCURVE",
"1362 161 CURVE SMOOTH",
"1215 14 OFFCURVE",
"1038 -60 OFFCURVE",
"830 -60 CURVE SMOOTH",
"622 -60 OFFCURVE",
"445 14 OFFCURVE",
"301 161 CURVE SMOOTH",
"154 305 OFFCURVE",
"80 482 OFFCURVE",
"80 690 CURVE SMOOTH",
"80 898 OFFCURVE",
"154 1075 OFFCURVE",
"301 1222 CURVE SMOOTH"
);
},
{
closed = 1;
nodes = (
"1259 636 LINE",
"1259 744 LINE",
"401 744 LINE",
"401 636 LINE"
);
}
);
width = 1660;
}
);
leftKerningGroup = 10;
rightKerningGroup = 10;
unicode = F207;
},
{
glyphname = uniF208;
lastChange = "2014-08-26 21:31:26 -0600";
layers = (
{
layerId = "888C22D7-38C6-439F-A69E-1A09249D6A03";
name = Regular;
paths = (
{
closed = 1;
nodes = (
"1459 815 LINE SMOOTH",
"1494 815 OFFCURVE",
"1521 803 OFFCURVE",
"1545 780 CURVE",
"1568 753 OFFCURVE",
"1580 725 OFFCURVE",
"1580 690 CURVE SMOOTH",
"1580 655 OFFCURVE",
"1568 628 OFFCURVE",
"1545 604 CURVE",
"1521 577 OFFCURVE",
"1494 565 OFFCURVE",
"1459 565 CURVE SMOOTH",
"201 565 LINE SMOOTH",
"166 565 OFFCURVE",
"139 577 OFFCURVE",
"115 604 CURVE",
"92 628 OFFCURVE",
"80 655 OFFCURVE",
"80 690 CURVE SMOOTH",
"80 725 OFFCURVE",
"92 753 OFFCURVE",
"115 780 CURVE",
"139 803 OFFCURVE",
"166 815 OFFCURVE",
"201 815 CURVE SMOOTH"
);
}
);
width = 1660;
}
);
leftKerningGroup = 10;
rightKerningGroup = 10;
unicode = F208;
},
{
glyphname = uniF20A;
lastChange = "2014-08-26 21:31:26 -0600";
layers = (
{
layerId = "888C22D7-38C6-439F-A69E-1A09249D6A03";
name = Regular;
paths = (
{
closed = 1;
nodes = (
"1543 1333 LINE SMOOTH",
"1567 1333 OFFCURVE",
"1580 1319 OFFCURVE",
"1580 1296 CURVE SMOOTH",
"1580 405 LINE SMOOTH",
"1580 382 OFFCURVE",
"1567 369 OFFCURVE",
"1543 369 CURVE SMOOTH",
"117 369 LINE SMOOTH",
"93 369 OFFCURVE",
"80 382 OFFCURVE",
"80 405 CURVE SMOOTH",
"80 1296 LINE SMOOTH",
"80 1319 OFFCURVE",
"93 1333 OFFCURVE",
"117 1333 CURVE SMOOTH"
);
},
{
closed = 1;
nodes = (
"1473 476 LINE",
"1473 1226 LINE",
"187 1226 LINE",
"187 476 LINE"
);
},
{
closed = 1;
nodes = (
"984 47 LINE",
"676 47 LINE SMOOTH",
"599 47 OFFCURVE",
"559 54 OFFCURVE",
"562 71 CURVE",
"562 74 OFFCURVE",
"565 81 OFFCURVE",
"576 87 CURVE SMOOTH",
"586 94 OFFCURVE",
"599 104 OFFCURVE",
"619 114 CURVE",
"636 124 OFFCURVE",
"653 134 OFFCURVE",
"663 144 CURVE",
"673 151 OFFCURVE",
"676 158 OFFCURVE",
"676 164 CURVE SMOOTH",
"679 315 LINE",
"830 315 LINE",
"981 315 LINE",
"984 225 OFFCURVE",
"984 174 OFFCURVE",
"984 164 CURVE SMOOTH",
"984 158 OFFCURVE",
"991 151 OFFCURVE",
"1001 144 CURVE",
"1011 134 OFFCURVE",
"1024 124 OFFCURVE",
"1044 114 CURVE",
"1061 104 OFFCURVE",
"1074 94 OFFCURVE",
"1084 87 CURVE",
"1111 67 OFFCURVE",
"1098 54 OFFCURVE",
"1048 50 CURVE SMOOTH"
);
}
);
width = 1660;
}
);
leftKerningGroup = 10;
rightKerningGroup = 10;
unicode = F20A;
},
{
glyphname = uniF20B;
lastChange = "2014-08-26 21:31:26 -0600";
layers = (
{
layerId = "888C22D7-38C6-439F-A69E-1A09249D6A03";
name = Regular;
paths = (
{
closed = 1;
nodes = (
"377 522 OFFCURVE",
"330 502 OFFCURVE",
"275 502 CURVE SMOOTH",
"221 502 OFFCURVE",
"174 522 OFFCURVE",
"139 557 CURVE",
"100 592 OFFCURVE",
"80 639 OFFCURVE",
"80 690 CURVE SMOOTH",
"80 740 OFFCURVE",
"100 787 OFFCURVE",
"139 822 CURVE",
"174 857 OFFCURVE",
"221 877 OFFCURVE",
"275 877 CURVE SMOOTH",
"330 877 OFFCURVE",
"377 857 OFFCURVE",
"416 822 CURVE",
"451 787 OFFCURVE",
"471 740 OFFCURVE",
"471 690 CURVE SMOOTH",
"471 639 OFFCURVE",
"451 592 OFFCURVE",
"416 557 CURVE"
);
},
{
closed = 1;
nodes = (
"932 522 OFFCURVE",
"885 502 OFFCURVE",
"830 502 CURVE SMOOTH",
"775 502 OFFCURVE",
"728 522 OFFCURVE",
"693 557 CURVE",
"654 592 OFFCURVE",
"635 639 OFFCURVE",
"635 690 CURVE SMOOTH",
"635 740 OFFCURVE",
"654 787 OFFCURVE",
"693 822 CURVE",
"728 857 OFFCURVE",
"775 877 OFFCURVE",
"830 877 CURVE SMOOTH",
"885 877 OFFCURVE",
"932 857 OFFCURVE",
"971 822 CURVE",
"1006 787 OFFCURVE",
"1025 740 OFFCURVE",
"1025 690 CURVE SMOOTH",
"1025 639 OFFCURVE",
"1006 592 OFFCURVE",
"971 557 CURVE"
);
},
{
closed = 1;
nodes = (
"1486 522 OFFCURVE",
"1439 502 OFFCURVE",
"1385 502 CURVE SMOOTH",
"1330 502 OFFCURVE",
"1283 522 OFFCURVE",
"1248 557 CURVE",
"1209 592 OFFCURVE",
"1189 639 OFFCURVE",
"1189 690 CURVE SMOOTH",
"1189 740 OFFCURVE",
"1209 787 OFFCURVE",
"1248 822 CURVE",
"1283 857 OFFCURVE",
"1330 877 OFFCURVE",
"1385 877 CURVE SMOOTH",
"1439 877 OFFCURVE",
"1486 857 OFFCURVE",
"1525 822 CURVE",
"1560 787 OFFCURVE",
"1580 740 OFFCURVE",
"1580 690 CURVE SMOOTH",
"1580 639 OFFCURVE",
"1560 592 OFFCURVE",
"1525 557 CURVE"
);
}
);
width = 1660;
}
);
leftKerningGroup = 10;
rightKerningGroup = 10;
unicode = F20B;
},
{
glyphname = uniF20C;
lastChange = "2014-08-26 21:31:26 -0600";
layers = (
{
layerId = "888C22D7-38C6-439F-A69E-1A09249D6A03";
name = Regular;
paths = (
{
closed = 1;
nodes = (
"1312 1440 OFFCURVE",
"1329 1433 OFFCURVE",
"1346 1420 CURVE",
"1359 1407 OFFCURVE",
"1366 1390 OFFCURVE",
"1366 1370 CURVE SMOOTH",
"1366 355 LINE SMOOTH",
"1366 268 OFFCURVE",
"1352 208 OFFCURVE",
"1326 171 CURVE",
"1296 124 OFFCURVE",
"1249 101 OFFCURVE",
"1182 101 CURVE SMOOTH",
"1058 101 LINE SMOOTH",
"1011 101 OFFCURVE",
"971 117 OFFCURVE",
"937 148 CURVE",
"900 178 OFFCURVE",
"884 215 OFFCURVE",
"884 261 CURVE SMOOTH",
"884 308 OFFCURVE",
"900 348 OFFCURVE",
"937 379 CURVE",
"971 409 OFFCURVE",
"1011 422 OFFCURVE",
"1058 422 CURVE SMOOTH",
"1259 422 LINE",
"1259 1065 LINE",
"562 938 LINE",
"562 161 LINE SMOOTH",
"562 111 OFFCURVE",
"549 64 OFFCURVE",
"519 24 CURVE",
"515 20 OFFCURVE",
"515 20 OFFCURVE",
"512 17 CURVE SMOOTH",
"509 14 OFFCURVE",
"509 10 OFFCURVE",
"509 7 CURVE",
"502 0 LINE",
"469 -40 OFFCURVE",
"425 -60 OFFCURVE",
"375 -60 CURVE SMOOTH",
"251 -60 LINE SMOOTH",
"204 -60 OFFCURVE",
"164 -43 OFFCURVE",
"130 -13 CURVE SMOOTH",
"97 17 OFFCURVE",
"80 54 OFFCURVE",
"80 101 CURVE SMOOTH",
"80 148 OFFCURVE",
"97 188 OFFCURVE",
"130 218 CURVE SMOOTH",
"164 248 OFFCURVE",
"204 261 OFFCURVE",
"251 261 CURVE SMOOTH",
"455 261 LINE",
"455 1219 LINE",
"458 1242 OFFCURVE",
"469 1263 OFFCURVE",
"485 1286 CURVE",
"502 1306 OFFCURVE",
"522 1319 OFFCURVE",
"546 1326 CURVE",
"1275 1437 LINE",
"1282 1440 OFFCURVE",
"1289 1440 OFFCURVE",
"1292 1440 CURVE SMOOTH"
);
}
);
width = 1446;
}
);
leftKerningGroup = 10;
rightKerningGroup = 10;
unicode = F20C;
},
{
glyphname = uniF20D;
lastChange = "2014-08-26 21:31:26 -0600";
layers = (
{
layerId = "888C22D7-38C6-439F-A69E-1A09249D6A03";
name = Regular;
paths = (
{
closed = 1;
nodes = (
"1459 815 LINE SMOOTH",
"1494 815 OFFCURVE",
"1521 803 OFFCURVE",
"1545 780 CURVE",
"1568 753 OFFCURVE",
"1580 725 OFFCURVE",
"1580 690 CURVE SMOOTH",
"1580 655 OFFCURVE",
"1568 628 OFFCURVE",
"1545 604 CURVE",
"1521 577 OFFCURVE",
"1494 565 OFFCURVE",
"1459 565 CURVE SMOOTH",
"201 565 LINE SMOOTH",
"166 565 OFFCURVE",
"139 577 OFFCURVE",
"115 604 CURVE",
"92 628 OFFCURVE",
"80 655 OFFCURVE",
"80 690 CURVE SMOOTH",
"80 725 OFFCURVE",
"92 753 OFFCURVE",
"115 780 CURVE",
"139 803 OFFCURVE",
"166 815 OFFCURVE",
"201 815 CURVE SMOOTH"
);
},
{
closed = 1;
nodes = (
"1459 1315 LINE SMOOTH",
"1494 1315 OFFCURVE",
"1521 1303 OFFCURVE",
"1545 1280 CURVE",
"1568 1253 OFFCURVE",
"1580 1225 OFFCURVE",
"1580 1190 CURVE SMOOTH",
"1580 1155 OFFCURVE",
"1568 1128 OFFCURVE",
"1545 1104 CURVE",
"1521 1077 OFFCURVE",
"1494 1065 OFFCURVE",
"1459 1065 CURVE SMOOTH",
"201 1065 LINE SMOOTH",
"166 1065 OFFCURVE",
"139 1077 OFFCURVE",
"115 1104 CURVE",
"92 1128 OFFCURVE",
"80 1155 OFFCURVE",
"80 1190 CURVE SMOOTH",
"80 1225 OFFCURVE",
"92 1253 OFFCURVE",
"115 1280 CURVE",
"139 1303 OFFCURVE",
"166 1315 OFFCURVE",
"201 1315 CURVE SMOOTH"
);
},
{
closed = 1;
nodes = (
"1459 315 LINE SMOOTH",
"1494 315 OFFCURVE",
"1521 303 OFFCURVE",
"1545 280 CURVE",
"1568 253 OFFCURVE",
"1580 225 OFFCURVE",
"1580 190 CURVE SMOOTH",
"1580 155 OFFCURVE",
"1568 128 OFFCURVE",
"1545 104 CURVE",
"1521 77 OFFCURVE",
"1494 65 OFFCURVE",
"1459 65 CURVE SMOOTH",
"201 65 LINE SMOOTH",
"166 65 OFFCURVE",
"139 77 OFFCURVE",
"115 104 CURVE",
"92 128 OFFCURVE",
"80 155 OFFCURVE",
"80 190 CURVE SMOOTH",
"80 225 OFFCURVE",
"92 253 OFFCURVE",
"115 280 CURVE",
"139 303 OFFCURVE",
"166 315 OFFCURVE",
"201 315 CURVE SMOOTH"
);
}
);
width = 1660;
}
);
leftKerningGroup = 10;
rightKerningGroup = 10;
unicode = F20D;
},
{
glyphname = uniF20F;
lastChange = "2014-08-26 21:31:26 -0600";
layers = (
{
layerId = "888C22D7-38C6-439F-A69E-1A09249D6A03";
name = Regular;
paths = (
{
closed = 1;
nodes = (
"685 1076 OFFCURVE",
"700 1060 OFFCURVE",
"700 1029 CURVE SMOOTH",
"700 273 LINE SMOOTH",
"700 173 OFFCURVE",
"669 91 OFFCURVE",
"607 29 CURVE SMOOTH",
"549 -29 OFFCURVE",
"475 -60 OFFCURVE",
"390 -60 CURVE SMOOTH",
"309 -60 OFFCURVE",
"235 -29 OFFCURVE",
"173 33 CURVE SMOOTH",
"111 91 OFFCURVE",
"80 176 OFFCURVE",
"80 281 CURVE SMOOTH",
"80 1188 LINE SMOOTH",
"80 1285 OFFCURVE",
"119 1355 OFFCURVE",
"192 1397 CURVE SMOOTH",
"270 1440 OFFCURVE",
"343 1440 OFFCURVE",
"413 1397 CURVE SMOOTH",
"487 1351 OFFCURVE",
"526 1281 OFFCURVE",
"526 1188 CURVE SMOOTH",
"522 316 LINE SMOOTH",
"522 266 OFFCURVE",
"510 223 OFFCURVE",
"487 192 CURVE SMOOTH",
"464 161 OFFCURVE",
"433 145 OFFCURVE",
"390 145 CURVE SMOOTH",
"355 145 OFFCURVE",
"324 161 OFFCURVE",
"297 192 CURVE",
"270 219 OFFCURVE",
"258 262 OFFCURVE",
"258 316 CURVE SMOOTH",
"258 987 LINE SMOOTH",
"258 998 OFFCURVE",
"262 1006 OFFCURVE",
"274 1018 CURVE SMOOTH",
"285 1029 OFFCURVE",
"293 1033 OFFCURVE",
"305 1033 CURVE SMOOTH",
"332 1033 OFFCURVE",
"347 1018 OFFCURVE",
"347 987 CURVE SMOOTH",
"347 316 LINE SMOOTH",
"347 262 OFFCURVE",
"363 235 OFFCURVE",
"390 235 CURVE SMOOTH",
"398 235 OFFCURVE",
"406 238 OFFCURVE",
"417 250 CURVE",
"429 269 OFFCURVE",
"437 289 OFFCURVE",
"437 316 CURVE SMOOTH",
"437 1188 LINE SMOOTH",
"437 1254 OFFCURVE",
"413 1297 OFFCURVE",
"371 1320 CURVE SMOOTH",
"324 1347 OFFCURVE",
"278 1347 OFFCURVE",
"235 1320 CURVE",
"192 1297 OFFCURVE",
"169 1254 OFFCURVE",
"169 1188 CURVE SMOOTH",
"169 281 LINE SMOOTH",
"169 200 OFFCURVE",
"192 142 OFFCURVE",
"235 99 CURVE SMOOTH",
"278 56 OFFCURVE",
"332 33 OFFCURVE",
"390 33 CURVE SMOOTH",
"448 33 OFFCURVE",
"502 52 OFFCURVE",
"545 95 CURVE SMOOTH",
"588 138 OFFCURVE",
"611 196 OFFCURVE",
"611 277 CURVE SMOOTH",
"611 1033 LINE SMOOTH",
"611 1060 OFFCURVE",
"626 1076 OFFCURVE",
"657 1076 CURVE SMOOTH"
);
}
);
width = 780;
}
);
leftKerningGroup = 10;
rightKerningGroup = 10;
unicode = F20F;
},
{
glyphname = uniF210;
lastChange = "2014-08-26 21:31:26 -0600";
layers = (
{
layerId = "888C22D7-38C6-439F-A69E-1A09249D6A03";
name = Regular;
paths = (
{
closed = 1;
nodes = (
"455 -13 LINE SMOOTH",
"455 -44 OFFCURVE",
"439 -60 OFFCURVE",
"408 -60 CURVE SMOOTH",
"127 -60 LINE SMOOTH",
"96 -60 OFFCURVE",
"80 -44 OFFCURVE",
"80 -13 CURVE SMOOTH",
"80 1393 LINE SMOOTH",
"80 1424 OFFCURVE",
"96 1440 OFFCURVE",
"127 1440 CURVE SMOOTH",
"408 1440 LINE SMOOTH",
"439 1440 OFFCURVE",
"455 1424 OFFCURVE",
"455 1393 CURVE SMOOTH"
);
},
{
closed = 1;
nodes = (
"1033 1440 LINE SMOOTH",
"1064 1440 OFFCURVE",
"1080 1424 OFFCURVE",
"1080 1393 CURVE SMOOTH",
"1080 -13 LINE SMOOTH",
"1080 -44 OFFCURVE",
"1064 -60 OFFCURVE",
"1033 -60 CURVE SMOOTH",
"752 -60 LINE SMOOTH",
"721 -60 OFFCURVE",
"705 -44 OFFCURVE",
"705 -13 CURVE SMOOTH",
"705 1393 LINE SMOOTH",
"705 1424 OFFCURVE",
"721 1440 OFFCURVE",
"752 1440 CURVE SMOOTH"
);
}
);
width = 1160;
}
);
leftKerningGroup = 10;
rightKerningGroup = 10;
unicode = F210;
},
{
glyphname = uniF211;
lastChange = "2014-08-26 21:31:26 -0600";
layers = (
{
layerId = "888C22D7-38C6-439F-A69E-1A09249D6A03";
name = Regular;
paths = (
{
closed = 1;
nodes = (
"1631 409 LINE",
"1467 409 LINE",
"1467 608 LINE",
"1268 608 LINE",
"1268 772 LINE",
"1467 772 LINE",
"1467 971 LINE",
"1631 971 LINE",
"1631 772 LINE",
"1830 772 LINE",
"1830 608 LINE",
"1631 608 LINE"
);
},
{
closed = 1;
nodes = (
"1580 -60 LINE",
"830 -60 LINE",
"80 -60 LINE",
"80 6 OFFCURVE",
"84 61 OFFCURVE",
"88 96 CURVE",
"100 147 OFFCURVE",
"205 213 OFFCURVE",
"404 288 CURVE SMOOTH",
"435 299 OFFCURVE",
"475 311 OFFCURVE",
"518 327 CURVE SMOOTH",
"576 346 OFFCURVE",
"611 366 OFFCURVE",
"623 378 CURVE SMOOTH",
"635 389 OFFCURVE",
"639 420 OFFCURVE",
"639 479 CURVE SMOOTH",
"639 491 OFFCURVE",
"639 499 OFFCURVE",
"639 503 CURVE SMOOTH",
"639 534 OFFCURVE",
"627 565 OFFCURVE",
"603 596 CURVE",
"580 624 OFFCURVE",
"560 678 OFFCURVE",
"549 753 CURVE SMOOTH",
"545 780 OFFCURVE",
"537 799 OFFCURVE",
"525 815 CURVE SMOOTH",
"514 831 OFFCURVE",
"506 862 OFFCURVE",
"494 909 CURVE",
"486 932 OFFCURVE",
"486 956 OFFCURVE",
"494 975 CURVE",
"498 995 OFFCURVE",
"502 1010 OFFCURVE",
"502 1014 CURVE",
"498 1057 OFFCURVE",
"490 1100 OFFCURVE",
"486 1143 CURVE SMOOTH",
"482 1202 OFFCURVE",
"506 1268 OFFCURVE",
"564 1338 CURVE SMOOTH",
"623 1405 OFFCURVE",
"709 1440 OFFCURVE",
"830 1440 CURVE SMOOTH",
"951 1440 OFFCURVE",
"1037 1405 OFFCURVE",
"1096 1338 CURVE SMOOTH",
"1154 1268 OFFCURVE",
"1178 1202 OFFCURVE",
"1174 1143 CURVE SMOOTH",
"1170 1100 OFFCURVE",
"1162 1057 OFFCURVE",
"1158 1014 CURVE",
"1158 1010 OFFCURVE",
"1162 995 OFFCURVE",
"1170 975 CURVE",
"1174 956 OFFCURVE",
"1174 932 OFFCURVE",
"1166 909 CURVE",
"1154 862 OFFCURVE",
"1146 831 OFFCURVE",
"1135 815 CURVE SMOOTH",
"1123 799 OFFCURVE",
"1115 780 OFFCURVE",
"1111 753 CURVE SMOOTH",
"1100 678 OFFCURVE",
"1080 624 OFFCURVE",
"1057 596 CURVE",
"1033 565 OFFCURVE",
"1021 534 OFFCURVE",
"1021 503 CURVE SMOOTH",
"1021 424 OFFCURVE",
"1029 381 OFFCURVE",
"1045 370 CURVE",
"1049 366 OFFCURVE",
"1115 338 OFFCURVE",
"1236 295 CURVE",
"1240 292 OFFCURVE",
"1248 292 OFFCURVE",
"1256 288 CURVE",
"1455 213 OFFCURVE",
"1560 147 OFFCURVE",
"1572 96 CURVE"
);
}
);
width = 1910;
}
);
leftKerningGroup = 10;
rightKerningGroup = 10;
unicode = F211;
},
{
glyphname = uniF212;
lastChange = "2014-08-26 21:31:26 -0600";
layers = (
{
layerId = "888C22D7-38C6-439F-A69E-1A09249D6A03";
name = Regular;
paths = (
{
closed = 1;
nodes = (
"1748 370 OFFCURVE",
"1818 327 OFFCURVE",
"1822 292 CURVE",
"1830 -60 LINE",
"1447 -60 LINE",
"1447 124 OFFCURVE",
"1447 225 OFFCURVE",
"1443 241 CURVE",
"1439 260 OFFCURVE",
"1439 280 OFFCURVE",
"1435 292 CURVE SMOOTH",
"1432 303 OFFCURVE",
"1412 327 OFFCURVE",
"1377 354 CURVE SMOOTH",
"1342 381 OFFCURVE",
"1295 409 OFFCURVE",
"1228 436 CURVE",
"1221 440 OFFCURVE",
"1209 444 OFFCURVE",
"1193 452 CURVE",
"1174 456 OFFCURVE",
"1162 460 OFFCURVE",
"1154 463 CURVE",
"1166 467 OFFCURVE",
"1174 475 OFFCURVE",
"1182 479 CURVE SMOOTH",
"1189 483 OFFCURVE",
"1197 491 OFFCURVE",
"1201 495 CURVE SMOOTH",
"1205 499 OFFCURVE",
"1209 503 OFFCURVE",
"1213 510 CURVE",
"1213 518 OFFCURVE",
"1213 526 OFFCURVE",
"1213 530 CURVE SMOOTH",
"1213 534 OFFCURVE",
"1213 542 OFFCURVE",
"1213 553 CURVE SMOOTH",
"1213 565 OFFCURVE",
"1213 569 OFFCURVE",
"1213 573 CURVE SMOOTH",
"1213 596 OFFCURVE",
"1205 620 OFFCURVE",
"1189 647 CURVE",
"1174 670 OFFCURVE",
"1162 706 OFFCURVE",
"1154 756 CURVE",
"1150 772 OFFCURVE",
"1146 788 OFFCURVE",
"1143 799 CURVE",
"1135 811 OFFCURVE",
"1127 835 OFFCURVE",
"1119 866 CURVE",
"1115 878 OFFCURVE",
"1115 893 OFFCURVE",
"1119 909 CURVE SMOOTH",
"1123 924 OFFCURVE",
"1123 932 OFFCURVE",
"1123 936 CURVE SMOOTH",
"1123 944 OFFCURVE",
"1123 956 OFFCURVE",
"1119 975 CURVE SMOOTH",
"1115 995 OFFCURVE",
"1115 1010 OFFCURVE",
"1115 1022 CURVE",
"1111 1065 OFFCURVE",
"1131 1108 OFFCURVE",
"1166 1155 CURVE SMOOTH",
"1201 1202 OFFCURVE",
"1260 1225 OFFCURVE",
"1338 1225 CURVE SMOOTH",
"1416 1225 OFFCURVE",
"1475 1202 OFFCURVE",
"1514 1155 CURVE",
"1549 1104 OFFCURVE",
"1568 1061 OFFCURVE",
"1564 1022 CURVE",
"1564 1010 OFFCURVE",
"1564 995 OFFCURVE",
"1560 975 CURVE SMOOTH",
"1557 956 OFFCURVE",
"1557 944 OFFCURVE",
"1557 936 CURVE SMOOTH",
"1557 932 OFFCURVE",
"1560 924 OFFCURVE",
"1564 913 CURVE SMOOTH",
"1568 901 OFFCURVE",
"1564 885 OFFCURVE",
"1560 866 CURVE",
"1553 835 OFFCURVE",
"1545 811 OFFCURVE",
"1541 799 CURVE",
"1533 788 OFFCURVE",
"1529 772 OFFCURVE",
"1525 756 CURVE",
"1518 706 OFFCURVE",
"1506 670 OFFCURVE",
"1490 643 CURVE",
"1471 616 OFFCURVE",
"1463 592 OFFCURVE",
"1463 573 CURVE SMOOTH",
"1463 518 OFFCURVE",
"1471 487 OFFCURVE",
"1482 475 CURVE SMOOTH",
"1486 471 OFFCURVE",
"1533 456 OFFCURVE",
"1615 420 CURVE"
);
},
{
closed = 1;
nodes = (
"1350 -60 LINE",
"713 -60 LINE",
"80 -60 LINE",
"80 108 OFFCURVE",
"84 210 OFFCURVE",
"88 241 CURVE",
"100 288 OFFCURVE",
"189 342 OFFCURVE",
"357 409 CURVE SMOOTH",
"463 448 OFFCURVE",
"521 475 OFFCURVE",
"533 491 CURVE",
"545 503 OFFCURVE",
"553 549 OFFCURVE",
"553 624 CURVE SMOOTH",
"553 651 OFFCURVE",
"541 674 OFFCURVE",
"521 702 CURVE",
"502 725 OFFCURVE",
"486 768 OFFCURVE",
"475 835 CURVE SMOOTH",
"471 854 OFFCURVE",
"467 874 OFFCURVE",
"459 889 CURVE",
"447 905 OFFCURVE",
"439 932 OFFCURVE",
"432 975 CURVE SMOOTH",
"428 995 OFFCURVE",
"428 1014 OFFCURVE",
"432 1034 CURVE",
"435 1049 OFFCURVE",
"435 1061 OFFCURVE",
"435 1065 CURVE",
"432 1100 OFFCURVE",
"428 1139 OFFCURVE",
"424 1178 CURVE SMOOTH",
"420 1229 OFFCURVE",
"439 1288 OFFCURVE",
"490 1350 CURVE SMOOTH",
"537 1409 OFFCURVE",
"611 1440 OFFCURVE",
"713 1440 CURVE SMOOTH",
"814 1440 OFFCURVE",
"889 1409 OFFCURVE",
"939 1346 CURVE SMOOTH",
"990 1284 OFFCURVE",
"1010 1229 OFFCURVE",
"1006 1178 CURVE SMOOTH",
"1002 1139 OFFCURVE",
"998 1100 OFFCURVE",
"994 1065 CURVE",
"994 1061 OFFCURVE",
"998 1049 OFFCURVE",
"1002 1034 CURVE SMOOTH",
"1006 1018 OFFCURVE",
"1006 999 OFFCURVE",
"1002 975 CURVE SMOOTH",
"994 932 OFFCURVE",
"986 905 OFFCURVE",
"975 889 CURVE SMOOTH",
"963 874 OFFCURVE",
"959 854 OFFCURVE",
"955 835 CURVE SMOOTH",
"943 768 OFFCURVE",
"928 725 OFFCURVE",
"908 702 CURVE",
"889 674 OFFCURVE",
"877 651 OFFCURVE",
"877 624 CURVE SMOOTH",
"877 581 OFFCURVE",
"877 557 OFFCURVE",
"877 545 CURVE SMOOTH",
"877 534 OFFCURVE",
"881 522 OFFCURVE",
"889 503 CURVE SMOOTH",
"896 483 OFFCURVE",
"908 471 OFFCURVE",
"924 467 CURVE",
"939 460 OFFCURVE",
"963 448 OFFCURVE",
"998 436 CURVE",
"1006 432 OFFCURVE",
"1029 424 OFFCURVE",
"1072 409 CURVE SMOOTH",
"1240 342 OFFCURVE",
"1330 288 OFFCURVE",
"1342 241 CURVE",
"1346 210 OFFCURVE",
"1350 147 OFFCURVE",
"1350 57 CURVE SMOOTH"
);
}
);
width = 1910;
}
);
leftKerningGroup = 10;
rightKerningGroup = 10;
unicode = F212;
},
{
glyphname = uniF213;
lastChange = "2014-08-26 21:31:26 -0600";
layers = (
{
layerId = "888C22D7-38C6-439F-A69E-1A09249D6A03";
name = Regular;
paths = (
{
closed = 1;
nodes = (
"1580 -60 LINE",
"830 -60 LINE",
"80 -60 LINE",
"80 6 OFFCURVE",
"84 61 OFFCURVE",
"88 96 CURVE",
"100 147 OFFCURVE",
"205 213 OFFCURVE",
"404 288 CURVE SMOOTH",
"435 299 OFFCURVE",
"475 311 OFFCURVE",
"518 327 CURVE SMOOTH",
"576 346 OFFCURVE",
"611 366 OFFCURVE",
"623 378 CURVE SMOOTH",
"635 389 OFFCURVE",
"639 420 OFFCURVE",
"639 479 CURVE SMOOTH",
"639 491 OFFCURVE",
"639 499 OFFCURVE",
"639 503 CURVE SMOOTH",
"639 534 OFFCURVE",
"627 565 OFFCURVE",
"603 596 CURVE",
"580 624 OFFCURVE",
"560 678 OFFCURVE",
"549 753 CURVE SMOOTH",
"545 780 OFFCURVE",
"537 799 OFFCURVE",
"525 815 CURVE SMOOTH",
"514 831 OFFCURVE",
"506 862 OFFCURVE",
"494 909 CURVE",
"486 932 OFFCURVE",
"486 956 OFFCURVE",
"494 975 CURVE",
"498 995 OFFCURVE",
"502 1010 OFFCURVE",
"502 1014 CURVE",
"498 1057 OFFCURVE",
"490 1100 OFFCURVE",
"486 1143 CURVE SMOOTH",
"482 1202 OFFCURVE",
"506 1268 OFFCURVE",
"564 1338 CURVE SMOOTH",
"623 1405 OFFCURVE",
"709 1440 OFFCURVE",
"830 1440 CURVE SMOOTH",
"951 1440 OFFCURVE",
"1037 1405 OFFCURVE",
"1096 1338 CURVE SMOOTH",
"1154 1268 OFFCURVE",
"1178 1202 OFFCURVE",
"1174 1143 CURVE SMOOTH",
"1170 1100 OFFCURVE",
"1162 1057 OFFCURVE",
"1158 1014 CURVE",
"1158 1010 OFFCURVE",
"1162 995 OFFCURVE",
"1170 975 CURVE",
"1174 956 OFFCURVE",
"1174 932 OFFCURVE",
"1166 909 CURVE",
"1154 862 OFFCURVE",
"1146 831 OFFCURVE",
"1135 815 CURVE SMOOTH",
"1123 799 OFFCURVE",
"1115 780 OFFCURVE",
"1111 753 CURVE SMOOTH",
"1100 678 OFFCURVE",
"1080 624 OFFCURVE",
"1057 596 CURVE",
"1033 565 OFFCURVE",
"1021 534 OFFCURVE",
"1021 503 CURVE SMOOTH",
"1021 424 OFFCURVE",
"1029 381 OFFCURVE",
"1045 370 CURVE",
"1049 366 OFFCURVE",
"1115 338 OFFCURVE",
"1236 295 CURVE",
"1240 292 OFFCURVE",
"1248 292 OFFCURVE",
"1256 288 CURVE",
"1455 213 OFFCURVE",
"1560 147 OFFCURVE",
"1572 96 CURVE"
);
}
);
width = 1660;
}
);
leftKerningGroup = 10;
rightKerningGroup = 10;
unicode = F213;
},
{
glyphname = uniF214;
lastChange = "2014-08-26 21:31:26 -0600";
layers = (
{
layerId = "888C22D7-38C6-439F-A69E-1A09249D6A03";
name = Regular;
paths = (
{
closed = 1;
nodes = (
"917 338 OFFCURVE",
"910 225 OFFCURVE",
"897 161 CURVE",
"894 158 OFFCURVE",
"897 151 OFFCURVE",
"904 148 CURVE SMOOTH",
"910 144 OFFCURVE",
"914 141 OFFCURVE",
"914 138 CURVE",
"1084 27 LINE",
"1095 0 LINE",
"1098 -60 LINE",
"870 -6 LINE",
"830 -114 LINE",
"790 -6 LINE",
"562 -60 LINE",
"565 0 LINE",
"565 14 OFFCURVE",
"569 24 OFFCURVE",
"572 27 CURVE",
"746 138 LINE",
"746 141 OFFCURVE",
"750 144 OFFCURVE",
"756 148 CURVE SMOOTH",
"763 151 OFFCURVE",
"766 158 OFFCURVE",
"763 161 CURVE",
"750 225 OFFCURVE",
"743 338 OFFCURVE",
"743 502 CURVE SMOOTH",
"743 509 OFFCURVE",
"740 516 OFFCURVE",
"736 519 CURVE SMOOTH",
"733 523 OFFCURVE",
"726 523 OFFCURVE",
"723 523 CURVE",
"716 519 LINE",
"509 476 LINE",
"80 312 LINE",
"80 369 OFFCURVE",
"90 402 OFFCURVE",
"110 415 CURVE SMOOTH",
"723 854 LINE",
"733 995 OFFCURVE",
"740 1122 OFFCURVE",
"740 1232 CURVE SMOOTH",
"740 1279 OFFCURVE",
"750 1336 OFFCURVE",
"770 1400 CURVE",
"786 1463 OFFCURVE",
"807 1494 OFFCURVE",
"830 1494 CURVE SMOOTH",
"853 1494 OFFCURVE",
"874 1463 OFFCURVE",
"894 1400 CURVE",
"910 1336 OFFCURVE",
"920 1279 OFFCURVE",
"920 1232 CURVE",
"937 854 LINE",
"1550 415 LINE SMOOTH",
"1570 402 OFFCURVE",
"1580 369 OFFCURVE",
"1580 312 CURVE",
"1151 476 LINE",
"944 519 LINE SMOOTH",
"927 523 OFFCURVE",
"917 519 OFFCURVE",
"917 502 CURVE SMOOTH"
);
}
);
width = 1660;
}
);
leftKerningGroup = 10;
rightKerningGroup = 10;
unicode = F214;
},
{
glyphname = uniF215;
lastChange = "2014-08-26 21:31:26 -0600";
layers = (
{
layerId = "888C22D7-38C6-439F-A69E-1A09249D6A03";
name = Regular;
paths = (
{
closed = 1;
nodes = (
"1287 780 LINE",
"1314 756 OFFCURVE",
"1330 725 OFFCURVE",
"1330 690 CURVE SMOOTH",
"1330 655 OFFCURVE",
"1314 624 OFFCURVE",
"1287 600 CURVE",
"201 -48 LINE",
"185 -56 OFFCURVE",
"170 -60 OFFCURVE",
"158 -60 CURVE SMOOTH",
"139 -60 OFFCURVE",
"119 -52 OFFCURVE",
"103 -37 CURVE SMOOTH",
"88 -21 OFFCURVE",
"80 -1 OFFCURVE",
"80 18 CURVE SMOOTH",
"80 1362 LINE SMOOTH",
"80 1381 OFFCURVE",
"88 1401 OFFCURVE",
"103 1417 CURVE SMOOTH",
"119 1432 OFFCURVE",
"139 1440 OFFCURVE",
"158 1440 CURVE SMOOTH",
"174 1440 OFFCURVE",
"189 1436 OFFCURVE",
"201 1428 CURVE"
);
}
);
width = 1410;
}
);
leftKerningGroup = 10;
rightKerningGroup = 10;
unicode = F215;
},
